<svg width="33" height="36" viewBox="0 0 33 36" fill="none" xmlns="http://www.w3.org/2000/svg">
<path d="M17.43 26.98C17.47 26.66 17.5 26.34 17.5 26C17.5 25.66 17.47 25.34 17.43 25.02L19.54 23.37C19.73 23.22 19.78 22.95 19.66 22.73L17.66 19.27C17.57 19.11 17.4 19.02 17.22 19.02C17.16 19.02 17.1 19.03 17.05 19.05L14.56 20.05C14.04 19.65 13.48 19.32 12.87 19.07L12.49 16.42C12.46 16.18 12.25 16 12 16H7.99996C7.74996 16 7.53996 16.18 7.50996 16.42L7.12996 19.07C6.51996 19.32 5.95996 19.66 5.43996 20.05L2.94996 19.05C2.88996 19.03 2.82996 19.02 2.76996 19.02C2.59996 19.02 2.42996 19.11 2.33996 19.27L0.339961 22.73C0.209961 22.95 0.269962 23.22 0.459962 23.37L2.56996 25.02C2.52996 25.34 2.49996 25.67 2.49996 26C2.49996 26.33 2.52996 26.66 2.56996 26.98L0.459962 28.63C0.269962 28.78 0.219961 29.05 0.339961 29.27L2.33996 32.73C2.42996 32.89 2.59996 32.98 2.77996 32.98C2.83996 32.98 2.89996 32.97 2.94996 32.95L5.43996 31.95C5.95996 32.35 6.51996 32.68 7.12996 32.93L7.50996 35.58C7.53996 35.82 7.74996 36 7.99996 36H12C12.25 36 12.46 35.82 12.49 35.58L12.87 32.93C13.48 32.68 14.04 32.34 14.56 31.95L17.05 32.95C17.11 32.97 17.17 32.98 17.23 32.98C17.4 32.98 17.57 32.89 17.66 32.73L19.66 29.27C19.78 29.05 19.73 28.78 19.54 28.63L17.43 26.98V26.98ZM15.45 25.27C15.49 25.58 15.5 25.79 15.5 26C15.5 26.21 15.48 26.43 15.45 26.73L15.31 27.86L16.2 28.56L17.28 29.4L16.58 30.61L15.31 30.1L14.27 29.68L13.37 30.36C12.94 30.68 12.53 30.92 12.12 31.09L11.06 31.52L10.9 32.65L10.7 34H9.29996L9.10996 32.65L8.94996 31.52L7.88996 31.09C7.45996 30.91 7.05996 30.68 6.65996 30.38L5.74996 29.68L4.68996 30.11L3.41996 30.62L2.71996 29.41L3.79996 28.57L4.68996 27.87L4.54996 26.74C4.51996 26.43 4.49996 26.2 4.49996 26C4.49996 25.8 4.51996 25.57 4.54996 25.27L4.68996 24.14L3.79996 23.44L2.71996 22.6L3.41996 21.39L4.68996 21.9L5.72996 22.32L6.62996 21.64C7.05996 21.32 7.46996 21.08 7.87996 20.91L8.93996 20.48L9.09996 19.35L9.29996 18H10.69L10.88 19.35L11.04 20.48L12.1 20.91C12.53 21.09 12.93 21.32 13.33 21.62L14.24 22.32L15.3 21.89L16.57 21.38L17.27 22.59L16.2 23.44L15.31 24.14L15.45 25.27ZM9.99996 22C7.78996 22 5.99996 23.79 5.99996 26C5.99996 28.21 7.78996 30 9.99996 30C12.21 30 14 28.21 14 26C14 23.79 12.21 22 9.99996 22ZM9.99996 28C8.89996 28 7.99996 27.1 7.99996 26C7.99996 24.9 8.89996 24 9.99996 24C11.1 24 12 24.9 12 26C12 27.1 11.1 28 9.99996 28Z" fill="#675BB5"/>
<path d="M29.356 11.1764C29.3572 10.8539 29.3485 10.5326 29.3076 10.1951C29.2666 9.85757 29.1984 9.54351 29.1201 9.23065L31.0162 7.33871C31.1868 7.16694 31.2039 6.89288 31.0583 6.68892L28.6565 3.49476C28.5479 3.34675 28.3683 3.27787 28.1896 3.29953C28.13 3.30675 28.0717 3.3239 28.0244 3.34977L25.6729 4.64216C25.1085 4.30765 24.5129 4.04744 23.8772 3.87267L23.1811 1.28766C23.1224 1.05301 22.8923 0.899593 22.6441 0.929679L18.6732 1.41106C18.425 1.44115 18.2382 1.64511 18.2373 1.88698L18.1789 4.56345C17.6035 4.88504 17.0884 5.28996 16.6192 5.73971L14.0269 5.04664C13.9649 5.034 13.9042 5.0313 13.8446 5.03852C13.6758 5.05897 13.5179 5.16878 13.4478 5.33845L11.8788 9.01399C11.7762 9.24804 11.8682 9.50885 12.0749 9.6349L14.3681 11.019C14.3669 11.3415 14.3769 11.6727 14.4166 12.0003C14.4563 12.3279 14.5258 12.6519 14.604 12.9647L12.7079 14.8567C12.5373 15.0284 12.5202 15.3025 12.6658 15.5065L15.0677 18.7006C15.1763 18.8486 15.3559 18.9175 15.5346 18.8959C15.5941 18.8886 15.6525 18.8715 15.6997 18.8456L18.0513 17.5532C18.6156 17.8877 19.2113 18.1479 19.8469 18.3227L20.5431 20.9077C20.6017 21.1424 20.8319 21.2958 21.0801 21.2657L25.051 20.7843C25.2992 20.7542 25.486 20.5503 25.4869 20.3084L25.5452 17.6319C26.1207 17.3103 26.6357 16.9054 27.105 16.4557L29.6972 17.1487C29.7592 17.1614 29.82 17.1641 29.8795 17.1569C30.0483 17.1364 30.2062 17.0266 30.2763 16.8569L31.8454 13.1814C31.938 12.9485 31.8559 12.6865 31.6492 12.5605L29.356 11.1764V11.1764ZM27.1846 9.71712C27.2616 10.02 27.2968 10.2273 27.3221 10.4358C27.3474 10.6443 27.354 10.8651 27.3603 11.1665L27.3573 12.3051L28.3251 12.8929L29.4983 13.5969L28.949 14.8823L27.6269 14.5289L26.5439 14.2371L25.7323 15.0204C25.3439 15.3899 24.9658 15.6775 24.5792 15.8956L23.5787 16.45L23.5558 17.591L23.5197 18.9553L22.1299 19.1238L21.7788 17.8065L21.484 16.7039L20.38 16.4046C19.9314 16.2777 19.5067 16.0975 19.0735 15.8478L18.0858 15.2624L17.0853 15.8169L15.8859 16.476L15.0454 15.359L16.0164 14.3952L16.8157 13.5931L16.5407 12.4882C16.4736 12.1841 16.4261 11.9581 16.402 11.7596C16.378 11.561 16.3702 11.3303 16.3638 11.0289L16.3668 9.89024L15.399 9.30244L14.2258 8.59851L14.7751 7.31307L16.0972 7.66652L17.1802 7.95831L17.9919 7.17494C18.3802 6.80552 18.7584 6.51792 19.1449 6.29982L20.1455 5.74538L20.1683 4.60433L20.2044 3.24008L21.5843 3.0728L21.9354 4.39012L22.2302 5.49265L23.3343 5.79196C23.7828 5.9189 24.2076 6.09909 24.6408 6.34877L25.6284 6.93417L26.6289 6.37973L27.8283 5.7206L28.6689 6.83756L27.7089 7.81016L26.9096 8.61218L27.1846 9.71712ZM21.3807 7.12676C19.1868 7.39272 17.6252 9.38513 17.8911 11.5791C18.1571 13.773 20.1495 15.3346 22.3435 15.0686C24.5374 14.8027 26.099 12.8102 25.833 10.6163C25.567 8.42237 23.5746 6.8608 21.3807 7.12676ZM22.1028 13.0832C21.0108 13.2155 20.009 12.4304 19.8766 11.3384C19.7442 10.2464 20.5294 9.24461 21.6214 9.11223C22.7134 8.97985 23.7152 9.76499 23.8475 10.857C23.9799 11.949 23.1948 12.9508 22.1028 13.0832Z" fill="#675BB5"/>
</svg>
