<svg width="153" height="154" viewBox="0 0 153 154" fill="none" xmlns="http://www.w3.org/2000/svg">
<path d="M63.8187 86.6029C64.6318 87.0377 65.6699 86.7293 65.8647 85.828C65.9129 85.6047 65.9485 85.3783 65.971 85.1501C66.0483 84.3659 65.9705 83.5743 65.7419 82.8202C65.5133 82.0662 65.1385 81.3645 64.6387 80.7554C64.139 80.1462 63.5241 79.6414 62.8293 79.2699C62.1345 78.8983 61.3733 78.6673 60.5891 78.5899C59.805 78.5125 59.0133 78.5903 58.2593 78.8189C57.5052 79.0475 56.8036 79.4224 56.1944 79.9221C56.0171 80.0676 55.8486 80.2229 55.6897 80.387C55.0482 81.0494 55.3681 82.0841 56.1813 82.5189L56.7322 82.8135C57.2411 83.0856 57.8662 82.8698 58.3124 82.5038V82.5038C58.5825 82.2822 58.8937 82.1159 59.2281 82.0146C59.5624 81.9132 59.9135 81.8787 60.2612 81.913C60.609 81.9473 60.9465 82.0498 61.2547 82.2145C61.5628 82.3793 61.8354 82.6031 62.0571 82.8733C62.2787 83.1434 62.4449 83.4546 62.5463 83.789C62.6477 84.1234 62.6822 84.4744 62.6479 84.8222V84.8222C62.5912 85.3964 62.7589 86.0362 63.2677 86.3083L63.8187 86.6029Z" fill="#272735"/>
<path fill-rule="evenodd" clip-rule="evenodd" d="M40 153.061C33.3726 153.061 28 147.688 28 141.061V11.5609C28 4.93345 33.4154 -0.498015 40.0213 0.0363363C144.934 8.52278 153.641 128.062 65.5287 152.646C64.5357 152.924 63.4781 153.061 62.4471 153.061H40ZM70 118.561C84.9117 118.561 97 106.473 97 91.5609C97 79.0305 88.4643 68.4938 76.8902 65.448C74.0578 64.7026 71.7565 62.3378 71.7565 59.409V59.409C71.7565 56.9673 73.6316 54.9231 74.9897 52.894C75.6278 51.9407 76 50.7942 76 49.5609C76 46.2472 73.3137 43.5609 70 43.5609C66.6863 43.5609 64 46.2472 64 49.5609C64 50.6385 64.2841 51.6498 64.7814 52.5239C65.9852 54.6394 67.7565 56.7212 67.7565 59.1553V59.1553C67.7565 62.2617 65.34 64.7795 62.36 65.657C51.169 68.9524 43 79.3026 43 91.5609C43 106.473 55.0883 118.561 70 118.561ZM74.8219 41.8945C75.4647 41.939 76.0335 41.45 75.9529 40.8108C75.9034 40.4179 75.8151 40.0301 75.6885 39.6529C75.438 38.9058 75.0427 38.2155 74.5254 37.6212C74.008 37.0269 73.3787 36.5404 72.6732 36.1893C71.9678 35.8382 71.2002 35.6296 70.4142 35.5752C69.6281 35.5208 68.839 35.6218 68.092 35.8723C67.345 36.1229 66.6546 36.5181 66.0603 37.0355C65.466 37.5529 64.9795 38.1822 64.6284 38.8876C64.4512 39.2438 64.3102 39.6158 64.2071 39.9981C64.0393 40.6201 64.5353 41.1828 65.1781 41.2272C65.8208 41.2717 66.3613 40.7728 66.6045 40.1762C66.6389 40.0919 66.6765 40.0088 66.7171 39.9271C66.9317 39.496 67.2291 39.1114 67.5923 38.7952C67.9555 38.479 68.3774 38.2374 68.8339 38.0843C69.2905 37.9312 69.7727 37.8695 70.2531 37.9027C70.7335 37.9359 71.2027 38.0635 71.6338 38.278C72.0649 38.4926 72.4495 38.7899 72.7657 39.1531C73.0819 39.5163 73.3234 39.9382 73.4766 40.3948C73.5056 40.4813 73.5314 40.5688 73.5538 40.657C73.7126 41.2814 74.1792 41.85 74.8219 41.8945ZM81.9251 37.4452C82.0595 38.4431 81.1696 39.2049 80.1643 39.1469C79.1224 39.0869 78.362 38.1607 78.1081 37.1485C78.0418 36.8842 77.9568 36.6228 77.8534 36.3658C77.5075 35.5063 76.9618 34.7121 76.2475 34.0284C75.5333 33.3447 74.6644 32.7849 73.6906 32.3811C72.7167 31.9772 71.657 31.7371 70.5718 31.6745C69.4866 31.612 68.3972 31.7281 67.3659 32.0164C66.3346 32.3047 65.3815 32.7594 64.5611 33.3546C63.7406 33.9498 63.0689 34.6738 62.5842 35.4854C62.4202 35.76 62.2787 36.0428 62.1604 36.3319C61.7788 37.2638 60.9346 38.0382 59.9293 37.9802C58.8874 37.9201 58.0826 37.0018 58.3979 36.007C58.6055 35.3521 58.8929 34.7148 59.2569 34.1055C59.959 32.9298 60.9321 31.8809 62.1207 31.0186C63.3092 30.1563 64.6899 29.4976 66.184 29.08C67.6781 28.6624 69.2562 28.4941 70.8283 28.5847C72.4004 28.6754 73.9357 29.0232 75.3465 29.6083C76.7573 30.1933 78.016 31.0043 79.0507 31.9947C80.0855 32.9852 80.876 34.1358 81.3771 35.3809C81.6474 36.0525 81.8307 36.7445 81.9251 37.4452Z" fill="#272735"/>
<path d="M85.7498 98.534C86.563 98.9688 87.6011 98.6604 87.7958 97.7591C87.8441 97.5357 87.8796 97.3094 87.9021 97.0811C87.9795 96.297 87.9017 95.5053 87.6731 94.7513C87.4445 93.9973 87.0696 93.2956 86.5699 92.6864C86.0701 92.0773 85.4553 91.5725 84.7605 91.201C84.0656 90.8294 83.3044 90.5983 82.5203 90.521C81.7362 90.4436 80.9445 90.5214 80.1904 90.75C79.4364 90.9786 78.7348 91.3535 78.1256 91.8532C77.9483 91.9987 77.7798 92.154 77.6208 92.3181C76.9794 92.9805 77.2993 94.0151 78.1124 94.45L78.6634 94.7446C79.1722 95.0167 79.7974 94.8009 80.2435 94.4349V94.4349C80.5137 94.2133 80.8248 94.047 81.1592 93.9457C81.4936 93.8443 81.8447 93.8098 82.1924 93.8441C82.5401 93.8784 82.8777 93.9809 83.1858 94.1456C83.4939 94.3104 83.7666 94.5342 83.9882 94.8044C84.2098 95.0745 84.3761 95.3857 84.4774 95.7201C84.5788 96.0544 84.6133 96.4055 84.579 96.7533V96.7533C84.5224 97.3275 84.69 97.9673 85.1989 98.2394L85.7498 98.534Z" fill="#272735"/>
<path d="M54.5271 125.031C55.0998 125.853 54.5678 126.986 53.5696 127.071L40.8422 128.154C39.8439 128.239 39.1281 127.211 39.5537 126.304L44.9798 114.741C45.4054 113.834 46.6532 113.728 47.2258 114.55L54.5271 125.031Z" fill="#F9886A"/>
<path d="M54.1344 124.846C53.1362 124.931 52.6042 126.065 53.1768 126.887L60.4782 137.368C61.0508 138.19 62.2986 138.084 62.7242 137.177L68.1503 125.613C68.5759 124.706 67.86 123.679 66.8618 123.764L54.1344 124.846Z" fill="#F9886A"/>
</svg>
