<svg width="510" height="186" viewBox="0 0 510 186" fill="none" xmlns="http://www.w3.org/2000/svg">
<path fill-rule="evenodd" clip-rule="evenodd" d="M0 141.061V11.5609C0 4.93345 5.4154 -0.498015 12.0212 0.0363362C116.934 8.52277 125.641 128.062 37.5287 152.646C36.5357 152.924 35.4791 153.061 34.4481 153.061H12.0003C5.37289 153.061 0 147.688 0 141.061ZM32.7295 114.874C46.352 120.939 62.312 114.813 68.3772 101.19C74.4423 87.5679 68.3158 71.6079 54.6933 65.5428C52.9565 64.7695 51.1816 64.1944 49.3941 63.8077C47.4958 63.3971 46 61.8059 46 59.8637V59.8637C46 58.279 47.0954 56.9396 48.2215 55.8246C49.3197 54.7372 50 53.2285 50 51.5609C50 48.2472 47.3137 45.5609 44 45.5609C40.6863 45.5609 38 48.2472 38 51.5609C38 53.2459 38.6946 54.7687 39.8131 55.8586C40.9273 56.9442 42 58.2596 42 59.8152V59.8152C42 61.751 40.4885 63.3277 38.5882 63.6966C30.2306 65.3192 22.7713 70.8587 19.0457 79.2266C12.9806 92.8491 19.107 108.809 32.7295 114.874ZM49.9169 43.5654C50.0085 44.1101 49.5523 44.5609 49 44.5609H48.84C48.2877 44.5609 47.8528 44.1058 47.7105 43.5721C47.538 42.9246 47.1973 42.3276 46.7153 41.8456C45.9952 41.1254 45.0184 40.7209 44 40.7209C42.9816 40.7209 42.0048 41.1254 41.2847 41.8456C40.8027 42.3276 40.462 42.9246 40.2895 43.5721C40.1472 44.1058 39.7123 44.5609 39.16 44.5609H39C38.4477 44.5609 37.9915 44.1101 38.0831 43.5654C38.2887 42.3434 38.8696 41.206 39.7574 40.3182C40.8826 39.193 42.4087 38.5609 44 38.5609C45.5913 38.5609 47.1174 39.193 48.2426 40.3182C49.1304 41.206 49.7113 42.3434 49.9169 43.5654ZM54.32 43C55.2478 43 56.0141 42.2427 55.8606 41.3277C55.4749 39.0294 54.3011 36.8863 52.4853 35.2218C50.2348 33.1589 47.1826 32 44 32C40.8174 32 37.7652 33.1589 35.5147 35.2218C33.6989 36.8863 32.5251 39.0294 32.1394 41.3277C31.9859 42.2427 32.7522 43 33.68 43C34.6078 43 35.3411 42.2381 35.5531 41.3348C35.9002 39.8556 36.7054 38.4861 37.8906 37.3997C39.5109 35.9144 41.7085 35.08 44 35.08C46.2915 35.08 48.4891 35.9144 50.1094 37.3997C51.2946 38.4861 52.0998 39.8556 52.4469 41.3348C52.6589 42.2381 53.3922 43 54.32 43Z" fill="white"/>
<path d="M28.8059 124.27C29.4501 125.157 28.8928 126.409 27.8029 126.523L13.9056 127.984C12.8156 128.098 12.0103 126.99 12.4561 125.989L18.1398 113.223C18.5856 112.222 19.948 112.079 20.5923 112.965L28.8059 124.27Z" fill="#F9886A"/>
<path d="M28.3724 124.077C27.2824 124.192 26.7252 125.444 27.3694 126.33L35.583 137.635C36.2272 138.522 37.5897 138.379 38.0354 137.378L43.7191 124.612C44.1649 123.611 43.3596 122.502 42.2697 122.617L28.3724 124.077Z" fill="#F9886A"/>
<path d="M39.4504 85.0274C39.9549 85.252 40.555 85.0258 40.6928 84.491C40.8055 84.0538 40.8687 83.6042 40.8806 83.1508C40.9012 82.3631 40.7665 81.5791 40.4841 80.8435C40.2018 80.1079 39.7773 79.4351 39.2349 78.8636C38.6925 78.292 38.0429 77.8329 37.3231 77.5124C36.6033 77.192 35.8274 77.0164 35.0397 76.9958C34.252 76.9751 33.468 77.1099 32.7324 77.3922C31.9968 77.6746 31.3241 78.0991 30.7525 78.6415C30.4235 78.9537 30.1317 79.3015 29.8822 79.6778C29.577 80.1381 29.8104 80.7354 30.3149 80.96L31.5384 81.5047C32.0429 81.7294 32.6247 81.4817 33.0188 81.0948C33.0295 81.0844 33.0403 81.074 33.0511 81.0637C33.3046 80.8231 33.6029 80.6349 33.9291 80.5097C34.2553 80.3845 34.603 80.3247 34.9523 80.3339C35.3016 80.343 35.6457 80.4209 35.9649 80.563C36.2841 80.7051 36.5722 80.9087 36.8127 81.1622C37.0532 81.4156 37.2415 81.714 37.3667 82.0402C37.4919 82.3664 37.5516 82.7141 37.5425 83.0634C37.5421 83.0783 37.5416 83.0933 37.5409 83.1082C37.5172 83.66 37.7224 84.258 38.2269 84.4827L39.4504 85.0274Z" fill="white"/>
<path d="M59.5483 93.9756C60.0528 94.2003 60.6529 93.974 60.7907 93.4392C60.9034 93.002 60.9666 92.5525 60.9785 92.099C60.9991 91.3114 60.8644 90.5273 60.582 89.7917C60.2997 89.0562 59.8752 88.3834 59.3328 87.8118C58.7904 87.2403 58.1408 86.7812 57.421 86.4607C56.7012 86.1402 55.9253 85.9646 55.1376 85.944C54.35 85.9234 53.5659 86.0581 52.8303 86.3405C52.0947 86.6228 51.422 87.0473 50.8504 87.5897C50.5214 87.902 50.2296 88.2498 49.9801 88.626C49.6749 89.0863 49.9083 89.6836 50.4128 89.9083L51.6363 90.453C52.1408 90.6776 52.7226 90.4299 53.1167 90.0431C53.1274 90.0326 53.1382 90.0222 53.149 90.0119C53.4025 89.7714 53.7008 89.5831 54.027 89.4579C54.3532 89.3327 54.7009 89.273 55.0502 89.2821C55.3995 89.2913 55.7436 89.3691 56.0628 89.5112C56.382 89.6534 56.6701 89.857 56.9106 90.1104C57.1511 90.3639 57.3394 90.6622 57.4646 90.9884C57.5898 91.3146 57.6495 91.6623 57.6404 92.0116C57.64 92.0266 57.6395 92.0415 57.6388 92.0565C57.6151 92.6082 57.8203 93.2063 58.3248 93.4309L59.5483 93.9756Z" fill="white"/>
<path d="M113.872 91.868H114.616C117.757 91.868 119.328 93.3973 119.328 96.456V148.288C119.328 151.429 117.757 153 114.616 153H113.872C110.731 153 109.16 151.429 109.16 148.288V96.456C109.16 93.3973 110.731 91.868 113.872 91.868ZM107.424 74.384C107.424 72.4827 108.085 70.8707 109.408 69.548C110.731 68.1427 112.301 67.44 114.12 67.44C116.021 67.44 117.633 68.1427 118.956 69.548C120.361 70.8707 121.064 72.4827 121.064 74.384C121.064 76.2027 120.403 77.8147 119.08 79.22C117.757 80.5427 116.145 81.204 114.244 81.204C112.343 81.204 110.731 80.5427 109.408 79.22C108.085 77.8973 107.424 76.2853 107.424 74.384ZM129.585 108.856C129.585 103.235 131.982 98.812 136.777 95.588C141.654 92.2813 147.069 90.628 153.021 90.628C158.973 90.628 163.561 91.496 166.785 93.232C170.092 94.8853 171.745 96.8693 171.745 99.184C171.745 101.499 170.133 103.193 166.909 104.268C166.33 102.945 164.718 101.705 162.073 100.548C159.51 99.3907 156.328 98.812 152.525 98.812C148.722 98.812 145.581 99.556 143.101 101.044C140.704 102.449 139.505 104.475 139.505 107.12C139.505 109.683 140.414 111.667 142.233 113.072C144.052 114.477 148.309 115.965 155.005 117.536C161.784 119.024 166.95 121.215 170.505 124.108C174.06 127.001 175.837 131.052 175.837 136.26C175.837 141.468 173.44 145.725 168.645 149.032C163.85 152.256 157.94 153.868 150.913 153.868C143.969 153.868 138.389 153 134.173 151.264C130.04 149.445 127.973 147.089 127.973 144.196C127.973 141.303 129.337 139.195 132.065 137.872C133.222 140.104 135.454 142.005 138.761 143.576C142.068 145.147 146.201 145.932 151.161 145.932C156.121 145.932 159.882 145.023 162.445 143.204C165.09 141.385 166.413 139.153 166.413 136.508C166.413 133.78 165.214 131.672 162.817 130.184C160.502 128.613 155.914 127.084 149.053 125.596C142.274 124.108 137.314 122 134.173 119.272C131.114 116.461 129.585 112.989 129.585 108.856ZM187.976 97.82C191.034 95.4227 194.3 93.6453 197.772 92.488C201.244 91.3307 205.46 90.752 210.42 90.752C215.38 90.752 219.72 91.868 223.44 94.1C227.242 96.332 229.144 98.7293 229.144 101.292C229.144 104.433 227.366 106.211 223.812 106.624C222.985 104.805 221.125 103.152 218.232 101.664C215.338 100.093 211.908 99.308 207.94 99.308C202.401 99.308 197.813 101.292 194.176 105.26C190.538 109.145 188.72 114.849 188.72 122.372C188.72 129.895 190.58 135.64 194.3 139.608C198.02 143.576 202.484 145.56 207.692 145.56C215.958 145.56 221.538 142.873 224.432 137.5C226.002 137.5 227.325 137.996 228.4 138.988C229.474 139.897 230.012 141.096 230.012 142.584C230.012 145.477 228.028 148.123 224.06 150.52C220.092 152.835 215.545 153.992 210.42 153.992C205.377 153.992 201.078 153.413 197.524 152.256C194.052 151.016 190.828 149.197 187.852 146.8C184.876 144.32 182.52 141.013 180.784 136.88C179.048 132.747 178.18 127.952 178.18 122.496C178.18 116.957 179.048 112.08 180.784 107.864C182.602 103.565 185 100.217 187.976 97.82ZM240.938 99.06C246.807 93.5213 253.999 90.752 262.514 90.752C271.029 90.752 278.221 93.5213 284.09 99.06C289.959 104.599 292.894 112.411 292.894 122.496C292.894 132.581 289.959 140.352 284.09 145.808C278.221 151.264 271.029 153.992 262.514 153.992C253.999 153.992 246.807 151.264 240.938 145.808C235.069 140.352 232.134 132.581 232.134 122.496C232.134 112.411 235.069 104.599 240.938 99.06ZM276.774 105.384C273.137 101.333 268.383 99.308 262.514 99.308C256.645 99.308 251.85 101.333 248.13 105.384C244.493 109.352 242.674 115.056 242.674 122.496C242.674 129.853 244.493 135.557 248.13 139.608C251.85 143.576 256.645 145.56 262.514 145.56C268.383 145.56 273.137 143.576 276.774 139.608C280.494 135.557 282.354 129.853 282.354 122.496C282.354 115.056 280.494 109.352 276.774 105.384ZM298.129 91.992H300.981C303.627 91.992 305.239 93.2733 305.817 95.836C311.273 117.164 316.523 132.912 321.565 143.08H323.053C328.096 132.912 333.345 117.164 338.801 95.836C339.38 93.2733 340.992 91.992 343.637 91.992H346.489C349.052 91.992 350.333 92.9013 350.333 94.72C350.333 95.216 350.209 95.7947 349.961 96.456C343.596 118.197 337.396 135.02 331.361 146.924C330.287 149.073 329.171 150.644 328.013 151.636C326.856 152.545 325.161 153 322.929 153H321.813C319.499 153 317.763 152.545 316.605 151.636C315.448 150.644 314.332 149.073 313.257 146.924C307.223 135.02 301.023 118.197 294.657 96.456C294.409 95.7947 294.285 95.216 294.285 94.72C294.285 92.9013 295.567 91.992 298.129 91.992ZM351.668 122.62C351.668 112.287 354.561 104.392 360.348 98.936C366.135 93.48 372.789 90.752 380.312 90.752C387.835 90.752 393.787 92.6947 398.168 96.58C402.549 100.383 404.74 105.136 404.74 110.84C404.74 116.544 402.467 121.008 397.92 124.232C393.456 127.373 387.669 128.944 380.56 128.944C373.451 128.944 367.044 127.828 361.34 125.596C361.34 131.631 363.407 136.508 367.54 140.228C371.673 143.865 376.716 145.684 382.668 145.684C391.927 145.684 397.713 142.832 400.028 137.128C401.433 137.128 402.632 137.541 403.624 138.368C404.616 139.112 405.112 140.228 405.112 141.716C405.112 144.609 402.963 147.379 398.664 150.024C394.448 152.669 389.075 153.992 382.544 153.992C373.781 153.992 366.424 151.347 360.472 146.056C354.603 140.765 351.668 132.953 351.668 122.62ZM395.316 110.468C395.316 107.244 393.911 104.516 391.1 102.284C388.372 100.052 384.569 98.936 379.692 98.936C374.897 98.936 370.681 100.879 367.044 104.764C363.407 108.649 361.547 113.031 361.464 117.908C367.416 119.892 373.327 120.884 379.196 120.884C389.943 120.884 395.316 117.412 395.316 110.468ZM416.601 91.868H417.345C420.486 91.868 422.057 93.3973 422.057 96.456V103.152C423.462 100.011 425.694 97.2 428.753 94.72C431.894 92.24 435.242 91 438.797 91C442.351 91 445.038 91.7027 446.857 93.108C448.758 94.5133 449.709 96.2493 449.709 98.316C449.709 100.3 448.841 101.871 447.105 103.028C444.542 100.879 441.814 99.804 438.921 99.804C433.795 99.804 429.745 101.912 426.769 106.128C423.793 110.261 422.305 115.469 422.305 121.752V148.288C422.305 149.941 421.933 151.14 421.189 151.884C420.445 152.628 419.246 153 417.593 153H416.601C414.947 153 413.749 152.628 413.005 151.884C412.261 151.14 411.889 149.941 411.889 148.288V96.456C411.889 93.3973 413.459 91.868 416.601 91.868ZM452.964 91.992H455.32C457.965 91.992 459.577 93.2733 460.156 95.836C465.198 115.676 470.778 131.713 476.896 143.948H478.012C484.956 126.836 490.536 110.799 494.752 95.836C495.496 93.2733 497.108 91.992 499.588 91.992H501.572C504.134 91.992 505.416 92.9013 505.416 94.72C505.416 95.216 505.292 95.7947 505.044 96.456C495.454 126.381 485.038 153.248 473.796 177.056C473.134 178.461 472.432 179.453 471.688 180.032C471.026 180.693 469.952 181.024 468.464 181.024H465.364C463.38 181.024 462.388 180.073 462.388 178.172C462.388 177.593 462.842 176.395 463.752 174.576C469.869 162.755 473.465 155.521 474.54 152.876H474.292C472.804 152.628 471.853 152.297 471.44 151.884C471.026 151.388 470.737 151.099 470.572 151.016C470.406 150.851 470.2 150.561 469.952 150.148C469.704 149.652 469.538 149.363 469.456 149.28C469.373 149.115 469.166 148.743 468.836 148.164C468.588 147.503 468.422 147.089 468.34 146.924C461.974 134.193 455.692 117.371 449.492 96.456C449.244 95.7947 449.12 95.216 449.12 94.72C449.12 92.9013 450.401 91.992 452.964 91.992Z" fill="white"/>
</svg>
