<svg width="25" height="27" viewBox="0 0 25 27" fill="none" xmlns="http://www.w3.org/2000/svg">
<path d="M4.35355 26.3536C4.15829 26.5488 3.84171 26.5488 3.64645 26.3536L0.464466 23.1716C0.269204 22.9763 0.269204 22.6597 0.464466 22.4645C0.659728 22.2692 0.976311 22.2692 1.17157 22.4645L4 25.2929L6.82843 22.4645C7.02369 22.2692 7.34027 22.2692 7.53553 22.4645C7.7308 22.6597 7.7308 22.9763 7.53553 23.1716L4.35355 26.3536ZM3.5 4C3.5 3.72386 3.72386 3.5 4 3.5C4.27614 3.5 4.5 3.72386 4.5 4H3.5ZM3.5 26L3.5 4H4.5L4.5 26H3.5Z" fill="#444444"/>
<path d="M24.3536 3.64645C24.5488 3.84171 24.5488 4.15829 24.3536 4.35355L21.1716 7.53553C20.9763 7.7308 20.6597 7.7308 20.4645 7.53553C20.2692 7.34027 20.2692 7.02369 20.4645 6.82843L23.2929 4L20.4645 1.17157C20.2692 0.97631 20.2692 0.659728 20.4645 0.464465C20.6597 0.269203 20.9763 0.269203 21.1716 0.464466L24.3536 3.64645ZM4 4.5C3.72386 4.5 3.5 4.27614 3.5 4C3.5 3.72385 3.72386 3.5 4 3.5L4 4.5ZM24 4.5L4 4.5L4 3.5L24 3.5L24 4.5Z" fill="#444444"/>
<path d="M12.8042 13.8042L14.5708 18.025L15.1208 16.6L15.2542 16.2542L15.5958 16.1208L17.025 15.5667L12.8042 13.8042V13.8042ZM11.25 12.25L18.75 15.3875V15.7958L15.9 16.9L14.8 19.75H14.3917L11.25 12.25Z" fill="#444444"/>
</svg>
