<svg width="597" height="518" viewBox="0 0 597 518" fill="none" xmlns="http://www.w3.org/2000/svg">
<rect x="5" y="5" width="587" height="508" rx="10" fill="#E5E5E5" stroke="#272735" stroke-width="10"/>
<path d="M48 439C48 437.9 47.1 437 46 437H30C28.9 437 28 437.9 28 439V451C28 452.1 28.9 453 30 453H46C47.1 453 48 452.1 48 451V439ZM46 439L38 444L30 439H46ZM46 451H30V441L38 446L46 441V451Z" fill="#272735"/>
<path d="M48 466C48 464.9 47.1 464 46 464H30C28.9 464 28 464.9 28 466V478C28 479.1 28.9 480 30 480H46C47.1 480 48 479.1 48 478V466ZM46 466L38 471L30 466H46ZM46 478H30V468L38 473L46 468V478Z" fill="#272735"/>
<path fill-rule="evenodd" clip-rule="evenodd" d="M44 194.061V64.5609C44 57.9335 49.4154 52.502 56.0212 53.0363C160.934 61.5228 169.641 181.062 81.5287 205.646C80.5357 205.924 79.4791 206.061 78.4481 206.061H56.0003C49.3729 206.061 44 200.688 44 194.061ZM76.7295 167.874C90.352 173.939 106.312 167.813 112.377 154.19C118.442 140.568 112.316 124.608 98.6933 118.543C96.9565 117.769 95.1816 117.194 93.3941 116.808C91.4958 116.397 90 114.806 90 112.864C90 111.279 91.0954 109.94 92.2215 108.825C93.3197 107.737 94 106.228 94 104.561C94 101.247 91.3137 98.5609 88 98.5609C84.6863 98.5609 82 101.247 82 104.561C82 106.246 82.6946 107.769 83.8131 108.859C84.9273 109.944 86 111.26 86 112.815C86 114.751 84.4885 116.328 82.5882 116.697C74.2306 118.319 66.7713 123.859 63.0457 132.227C56.9806 145.849 63.107 161.809 76.7295 167.874ZM93.9169 96.5655C94.0085 97.1101 93.5523 97.5609 93 97.5609H92.84C92.2877 97.5609 91.8528 97.1058 91.7105 96.5721C91.538 95.9246 91.1973 95.3276 90.7153 94.8456C89.9952 94.1255 89.0184 93.7209 88 93.7209C86.9816 93.7209 86.0048 94.1255 85.2847 94.8456C84.8027 95.3276 84.462 95.9246 84.2895 96.5721C84.1472 97.1058 83.7123 97.5609 83.16 97.5609H83C82.4477 97.5609 81.9915 97.1101 82.0831 96.5655C82.2887 95.3434 82.8696 94.206 83.7574 93.3182C84.8826 92.193 86.4087 91.5609 88 91.5609C89.5913 91.5609 91.1174 92.193 92.2426 93.3182C93.1304 94.206 93.7113 95.3434 93.9169 96.5655ZM98.32 96C99.2478 96 100.014 95.2427 99.8606 94.3277C99.4749 92.0294 98.3011 89.8864 96.4853 88.2218C94.2348 86.1589 91.1826 85 88 85C84.8174 85 81.7652 86.1589 79.5147 88.2218C77.6989 89.8864 76.5251 92.0294 76.1394 94.3277C75.9859 95.2427 76.7522 96 77.68 96C78.6078 96 79.3411 95.2381 79.5531 94.3348C79.9002 92.8556 80.7054 91.4861 81.8906 90.3997C83.5109 88.9144 85.7085 88.08 88 88.08C90.2915 88.08 92.4891 88.9144 94.1094 90.3997C95.2946 91.4861 96.0998 92.8556 96.4469 94.3348C96.6589 95.2381 97.3922 96 98.32 96Z" fill="#272735"/>
<path d="M72.8059 177.27C73.4501 178.157 72.8928 179.409 71.8029 179.523L57.9056 180.984C56.8156 181.098 56.0103 179.99 56.4561 178.989L62.1398 166.223C62.5856 165.222 63.948 165.079 64.5923 165.965L72.8059 177.27Z" fill="#F9886A"/>
<path d="M72.3724 177.077C71.2824 177.192 70.7252 178.443 71.3694 179.33L79.583 190.635C80.2272 191.522 81.5897 191.379 82.0354 190.377L87.7191 177.612C88.1649 176.61 87.3596 175.502 86.2697 175.617L72.3724 177.077Z" fill="#F9886A"/>
<path d="M83.4504 138.027C83.9549 138.252 84.555 138.026 84.6928 137.491C84.8055 137.054 84.8687 136.604 84.8806 136.151C84.9012 135.363 84.7665 134.579 84.4841 133.844C84.2018 133.108 83.7773 132.435 83.2349 131.864C82.6925 131.292 82.0429 130.833 81.3231 130.512C80.6033 130.192 79.8274 130.016 79.0397 129.996C78.252 129.975 77.468 130.11 76.7324 130.392C75.9968 130.675 75.3241 131.099 74.7525 131.641C74.4235 131.954 74.1317 132.302 73.8822 132.678C73.577 133.138 73.8104 133.735 74.3149 133.96L75.5384 134.505C76.0429 134.729 76.6247 134.482 77.0188 134.095C77.0295 134.084 77.0403 134.074 77.0511 134.064C77.3046 133.823 77.6029 133.635 77.9291 133.51C78.2553 133.384 78.603 133.325 78.9523 133.334C79.3016 133.343 79.6457 133.421 79.9649 133.563C80.2841 133.705 80.5722 133.909 80.8127 134.162C81.0532 134.416 81.2415 134.714 81.3667 135.04C81.4919 135.366 81.5516 135.714 81.5425 136.063C81.5421 136.078 81.5416 136.093 81.5409 136.108C81.5172 136.66 81.7224 137.258 82.2269 137.483L83.4504 138.027Z" fill="#272735"/>
<path d="M103.548 146.976C104.053 147.2 104.653 146.974 104.791 146.439C104.903 146.002 104.967 145.552 104.978 145.099C104.999 144.311 104.864 143.527 104.582 142.792C104.3 142.056 103.875 141.383 103.333 140.812C102.79 140.24 102.141 139.781 101.421 139.461C100.701 139.14 99.9253 138.965 99.1376 138.944C98.35 138.923 97.5659 139.058 96.8303 139.34C96.0947 139.623 95.422 140.047 94.8504 140.59C94.5214 140.902 94.2296 141.25 93.9801 141.626C93.6749 142.086 93.9083 142.684 94.4128 142.908L95.6363 143.453C96.1408 143.678 96.7226 143.43 97.1167 143.043C97.1274 143.033 97.1382 143.022 97.149 143.012C97.4025 142.771 97.7008 142.583 98.027 142.458C98.3532 142.333 98.7009 142.273 99.0502 142.282C99.3995 142.291 99.7436 142.369 100.063 142.511C100.382 142.653 100.67 142.857 100.911 143.11C101.151 143.364 101.339 143.662 101.465 143.988C101.59 144.315 101.65 144.662 101.64 145.012C101.64 145.027 101.639 145.042 101.639 145.056C101.615 145.608 101.82 146.206 102.325 146.431L103.548 146.976Z" fill="#272735"/>
<path d="M157.6 144.868H158.344C161.485 144.868 163.056 146.397 163.056 149.456V201.288C163.056 204.429 161.485 206 158.344 206H157.6C154.459 206 152.888 204.429 152.888 201.288V149.456C152.888 146.397 154.459 144.868 157.6 144.868ZM151.152 127.384C151.152 125.483 151.813 123.871 153.136 122.548C154.459 121.143 156.029 120.44 157.848 120.44C159.749 120.44 161.361 121.143 162.684 122.548C164.089 123.871 164.792 125.483 164.792 127.384C164.792 129.203 164.131 130.815 162.808 132.22C161.485 133.543 159.873 134.204 157.972 134.204C156.071 134.204 154.459 133.543 153.136 132.22C151.813 130.897 151.152 129.285 151.152 127.384ZM173.313 161.856C173.313 156.235 175.71 151.812 180.505 148.588C185.382 145.281 190.797 143.628 196.749 143.628C202.701 143.628 207.289 144.496 210.513 146.232C213.82 147.885 215.473 149.869 215.473 152.184C215.473 154.499 213.861 156.193 210.637 157.268C210.058 155.945 208.446 154.705 205.801 153.548C203.238 152.391 200.056 151.812 196.253 151.812C192.45 151.812 189.309 152.556 186.829 154.044C184.432 155.449 183.233 157.475 183.233 160.12C183.233 162.683 184.142 164.667 185.961 166.072C187.78 167.477 192.037 168.965 198.733 170.536C205.512 172.024 210.678 174.215 214.233 177.108C217.788 180.001 219.565 184.052 219.565 189.26C219.565 194.468 217.168 198.725 212.373 202.032C207.578 205.256 201.668 206.868 194.641 206.868C187.697 206.868 182.117 206 177.901 204.264C173.768 202.445 171.701 200.089 171.701 197.196C171.701 194.303 173.065 192.195 175.793 190.872C176.95 193.104 179.182 195.005 182.489 196.576C185.796 198.147 189.929 198.932 194.889 198.932C199.849 198.932 203.61 198.023 206.173 196.204C208.818 194.385 210.141 192.153 210.141 189.508C210.141 186.78 208.942 184.672 206.545 183.184C204.23 181.613 199.642 180.084 192.781 178.596C186.002 177.108 181.042 175 177.901 172.272C174.842 169.461 173.313 165.989 173.313 161.856ZM231.704 150.82C234.762 148.423 238.028 146.645 241.5 145.488C244.972 144.331 249.188 143.752 254.148 143.752C259.108 143.752 263.448 144.868 267.168 147.1C270.97 149.332 272.872 151.729 272.872 154.292C272.872 157.433 271.094 159.211 267.54 159.624C266.713 157.805 264.853 156.152 261.96 154.664C259.066 153.093 255.636 152.308 251.668 152.308C246.129 152.308 241.541 154.292 237.904 158.26C234.266 162.145 232.448 167.849 232.448 175.372C232.448 182.895 234.308 188.64 238.028 192.608C241.748 196.576 246.212 198.56 251.42 198.56C259.686 198.56 265.266 195.873 268.16 190.5C269.73 190.5 271.053 190.996 272.128 191.988C273.202 192.897 273.74 194.096 273.74 195.584C273.74 198.477 271.756 201.123 267.788 203.52C263.82 205.835 259.273 206.992 254.148 206.992C249.105 206.992 244.806 206.413 241.252 205.256C237.78 204.016 234.556 202.197 231.58 199.8C228.604 197.32 226.248 194.013 224.512 189.88C222.776 185.747 221.908 180.952 221.908 175.496C221.908 169.957 222.776 165.08 224.512 160.864C226.33 156.565 228.728 153.217 231.704 150.82ZM284.666 152.06C290.535 146.521 297.727 143.752 306.242 143.752C314.757 143.752 321.949 146.521 327.818 152.06C333.687 157.599 336.622 165.411 336.622 175.496C336.622 185.581 333.687 193.352 327.818 198.808C321.949 204.264 314.757 206.992 306.242 206.992C297.727 206.992 290.535 204.264 284.666 198.808C278.797 193.352 275.862 185.581 275.862 175.496C275.862 165.411 278.797 157.599 284.666 152.06ZM320.502 158.384C316.865 154.333 312.111 152.308 306.242 152.308C300.373 152.308 295.578 154.333 291.858 158.384C288.221 162.352 286.402 168.056 286.402 175.496C286.402 182.853 288.221 188.557 291.858 192.608C295.578 196.576 300.373 198.56 306.242 198.56C312.111 198.56 316.865 196.576 320.502 192.608C324.222 188.557 326.082 182.853 326.082 175.496C326.082 168.056 324.222 162.352 320.502 158.384ZM341.857 144.992H344.709C347.355 144.992 348.967 146.273 349.545 148.836C355.001 170.164 360.251 185.912 365.293 196.08H366.781C371.824 185.912 377.073 170.164 382.529 148.836C383.108 146.273 384.72 144.992 387.365 144.992H390.217C392.78 144.992 394.061 145.901 394.061 147.72C394.061 148.216 393.937 148.795 393.689 149.456C387.324 171.197 381.124 188.02 375.089 199.924C374.015 202.073 372.899 203.644 371.741 204.636C370.584 205.545 368.889 206 366.657 206H365.541C363.227 206 361.491 205.545 360.333 204.636C359.176 203.644 358.06 202.073 356.985 199.924C350.951 188.02 344.751 171.197 338.385 149.456C338.137 148.795 338.013 148.216 338.013 147.72C338.013 145.901 339.295 144.992 341.857 144.992ZM395.396 175.62C395.396 165.287 398.29 157.392 404.076 151.936C409.863 146.48 416.518 143.752 424.04 143.752C431.563 143.752 437.515 145.695 441.896 149.58C446.278 153.383 448.468 158.136 448.468 163.84C448.468 169.544 446.195 174.008 441.648 177.232C437.184 180.373 431.398 181.944 424.288 181.944C417.179 181.944 410.772 180.828 405.068 178.596C405.068 184.631 407.135 189.508 411.268 193.228C415.402 196.865 420.444 198.684 426.396 198.684C435.655 198.684 441.442 195.832 443.756 190.128C445.162 190.128 446.36 190.541 447.352 191.368C448.344 192.112 448.84 193.228 448.84 194.716C448.84 197.609 446.691 200.379 442.392 203.024C438.176 205.669 432.803 206.992 426.272 206.992C417.51 206.992 410.152 204.347 404.2 199.056C398.331 193.765 395.396 185.953 395.396 175.62ZM439.044 163.468C439.044 160.244 437.639 157.516 434.828 155.284C432.1 153.052 428.298 151.936 423.42 151.936C418.626 151.936 414.41 153.879 410.772 157.764C407.135 161.649 405.275 166.031 405.192 170.908C411.144 172.892 417.055 173.884 422.924 173.884C433.671 173.884 439.044 170.412 439.044 163.468ZM460.329 144.868H461.073C464.214 144.868 465.785 146.397 465.785 149.456V156.152C467.19 153.011 469.422 150.2 472.481 147.72C475.622 145.24 478.97 144 482.525 144C486.079 144 488.766 144.703 490.585 146.108C492.486 147.513 493.437 149.249 493.437 151.316C493.437 153.3 492.569 154.871 490.833 156.028C488.27 153.879 485.542 152.804 482.649 152.804C477.523 152.804 473.473 154.912 470.497 159.128C467.521 163.261 466.033 168.469 466.033 174.752V201.288C466.033 202.941 465.661 204.14 464.917 204.884C464.173 205.628 462.974 206 461.321 206H460.329C458.675 206 457.477 205.628 456.733 204.884C455.989 204.14 455.617 202.941 455.617 201.288V149.456C455.617 146.397 457.187 144.868 460.329 144.868ZM496.692 144.992H499.048C501.693 144.992 503.305 146.273 503.884 148.836C508.926 168.676 514.506 184.713 520.624 196.948H521.74C528.684 179.836 534.264 163.799 538.48 148.836C539.224 146.273 540.836 144.992 543.316 144.992H545.3C547.862 144.992 549.144 145.901 549.144 147.72C549.144 148.216 549.02 148.795 548.772 149.456C539.182 179.381 528.766 206.248 517.524 230.056C516.862 231.461 516.16 232.453 515.416 233.032C514.754 233.693 513.68 234.024 512.192 234.024H509.092C507.108 234.024 506.116 233.073 506.116 231.172C506.116 230.593 506.57 229.395 507.48 227.576C513.597 215.755 517.193 208.521 518.268 205.876H518.02C516.532 205.628 515.581 205.297 515.168 204.884C514.754 204.388 514.465 204.099 514.3 204.016C514.134 203.851 513.928 203.561 513.68 203.148C513.432 202.652 513.266 202.363 513.184 202.28C513.101 202.115 512.894 201.743 512.564 201.164C512.316 200.503 512.15 200.089 512.068 199.924C505.702 187.193 499.42 170.371 493.22 149.456C492.972 148.795 492.848 148.216 492.848 147.72C492.848 145.901 494.129 144.992 496.692 144.992Z" fill="#272735"/>
<path d="M288.05 233.9C288.05 231.367 289.183 229.2 291.45 227.4C293.717 225.6 296.5 224.7 299.8 224.7C303.133 224.7 305.683 225.117 307.45 225.95C309.217 226.75 310.1 227.75 310.1 228.95C310.1 230.15 309.367 230.9 307.9 231.2C306.633 229.3 304.083 228.35 300.25 228.35C297.983 228.35 296.133 228.883 294.7 229.95C293.267 230.983 292.55 232.25 292.55 233.75C292.55 235.25 293.133 236.4 294.3 237.2C295.467 238 297.167 238.7 299.4 239.3C301.667 239.867 303.4 240.383 304.6 240.85C305.833 241.317 307.067 241.933 308.3 242.7C310.7 244.167 311.9 246.383 311.9 249.35C311.9 252.283 310.7 254.7 308.3 256.6C305.9 258.467 302.9 259.4 299.3 259.4C295.7 259.4 292.883 258.933 290.85 258C288.85 257.033 287.85 255.9 287.85 254.6C287.85 253.267 288.7 252.383 290.4 251.95C291.633 254.45 294.417 255.7 298.75 255.7C301.517 255.7 303.667 255.15 305.2 254.05C306.767 252.917 307.55 251.483 307.55 249.75C307.55 247.983 306.767 246.633 305.2 245.7C303.667 244.767 301.25 243.9 297.95 243.1C294.683 242.267 292.217 241.15 290.55 239.75C288.883 238.35 288.05 236.4 288.05 233.9ZM318.088 234.35H318.388C319.654 234.35 320.288 234.967 320.288 236.2V257.1C320.288 258.367 319.654 259 318.388 259H318.088C316.821 259 316.188 258.367 316.188 257.1V236.2C316.188 234.967 316.821 234.35 318.088 234.35ZM315.488 227.3C315.488 226.533 315.754 225.883 316.288 225.35C316.821 224.783 317.454 224.5 318.188 224.5C318.954 224.5 319.604 224.783 320.138 225.35C320.704 225.883 320.988 226.533 320.988 227.3C320.988 228.033 320.721 228.683 320.188 229.25C319.654 229.783 319.004 230.05 318.238 230.05C317.471 230.05 316.821 229.783 316.288 229.25C315.754 228.717 315.488 228.067 315.488 227.3ZM327.323 234.35H327.623C328.923 234.35 329.573 234.983 329.573 236.25V238.35C331.107 235.45 333.457 234 336.623 234C338.657 234 340.34 234.55 341.673 235.65C343.04 236.717 343.973 238.217 344.473 240.15C345.007 238.217 345.99 236.7 347.423 235.6C348.857 234.5 350.507 233.95 352.373 233.95C358.107 233.95 360.973 237.3 360.973 244V257.15C360.973 258.383 360.307 259 358.973 259H358.673C357.407 259 356.773 258.383 356.773 257.15V244.25C356.773 239.683 355.04 237.4 351.573 237.4C349.14 237.4 347.473 238.283 346.573 240.05C345.707 241.817 345.273 244.217 345.273 247.25V257.15C345.273 258.383 344.623 259 343.323 259H342.973C341.707 259 341.073 258.383 341.073 257.15V244.25C341.073 239.683 339.323 237.4 335.823 237.4C331.657 237.4 329.573 240.633 329.573 247.1V257.15C329.573 258.383 328.923 259 327.623 259H327.323C326.057 259 325.423 258.383 325.423 257.15V236.25C325.423 234.983 326.057 234.35 327.323 234.35ZM366.057 234.4H366.407C367.674 234.4 368.307 235.017 368.307 236.25V249.1C368.307 253.667 370.324 255.95 374.357 255.95C375.891 255.95 377.174 255.5 378.207 254.6C380.074 253 381.007 250.6 381.007 247.4V236.25C381.007 235.017 381.657 234.4 382.957 234.4H383.307C383.974 234.4 384.441 234.55 384.707 234.85C385.007 235.117 385.157 235.583 385.157 236.25V257.15C385.157 257.817 385.007 258.3 384.707 258.6C384.407 258.867 383.924 259 383.257 259H382.957C381.657 259 381.007 258.383 381.007 257.15V254.65C380.541 255.717 379.541 256.783 378.007 257.85C376.507 258.883 374.891 259.4 373.157 259.4C367.157 259.4 364.157 256.05 364.157 249.35V236.25C364.157 235.017 364.791 234.4 366.057 234.4ZM391.887 223.95H392.237C393.504 223.95 394.137 224.567 394.137 225.8V257.1C394.137 258.367 393.504 259 392.237 259H391.887C391.187 259 390.687 258.85 390.387 258.55C390.12 258.25 389.987 257.767 389.987 257.1V225.8C389.987 225.133 390.12 224.667 390.387 224.4C390.687 224.1 391.187 223.95 391.887 223.95ZM407.498 233.95C414.564 233.95 418.098 237.233 418.098 243.8V253.7C418.098 255.533 418.798 256.7 420.198 257.2C419.698 258.467 418.764 259.1 417.398 259.1C416.398 259.1 415.598 258.75 414.998 258.05C414.431 257.317 414.148 256.367 414.148 255.2C412.048 258 409.331 259.4 405.998 259.4C403.298 259.4 401.164 258.717 399.598 257.35C398.064 255.95 397.298 254.083 397.298 251.75C397.298 249.383 398.198 247.467 399.998 246C401.831 244.533 404.298 243.8 407.398 243.8C409.264 243.8 410.831 244 412.098 244.4C413.131 244.767 413.748 245 413.948 245.1V242.9C413.948 240.867 413.431 239.433 412.398 238.6C411.364 237.733 409.798 237.3 407.698 237.3C404.731 237.3 402.431 238.433 400.798 240.7C399.398 240.5 398.698 239.85 398.698 238.75C398.698 237.483 399.564 236.367 401.298 235.4C403.031 234.433 405.098 233.95 407.498 233.95ZM413.948 248.3C411.848 247.367 409.781 246.9 407.748 246.9C405.714 246.9 404.148 247.333 403.048 248.2C401.948 249.067 401.398 250.2 401.398 251.6C401.398 252.967 401.864 254.067 402.798 254.9C403.764 255.7 405.164 256.1 406.998 256.1C408.864 256.1 410.481 255.433 411.848 254.1C413.248 252.767 413.948 251.15 413.948 249.25V248.3ZM426.507 227.7H426.857C428.123 227.7 428.757 228.317 428.757 229.55V234.5H435.657C436.957 234.5 437.607 235.067 437.607 236.2C437.607 237.333 436.957 237.9 435.657 237.9H428.757V250.5C428.757 252.6 429.157 254.083 429.957 254.95C430.79 255.783 431.99 256.2 433.557 256.2C435.157 256.2 436.34 255.817 437.107 255.05C437.94 255.317 438.357 255.85 438.357 256.65C438.357 257.45 437.807 258.117 436.707 258.65C435.607 259.15 434.29 259.4 432.757 259.4C427.323 259.4 424.607 256.433 424.607 250.5V237.9H422.157C421.423 237.9 420.89 237.783 420.557 237.55C420.223 237.317 420.057 236.867 420.057 236.2C420.057 235.067 420.757 234.5 422.157 234.5H424.607V229.55C424.607 228.317 425.24 227.7 426.507 227.7ZM441.525 237.25C443.892 235.017 446.792 233.9 450.225 233.9C453.658 233.9 456.558 235.017 458.925 237.25C461.292 239.483 462.475 242.633 462.475 246.7C462.475 250.767 461.292 253.9 458.925 256.1C456.558 258.3 453.658 259.4 450.225 259.4C446.792 259.4 443.892 258.3 441.525 256.1C439.158 253.9 437.975 250.767 437.975 246.7C437.975 242.633 439.158 239.483 441.525 237.25ZM455.975 239.8C454.508 238.167 452.592 237.35 450.225 237.35C447.858 237.35 445.925 238.167 444.425 239.8C442.958 241.4 442.225 243.7 442.225 246.7C442.225 249.667 442.958 251.967 444.425 253.6C445.925 255.2 447.858 256 450.225 256C452.592 256 454.508 255.2 455.975 253.6C457.475 251.967 458.225 249.667 458.225 246.7C458.225 243.7 457.475 241.4 455.975 239.8ZM467.136 234.35H467.436C468.703 234.35 469.336 234.967 469.336 236.2V238.9C469.903 237.633 470.803 236.5 472.036 235.5C473.303 234.5 474.653 234 476.086 234C477.519 234 478.603 234.283 479.336 234.85C480.103 235.417 480.486 236.117 480.486 236.95C480.486 237.75 480.136 238.383 479.436 238.85C478.403 237.983 477.303 237.55 476.136 237.55C474.069 237.55 472.436 238.4 471.236 240.1C470.036 241.767 469.436 243.867 469.436 246.4V257.1C469.436 257.767 469.286 258.25 468.986 258.55C468.686 258.85 468.203 259 467.536 259H467.136C466.469 259 465.986 258.85 465.686 258.55C465.386 258.25 465.236 257.767 465.236 257.1V236.2C465.236 234.967 465.869 234.35 467.136 234.35Z" fill="#272735"/>
<path d="M36.08 364.86C36.13 364.53 36.24 364.24 36.38 363.99C36.52 363.74 36.72 363.53 36.97 363.37C37.21 363.22 37.51 363.15 37.88 363.14C38.11 363.15 38.32 363.19 38.51 363.27C38.71 363.36 38.89 363.48 39.03 363.63C39.17 363.78 39.28 363.96 39.37 364.16C39.46 364.36 39.5 364.58 39.51 364.8H41.3C41.28 364.33 41.19 363.9 41.02 363.51C40.85 363.12 40.62 362.78 40.32 362.5C40.02 362.22 39.66 362 39.24 361.84C38.82 361.68 38.36 361.61 37.85 361.61C37.2 361.61 36.63 361.72 36.15 361.95C35.67 362.18 35.27 362.48 34.95 362.87C34.63 363.26 34.39 363.71 34.24 364.23C34.09 364.75 34 365.29 34 365.87V366.14C34 366.72 34.08 367.26 34.23 367.78C34.38 368.3 34.62 368.75 34.94 369.13C35.26 369.51 35.66 369.82 36.14 370.04C36.62 370.26 37.19 370.38 37.84 370.38C38.31 370.38 38.75 370.3 39.16 370.15C39.57 370 39.93 369.79 40.24 369.52C40.55 369.25 40.8 368.94 40.98 368.58C41.16 368.22 41.27 367.84 41.28 367.43H39.49C39.48 367.64 39.43 367.83 39.34 368.01C39.25 368.19 39.13 368.34 38.98 368.47C38.83 368.6 38.66 368.7 38.46 368.77C38.27 368.84 38.07 368.86 37.86 368.87C37.5 368.86 37.2 368.79 36.97 368.64C36.72 368.48 36.52 368.27 36.38 368.02C36.24 367.77 36.13 367.47 36.08 367.14C36.03 366.81 36 366.47 36 366.14V365.87C36 365.52 36.03 365.19 36.08 364.86ZM38 356C32.48 356 28 360.48 28 366C28 371.52 32.48 376 38 376C43.52 376 48 371.52 48 366C48 360.48 43.52 356 38 356ZM38 374C33.59 374 30 370.41 30 366C30 361.59 33.59 358 38 358C42.41 358 46 361.59 46 366C46 370.41 42.41 374 38 374Z" fill="black"/>
<path d="M59.1 360.815H59.235C59.625 360.815 59.82 361.005 59.82 361.385V369.875H64.44C64.82 369.875 65.01 370.065 65.01 370.445C65.01 370.815 64.82 371 64.44 371H59.1C58.71 371 58.515 370.81 58.515 370.43V361.385C58.515 361.005 58.71 360.815 59.1 360.815ZM65.27 367.325C65.27 366.075 65.62 365.12 66.32 364.46C67.02 363.8 67.825 363.47 68.735 363.47C69.645 363.47 70.365 363.705 70.895 364.175C71.425 364.635 71.69 365.21 71.69 365.9C71.69 366.59 71.415 367.13 70.865 367.52C70.325 367.9 69.625 368.09 68.765 368.09C67.905 368.09 67.13 367.955 66.44 367.685C66.44 368.415 66.69 369.005 67.19 369.455C67.69 369.895 68.3 370.115 69.02 370.115C70.14 370.115 70.84 369.77 71.12 369.08C71.29 369.08 71.435 369.13 71.555 369.23C71.675 369.32 71.735 369.455 71.735 369.635C71.735 369.985 71.475 370.32 70.955 370.64C70.445 370.96 69.795 371.12 69.005 371.12C67.945 371.12 67.055 370.8 66.335 370.16C65.625 369.52 65.27 368.575 65.27 367.325ZM70.55 365.855C70.55 365.465 70.38 365.135 70.04 364.865C69.71 364.595 69.25 364.46 68.66 364.46C68.08 364.46 67.57 364.695 67.13 365.165C66.69 365.635 66.465 366.165 66.455 366.755C67.175 366.995 67.89 367.115 68.6 367.115C69.9 367.115 70.55 366.695 70.55 365.855ZM73.1548 364.475C73.8648 363.805 74.7348 363.47 75.7648 363.47C76.7948 363.47 77.6648 363.805 78.3748 364.475C79.0848 365.145 79.4398 366.09 79.4398 367.31C79.4398 368.53 79.0848 369.47 78.3748 370.13C77.6648 370.79 76.7948 371.12 75.7648 371.12C74.7348 371.12 73.8648 370.79 73.1548 370.13C72.4448 369.47 72.0898 368.53 72.0898 367.31C72.0898 366.09 72.4448 365.145 73.1548 364.475ZM77.4898 365.24C77.0498 364.75 76.4748 364.505 75.7648 364.505C75.0548 364.505 74.4748 364.75 74.0248 365.24C73.5848 365.72 73.3648 366.41 73.3648 367.31C73.3648 368.2 73.5848 368.89 74.0248 369.38C74.4748 369.86 75.0548 370.1 75.7648 370.1C76.4748 370.1 77.0498 369.86 77.4898 369.38C77.9398 368.89 78.1648 368.2 78.1648 367.31C78.1648 366.41 77.9398 365.72 77.4898 365.24ZM85.1484 360.815H87.8784C88.9084 360.815 89.7484 361.065 90.3984 361.565C91.0484 362.055 91.3734 362.84 91.3734 363.92C91.3734 364.99 91.0484 365.78 90.3984 366.29C89.7484 366.79 88.9084 367.04 87.8784 367.04H85.8684V370.43C85.8684 370.81 85.6734 371 85.2834 371H85.1484C84.7584 371 84.5634 370.81 84.5634 370.43V361.4C84.5634 361.01 84.7584 360.815 85.1484 360.815ZM85.8684 361.925V365.915H87.8934C89.3634 365.915 90.0984 365.25 90.0984 363.92C90.0984 362.59 89.3634 361.925 87.8934 361.925H85.8684ZM93.0441 360.485H93.1491C93.5291 360.485 93.7191 360.67 93.7191 361.04V370.43C93.7191 370.81 93.5291 371 93.1491 371H93.0441C92.8341 371 92.6841 370.955 92.5941 370.865C92.5141 370.775 92.4741 370.63 92.4741 370.43V361.04C92.4741 360.84 92.5141 360.7 92.5941 360.62C92.6841 360.53 92.8341 360.485 93.0441 360.485ZM97.7272 363.485C99.8472 363.485 100.907 364.47 100.907 366.44V369.41C100.907 369.96 101.117 370.31 101.537 370.46C101.387 370.84 101.107 371.03 100.697 371.03C100.397 371.03 100.157 370.925 99.9772 370.715C99.8072 370.495 99.7222 370.21 99.7222 369.86C99.0922 370.7 98.2772 371.12 97.2772 371.12C96.4672 371.12 95.8272 370.915 95.3572 370.505C94.8972 370.085 94.6672 369.525 94.6672 368.825C94.6672 368.115 94.9372 367.54 95.4772 367.1C96.0272 366.66 96.7672 366.44 97.6972 366.44C98.2572 366.44 98.7272 366.5 99.1072 366.62C99.4172 366.73 99.6022 366.8 99.6622 366.83V366.17C99.6622 365.56 99.5072 365.13 99.1972 364.88C98.8872 364.62 98.4172 364.49 97.7872 364.49C96.8972 364.49 96.2072 364.83 95.7172 365.51C95.2972 365.45 95.0872 365.255 95.0872 364.925C95.0872 364.545 95.3472 364.21 95.8672 363.92C96.3872 363.63 97.0072 363.485 97.7272 363.485ZM99.6622 367.79C99.0322 367.51 98.4122 367.37 97.8022 367.37C97.1922 367.37 96.7222 367.5 96.3922 367.76C96.0622 368.02 95.8972 368.36 95.8972 368.78C95.8972 369.19 96.0372 369.52 96.3172 369.77C96.6072 370.01 97.0272 370.13 97.5772 370.13C98.1372 370.13 98.6222 369.93 99.0322 369.53C99.4522 369.13 99.6622 368.645 99.6622 368.075V367.79ZM102.785 363.605H102.89C103.27 363.605 103.46 363.795 103.46 364.175V364.91C103.65 364.53 103.95 364.195 104.36 363.905C104.77 363.615 105.24 363.47 105.77 363.47C106.58 363.47 107.24 363.715 107.75 364.205C108.27 364.685 108.53 365.45 108.53 366.5V370.43C108.53 370.63 108.485 370.775 108.395 370.865C108.305 370.955 108.16 371 107.96 371H107.84C107.47 371 107.285 370.81 107.285 370.43V366.545C107.285 365.815 107.13 365.295 106.82 364.985C106.51 364.675 106.06 364.52 105.47 364.52C104.88 364.52 104.4 364.76 104.03 365.24C103.66 365.72 103.475 366.355 103.475 367.145V370.43C103.475 370.81 103.28 371 102.89 371H102.785C102.585 371 102.44 370.955 102.35 370.865C102.26 370.775 102.215 370.63 102.215 370.43V364.175C102.215 363.795 102.405 363.605 102.785 363.605ZM112.86 363.47C113.6 363.47 114.465 363.625 115.455 363.935C115.805 364.055 115.98 364.3 115.98 364.67V373.835C115.98 374.205 115.79 374.39 115.41 374.39H115.29C114.91 374.39 114.72 374.205 114.72 373.835V369.905C114.5 370.285 114.175 370.58 113.745 370.79C113.315 371 112.855 371.105 112.365 371.105C111.475 371.105 110.74 370.805 110.16 370.205C109.58 369.595 109.29 368.66 109.29 367.4C109.29 366.14 109.63 365.17 110.31 364.49C111 363.81 111.85 363.47 112.86 363.47ZM112.785 364.505C112.125 364.505 111.585 364.755 111.165 365.255C110.745 365.755 110.535 366.48 110.535 367.43C110.535 369.19 111.26 370.07 112.71 370.07C113.41 370.07 113.92 369.81 114.24 369.29C114.56 368.77 114.72 368.135 114.72 367.385V364.955C114.62 364.885 114.37 364.795 113.97 364.685C113.58 364.565 113.185 364.505 112.785 364.505ZM117.709 363.62H117.814C118.194 363.62 118.384 363.805 118.384 364.175V368.03C118.384 369.4 118.989 370.085 120.199 370.085C120.659 370.085 121.044 369.95 121.354 369.68C121.914 369.2 122.194 368.48 122.194 367.52V364.175C122.194 363.805 122.389 363.62 122.779 363.62H122.884C123.084 363.62 123.224 363.665 123.304 363.755C123.394 363.835 123.439 363.975 123.439 364.175V370.445C123.439 370.645 123.394 370.79 123.304 370.88C123.214 370.96 123.069 371 122.869 371H122.779C122.389 371 122.194 370.815 122.194 370.445V369.695C122.054 370.015 121.754 370.335 121.294 370.655C120.844 370.965 120.359 371.12 119.839 371.12C118.039 371.12 117.139 370.115 117.139 368.105V364.175C117.139 363.805 117.329 363.62 117.709 363.62ZM124.333 367.325C124.333 366.075 124.683 365.12 125.383 364.46C126.083 363.8 126.888 363.47 127.798 363.47C128.708 363.47 129.428 363.705 129.958 364.175C130.488 364.635 130.753 365.21 130.753 365.9C130.753 366.59 130.478 367.13 129.928 367.52C129.388 367.9 128.688 368.09 127.828 368.09C126.968 368.09 126.193 367.955 125.503 367.685C125.503 368.415 125.753 369.005 126.253 369.455C126.753 369.895 127.363 370.115 128.083 370.115C129.203 370.115 129.903 369.77 130.183 369.08C130.353 369.08 130.498 369.13 130.618 369.23C130.738 369.32 130.798 369.455 130.798 369.635C130.798 369.985 130.538 370.32 130.018 370.64C129.508 370.96 128.858 371.12 128.068 371.12C127.008 371.12 126.118 370.8 125.398 370.16C124.688 369.52 124.333 368.575 124.333 367.325ZM129.613 365.855C129.613 365.465 129.443 365.135 129.103 364.865C128.773 364.595 128.313 364.46 127.723 364.46C127.143 364.46 126.633 364.695 126.193 365.165C125.753 365.635 125.528 366.165 125.518 366.755C126.238 366.995 126.953 367.115 127.663 367.115C128.963 367.115 129.613 366.695 129.613 365.855ZM132.833 361.61H132.938C133.318 361.61 133.508 361.795 133.508 362.165V363.65H135.578C135.968 363.65 136.163 363.82 136.163 364.16C136.163 364.5 135.968 364.67 135.578 364.67H133.508V368.45C133.508 369.08 133.628 369.525 133.868 369.785C134.118 370.035 134.478 370.16 134.948 370.16C135.428 370.16 135.783 370.045 136.013 369.815C136.263 369.895 136.388 370.055 136.388 370.295C136.388 370.535 136.223 370.735 135.893 370.895C135.563 371.045 135.168 371.12 134.708 371.12C133.078 371.12 132.263 370.23 132.263 368.45V364.67H131.528C131.308 364.67 131.148 364.635 131.048 364.565C130.948 364.495 130.898 364.36 130.898 364.16C130.898 363.82 131.108 363.65 131.528 363.65H132.263V362.165C132.263 361.795 132.453 361.61 132.833 361.61ZM137.953 361.61H138.058C138.438 361.61 138.628 361.795 138.628 362.165V363.65H140.698C141.088 363.65 141.283 363.82 141.283 364.16C141.283 364.5 141.088 364.67 140.698 364.67H138.628V368.45C138.628 369.08 138.748 369.525 138.988 369.785C139.238 370.035 139.598 370.16 140.068 370.16C140.548 370.16 140.903 370.045 141.133 369.815C141.383 369.895 141.508 370.055 141.508 370.295C141.508 370.535 141.343 370.735 141.013 370.895C140.683 371.045 140.288 371.12 139.828 371.12C138.198 371.12 137.383 370.23 137.383 368.45V364.67H136.648C136.428 364.67 136.268 364.635 136.168 364.565C136.068 364.495 136.018 364.36 136.018 364.16C136.018 363.82 136.228 363.65 136.648 363.65H137.383V362.165C137.383 361.795 137.573 361.61 137.953 361.61ZM141.394 367.325C141.394 366.075 141.744 365.12 142.444 364.46C143.144 363.8 143.949 363.47 144.859 363.47C145.769 363.47 146.489 363.705 147.019 364.175C147.549 364.635 147.814 365.21 147.814 365.9C147.814 366.59 147.539 367.13 146.989 367.52C146.449 367.9 145.749 368.09 144.889 368.09C144.029 368.09 143.254 367.955 142.564 367.685C142.564 368.415 142.814 369.005 143.314 369.455C143.814 369.895 144.424 370.115 145.144 370.115C146.264 370.115 146.964 369.77 147.244 369.08C147.414 369.08 147.559 369.13 147.679 369.23C147.799 369.32 147.859 369.455 147.859 369.635C147.859 369.985 147.599 370.32 147.079 370.64C146.569 370.96 145.919 371.12 145.129 371.12C144.069 371.12 143.179 370.8 142.459 370.16C141.749 369.52 141.394 368.575 141.394 367.325ZM146.674 365.855C146.674 365.465 146.504 365.135 146.164 364.865C145.834 364.595 145.374 364.46 144.784 364.46C144.204 364.46 143.694 364.695 143.254 365.165C142.814 365.635 142.589 366.165 142.579 366.755C143.299 366.995 144.014 367.115 144.724 367.115C146.024 367.115 146.674 366.695 146.674 365.855ZM159.019 365.975L159.109 365.93C159.749 366.27 160.069 366.815 160.069 367.565C160.069 368.185 159.929 368.755 159.649 369.275C160.049 369.695 160.324 369.995 160.474 370.175C160.624 370.345 160.729 370.465 160.789 370.535C160.849 370.605 160.879 370.685 160.879 370.775C160.879 370.925 160.774 371 160.564 371H160.114C159.924 371 159.699 370.875 159.439 370.625C159.189 370.365 159.029 370.205 158.959 370.145C158.269 370.845 157.329 371.195 156.139 371.195C154.949 371.195 154.024 370.91 153.364 370.34C152.714 369.77 152.389 369.1 152.389 368.33C152.389 367.72 152.564 367.19 152.914 366.74C153.274 366.29 153.824 365.86 154.564 365.45C154.094 364.98 153.754 364.585 153.544 364.265C153.344 363.935 153.244 363.555 153.244 363.125C153.244 362.455 153.474 361.88 153.934 361.4C154.404 360.92 155.024 360.68 155.794 360.68C156.564 360.68 157.194 360.925 157.684 361.415C158.174 361.895 158.419 362.445 158.419 363.065C158.419 363.675 158.224 364.17 157.834 364.55C157.454 364.93 156.899 365.305 156.169 365.675C157.949 367.575 158.859 368.545 158.899 368.585C159.119 368.175 159.229 367.76 159.229 367.34C159.229 366.91 159.159 366.455 159.019 365.975ZM156.049 370.22C157.029 370.22 157.769 369.945 158.269 369.395L155.194 366.2C154.134 366.68 153.604 367.39 153.604 368.33C153.604 368.83 153.824 369.27 154.264 369.65C154.704 370.03 155.299 370.22 156.049 370.22ZM154.444 363.125C154.444 363.655 154.824 364.265 155.584 364.955C156.174 364.665 156.604 364.39 156.874 364.13C157.154 363.87 157.294 363.545 157.294 363.155C157.294 362.755 157.154 362.425 156.874 362.165C156.604 361.895 156.254 361.76 155.824 361.76C155.394 361.76 155.054 361.885 154.804 362.135C154.564 362.385 154.444 362.715 154.444 363.125ZM166.363 360.815H171.538C171.908 360.815 172.093 361.005 172.093 361.385C172.093 361.755 171.908 361.94 171.538 361.94H167.083V365.15H171.043C171.413 365.15 171.598 365.34 171.598 365.72C171.598 366.09 171.413 366.275 171.043 366.275H167.083V369.875H171.538C171.908 369.875 172.093 370.065 172.093 370.445C172.093 370.815 171.908 371 171.538 371H166.363C165.973 371 165.778 370.81 165.778 370.43V361.385C165.778 361.005 165.973 360.815 166.363 360.815ZM173.776 360.485H173.881C174.261 360.485 174.451 360.67 174.451 361.04V370.43C174.451 370.81 174.261 371 173.881 371H173.776C173.566 371 173.416 370.955 173.326 370.865C173.246 370.775 173.206 370.63 173.206 370.43V361.04C173.206 360.84 173.246 360.7 173.326 360.62C173.416 360.53 173.566 360.485 173.776 360.485ZM176.434 364.475C177.144 363.805 178.014 363.47 179.044 363.47C180.074 363.47 180.944 363.805 181.654 364.475C182.364 365.145 182.719 366.09 182.719 367.31C182.719 368.53 182.364 369.47 181.654 370.13C180.944 370.79 180.074 371.12 179.044 371.12C178.014 371.12 177.144 370.79 176.434 370.13C175.724 369.47 175.369 368.53 175.369 367.31C175.369 366.09 175.724 365.145 176.434 364.475ZM180.769 365.24C180.329 364.75 179.754 364.505 179.044 364.505C178.334 364.505 177.754 364.75 177.304 365.24C176.864 365.72 176.644 366.41 176.644 367.31C176.644 368.2 176.864 368.89 177.304 369.38C177.754 369.86 178.334 370.1 179.044 370.1C179.754 370.1 180.329 369.86 180.769 369.38C181.219 368.89 181.444 368.2 181.444 367.31C181.444 366.41 181.219 365.72 180.769 365.24ZM184.372 363.605H184.462C184.842 363.605 185.032 363.79 185.032 364.16V370.43C185.032 370.81 184.842 371 184.462 371H184.372C183.992 371 183.802 370.81 183.802 370.43V364.16C183.802 363.79 183.992 363.605 184.372 363.605ZM183.592 361.49C183.592 361.26 183.672 361.065 183.832 360.905C183.992 360.735 184.182 360.65 184.402 360.65C184.632 360.65 184.827 360.735 184.987 360.905C185.157 361.065 185.242 361.26 185.242 361.49C185.242 361.71 185.162 361.905 185.002 362.075C184.842 362.235 184.647 362.315 184.417 362.315C184.187 362.315 183.992 362.235 183.832 362.075C183.672 361.915 183.592 361.72 183.592 361.49ZM186.273 365.66C186.273 364.98 186.563 364.445 187.143 364.055C187.733 363.655 188.388 363.455 189.108 363.455C189.828 363.455 190.383 363.56 190.773 363.77C191.173 363.97 191.373 364.21 191.373 364.49C191.373 364.77 191.178 364.975 190.788 365.105C190.718 364.945 190.523 364.795 190.203 364.655C189.893 364.515 189.508 364.445 189.048 364.445C188.588 364.445 188.208 364.535 187.908 364.715C187.618 364.885 187.473 365.13 187.473 365.45C187.473 365.76 187.583 366 187.803 366.17C188.023 366.34 188.538 366.52 189.348 366.71C190.168 366.89 190.793 367.155 191.223 367.505C191.653 367.855 191.868 368.345 191.868 368.975C191.868 369.605 191.578 370.12 190.998 370.52C190.418 370.91 189.703 371.105 188.853 371.105C188.013 371.105 187.338 371 186.828 370.79C186.328 370.57 186.078 370.285 186.078 369.935C186.078 369.585 186.243 369.33 186.573 369.17C186.713 369.44 186.983 369.67 187.383 369.86C187.783 370.05 188.283 370.145 188.883 370.145C189.483 370.145 189.938 370.035 190.248 369.815C190.568 369.595 190.728 369.325 190.728 369.005C190.728 368.675 190.583 368.42 190.293 368.24C190.013 368.05 189.458 367.865 188.628 367.685C187.808 367.505 187.208 367.25 186.828 366.92C186.458 366.58 186.273 366.16 186.273 365.66ZM192.151 367.325C192.151 366.075 192.501 365.12 193.201 364.46C193.901 363.8 194.706 363.47 195.616 363.47C196.526 363.47 197.246 363.705 197.776 364.175C198.306 364.635 198.571 365.21 198.571 365.9C198.571 366.59 198.296 367.13 197.746 367.52C197.206 367.9 196.506 368.09 195.646 368.09C194.786 368.09 194.011 367.955 193.321 367.685C193.321 368.415 193.571 369.005 194.071 369.455C194.571 369.895 195.181 370.115 195.901 370.115C197.021 370.115 197.721 369.77 198.001 369.08C198.171 369.08 198.316 369.13 198.436 369.23C198.556 369.32 198.616 369.455 198.616 369.635C198.616 369.985 198.356 370.32 197.836 370.64C197.326 370.96 196.676 371.12 195.886 371.12C194.826 371.12 193.936 370.8 193.216 370.16C192.506 369.52 192.151 368.575 192.151 367.325ZM197.431 365.855C197.431 365.465 197.261 365.135 196.921 364.865C196.591 364.595 196.131 364.46 195.541 364.46C194.961 364.46 194.451 364.695 194.011 365.165C193.571 365.635 193.346 366.165 193.336 366.755C194.056 366.995 194.771 367.115 195.481 367.115C196.781 367.115 197.431 366.695 197.431 365.855ZM204.316 360.815H204.451C204.841 360.815 205.036 361.005 205.036 361.385V369.875H209.656C210.036 369.875 210.226 370.065 210.226 370.445C210.226 370.815 210.036 371 209.656 371H204.316C203.926 371 203.731 370.81 203.731 370.43V361.385C203.731 361.005 203.926 360.815 204.316 360.815ZM210.486 367.325C210.486 366.075 210.836 365.12 211.536 364.46C212.236 363.8 213.041 363.47 213.951 363.47C214.861 363.47 215.581 363.705 216.111 364.175C216.641 364.635 216.906 365.21 216.906 365.9C216.906 366.59 216.631 367.13 216.081 367.52C215.541 367.9 214.841 368.09 213.981 368.09C213.121 368.09 212.346 367.955 211.656 367.685C211.656 368.415 211.906 369.005 212.406 369.455C212.906 369.895 213.516 370.115 214.236 370.115C215.356 370.115 216.056 369.77 216.336 369.08C216.506 369.08 216.651 369.13 216.771 369.23C216.891 369.32 216.951 369.455 216.951 369.635C216.951 369.985 216.691 370.32 216.171 370.64C215.661 370.96 215.011 371.12 214.221 371.12C213.161 371.12 212.271 370.8 211.551 370.16C210.841 369.52 210.486 368.575 210.486 367.325ZM215.766 365.855C215.766 365.465 215.596 365.135 215.256 364.865C214.926 364.595 214.466 364.46 213.876 364.46C213.296 364.46 212.786 364.695 212.346 365.165C211.906 365.635 211.681 366.165 211.671 366.755C212.391 366.995 213.106 367.115 213.816 367.115C215.116 367.115 215.766 366.695 215.766 365.855ZM221.356 360.23C221.816 360.23 222.196 360.335 222.496 360.545C222.806 360.755 222.961 361.02 222.961 361.34C222.961 361.65 222.801 361.86 222.481 361.97C222.231 361.55 221.831 361.34 221.281 361.34C220.241 361.34 219.721 362.06 219.721 363.5V363.65H221.566C221.946 363.65 222.136 363.82 222.136 364.16C222.136 364.49 221.946 364.655 221.566 364.655H219.721V370.505C219.721 370.705 219.676 370.85 219.586 370.94C219.496 371.02 219.351 371.06 219.151 371.06H219.076C218.866 371.06 218.716 371.02 218.626 370.94C218.536 370.85 218.491 370.705 218.491 370.505V364.655H217.711C217.501 364.655 217.351 364.625 217.261 364.565C217.181 364.495 217.141 364.36 217.141 364.16C217.141 363.96 217.186 363.825 217.276 363.755C217.366 363.685 217.511 363.65 217.711 363.65H218.491V363.17C218.491 362.24 218.746 361.52 219.256 361.01C219.766 360.49 220.466 360.23 221.356 360.23ZM222.017 367.325C222.017 366.075 222.367 365.12 223.067 364.46C223.767 363.8 224.572 363.47 225.482 363.47C226.392 363.47 227.112 363.705 227.642 364.175C228.172 364.635 228.437 365.21 228.437 365.9C228.437 366.59 228.162 367.13 227.612 367.52C227.072 367.9 226.372 368.09 225.512 368.09C224.652 368.09 223.877 367.955 223.187 367.685C223.187 368.415 223.437 369.005 223.937 369.455C224.437 369.895 225.047 370.115 225.767 370.115C226.887 370.115 227.587 369.77 227.867 369.08C228.037 369.08 228.182 369.13 228.302 369.23C228.422 369.32 228.482 369.455 228.482 369.635C228.482 369.985 228.222 370.32 227.702 370.64C227.192 370.96 226.542 371.12 225.752 371.12C224.692 371.12 223.802 370.8 223.082 370.16C222.372 369.52 222.017 368.575 222.017 367.325ZM227.297 365.855C227.297 365.465 227.127 365.135 226.787 364.865C226.457 364.595 225.997 364.46 225.407 364.46C224.827 364.46 224.317 364.695 223.877 365.165C223.437 365.635 223.212 366.165 223.202 366.755C223.922 366.995 224.637 367.115 225.347 367.115C226.647 367.115 227.297 366.695 227.297 365.855ZM229.856 360.485H229.976C230.356 360.485 230.546 360.67 230.546 361.04V364.625C230.746 364.285 231.056 364.005 231.476 363.785C231.896 363.565 232.356 363.455 232.856 363.455C233.786 363.455 234.536 363.77 235.106 364.4C235.686 365.02 235.976 365.97 235.976 367.25C235.976 368.52 235.636 369.485 234.956 370.145C234.276 370.795 233.466 371.12 232.526 371.12C231.596 371.12 230.666 370.945 229.736 370.595C229.586 370.535 229.476 370.46 229.406 370.37C229.336 370.28 229.301 370.145 229.301 369.965V361.04C229.301 360.67 229.486 360.485 229.856 360.485ZM232.721 364.52C232.091 364.52 231.571 364.77 231.161 365.27C230.751 365.76 230.546 366.41 230.546 367.22V369.62C231.106 369.92 231.736 370.07 232.436 370.07C233.136 370.07 233.691 369.835 234.101 369.365C234.521 368.895 234.731 368.19 234.731 367.25C234.731 365.43 234.061 364.52 232.721 364.52ZM236.761 363.62H237.106C237.426 363.62 237.621 363.775 237.691 364.085C238.351 366.665 238.986 368.57 239.596 369.8H239.776C240.386 368.57 241.021 366.665 241.681 364.085C241.751 363.775 241.946 363.62 242.266 363.62H242.611C242.921 363.62 243.076 363.73 243.076 363.95C243.076 364.01 243.061 364.08 243.031 364.16C242.261 366.79 241.511 368.825 240.781 370.265C240.651 370.525 240.516 370.715 240.376 370.835C240.236 370.945 240.031 371 239.761 371H239.626C239.346 371 239.136 370.945 238.996 370.835C238.856 370.715 238.721 370.525 238.591 370.265C237.861 368.825 237.111 366.79 236.341 364.16C236.311 364.08 236.296 364.01 236.296 363.95C236.296 363.73 236.451 363.62 236.761 363.62ZM244.272 363.605H244.362C244.742 363.605 244.932 363.79 244.932 364.16V364.97C245.102 364.59 245.372 364.25 245.742 363.95C246.122 363.65 246.527 363.5 246.957 363.5C247.387 363.5 247.712 363.585 247.932 363.755C248.162 363.925 248.277 364.135 248.277 364.385C248.277 364.625 248.172 364.815 247.962 364.955C247.652 364.695 247.322 364.565 246.972 364.565C246.352 364.565 245.862 364.82 245.502 365.33C245.142 365.83 244.962 366.46 244.962 367.22V370.43C244.962 370.63 244.917 370.775 244.827 370.865C244.737 370.955 244.592 371 244.392 371H244.272C244.072 371 243.927 370.955 243.837 370.865C243.747 370.775 243.702 370.63 243.702 370.43V364.16C243.702 363.79 243.892 363.605 244.272 363.605ZM248.285 367.325C248.285 366.075 248.635 365.12 249.335 364.46C250.035 363.8 250.84 363.47 251.75 363.47C252.66 363.47 253.38 363.705 253.91 364.175C254.44 364.635 254.705 365.21 254.705 365.9C254.705 366.59 254.43 367.13 253.88 367.52C253.34 367.9 252.64 368.09 251.78 368.09C250.92 368.09 250.145 367.955 249.455 367.685C249.455 368.415 249.705 369.005 250.205 369.455C250.705 369.895 251.315 370.115 252.035 370.115C253.155 370.115 253.855 369.77 254.135 369.08C254.305 369.08 254.45 369.13 254.57 369.23C254.69 369.32 254.75 369.455 254.75 369.635C254.75 369.985 254.49 370.32 253.97 370.64C253.46 370.96 252.81 371.12 252.02 371.12C250.96 371.12 250.07 370.8 249.35 370.16C248.64 369.52 248.285 368.575 248.285 367.325ZM253.565 365.855C253.565 365.465 253.395 365.135 253.055 364.865C252.725 364.595 252.265 364.46 251.675 364.46C251.095 364.46 250.585 364.695 250.145 365.165C249.705 365.635 249.48 366.165 249.47 366.755C250.19 366.995 250.905 367.115 251.615 367.115C252.915 367.115 253.565 366.695 253.565 365.855Z" fill="black"/>
<path d="M33.91 403.695C34.97 403.695 35.84 403.905 36.52 404.325C37.21 404.745 37.555 405.21 37.555 405.72C37.555 405.94 37.47 406.12 37.3 406.26C37.14 406.39 36.925 406.455 36.655 406.455C36.345 405.395 35.43 404.865 33.91 404.865C32.91 404.865 32.06 405.205 31.36 405.885C30.67 406.555 30.325 407.555 30.325 408.885C30.325 410.205 30.675 411.22 31.375 411.93C32.075 412.63 32.92 412.98 33.91 412.98C35.45 412.98 36.43 412.415 36.85 411.285C37.09 411.285 37.275 411.355 37.405 411.495C37.545 411.625 37.615 411.8 37.615 412.02C37.615 412.53 37.265 413.01 36.565 413.46C35.865 413.9 34.98 414.12 33.91 414.12C32.5 414.12 31.32 413.665 30.37 412.755C29.42 411.845 28.945 410.555 28.945 408.885C28.945 407.215 29.42 405.935 30.37 405.045C31.32 404.145 32.5 403.695 33.91 403.695ZM39.2833 407.475C39.9933 406.805 40.8633 406.47 41.8933 406.47C42.9233 406.47 43.7933 406.805 44.5033 407.475C45.2133 408.145 45.5683 409.09 45.5683 410.31C45.5683 411.53 45.2133 412.47 44.5033 413.13C43.7933 413.79 42.9233 414.12 41.8933 414.12C40.8633 414.12 39.9933 413.79 39.2833 413.13C38.5733 412.47 38.2183 411.53 38.2183 410.31C38.2183 409.09 38.5733 408.145 39.2833 407.475ZM43.6183 408.24C43.1783 407.75 42.6033 407.505 41.8933 407.505C41.1833 407.505 40.6033 407.75 40.1533 408.24C39.7133 408.72 39.4933 409.41 39.4933 410.31C39.4933 411.2 39.7133 411.89 40.1533 412.38C40.6033 412.86 41.1833 413.1 41.8933 413.1C42.6033 413.1 43.1783 412.86 43.6183 412.38C44.0683 411.89 44.2933 411.2 44.2933 410.31C44.2933 409.41 44.0683 408.72 43.6183 408.24ZM46.9666 406.605H47.0716C47.4516 406.605 47.6416 406.795 47.6416 407.175V407.91C47.8316 407.53 48.1316 407.195 48.5416 406.905C48.9516 406.615 49.4216 406.47 49.9516 406.47C50.7616 406.47 51.4216 406.715 51.9316 407.205C52.4516 407.685 52.7116 408.45 52.7116 409.5V413.43C52.7116 413.63 52.6666 413.775 52.5766 413.865C52.4866 413.955 52.3416 414 52.1416 414H52.0216C51.6516 414 51.4666 413.81 51.4666 413.43V409.545C51.4666 408.815 51.3116 408.295 51.0016 407.985C50.6916 407.675 50.2416 407.52 49.6516 407.52C49.0616 407.52 48.5816 407.76 48.2116 408.24C47.8416 408.72 47.6566 409.355 47.6566 410.145V413.43C47.6566 413.81 47.4616 414 47.0716 414H46.9666C46.7666 414 46.6216 413.955 46.5316 413.865C46.4416 413.775 46.3966 413.63 46.3966 413.43V407.175C46.3966 406.795 46.5866 406.605 46.9666 406.605ZM55.0612 404.61H55.1662C55.5462 404.61 55.7362 404.795 55.7362 405.165V406.65H57.8062C58.1962 406.65 58.3912 406.82 58.3912 407.16C58.3912 407.5 58.1962 407.67 57.8062 407.67H55.7362V411.45C55.7362 412.08 55.8562 412.525 56.0962 412.785C56.3462 413.035 56.7062 413.16 57.1762 413.16C57.6562 413.16 58.0112 413.045 58.2412 412.815C58.4912 412.895 58.6162 413.055 58.6162 413.295C58.6162 413.535 58.4512 413.735 58.1212 413.895C57.7912 414.045 57.3962 414.12 56.9362 414.12C55.3062 414.12 54.4912 413.23 54.4912 411.45V407.67H53.7562C53.5362 407.67 53.3762 407.635 53.2762 407.565C53.1762 407.495 53.1262 407.36 53.1262 407.16C53.1262 406.82 53.3362 406.65 53.7562 406.65H54.4912V405.165C54.4912 404.795 54.6812 404.61 55.0612 404.61ZM61.5917 406.485C63.7117 406.485 64.7717 407.47 64.7717 409.44V412.41C64.7717 412.96 64.9817 413.31 65.4017 413.46C65.2517 413.84 64.9717 414.03 64.5617 414.03C64.2617 414.03 64.0217 413.925 63.8417 413.715C63.6717 413.495 63.5867 413.21 63.5867 412.86C62.9567 413.7 62.1417 414.12 61.1417 414.12C60.3317 414.12 59.6917 413.915 59.2217 413.505C58.7617 413.085 58.5317 412.525 58.5317 411.825C58.5317 411.115 58.8017 410.54 59.3417 410.1C59.8917 409.66 60.6317 409.44 61.5617 409.44C62.1217 409.44 62.5917 409.5 62.9717 409.62C63.2817 409.73 63.4667 409.8 63.5267 409.83V409.17C63.5267 408.56 63.3717 408.13 63.0617 407.88C62.7517 407.62 62.2817 407.49 61.6517 407.49C60.7617 407.49 60.0717 407.83 59.5817 408.51C59.1617 408.45 58.9517 408.255 58.9517 407.925C58.9517 407.545 59.2117 407.21 59.7317 406.92C60.2517 406.63 60.8717 406.485 61.5917 406.485ZM63.5267 410.79C62.8967 410.51 62.2767 410.37 61.6667 410.37C61.0567 410.37 60.5867 410.5 60.2567 410.76C59.9267 411.02 59.7617 411.36 59.7617 411.78C59.7617 412.19 59.9017 412.52 60.1817 412.77C60.4717 413.01 60.8917 413.13 61.4417 413.13C62.0017 413.13 62.4867 412.93 62.8967 412.53C63.3167 412.13 63.5267 411.645 63.5267 411.075V410.79ZM66.7994 407.325C67.1694 407.035 67.5644 406.82 67.9844 406.68C68.4044 406.54 68.9144 406.47 69.5144 406.47C70.1144 406.47 70.6394 406.605 71.0894 406.875C71.5494 407.145 71.7794 407.435 71.7794 407.745C71.7794 408.125 71.5644 408.34 71.1344 408.39C71.0344 408.17 70.8094 407.97 70.4594 407.79C70.1094 407.6 69.6944 407.505 69.2144 407.505C68.5444 407.505 67.9894 407.745 67.5494 408.225C67.1094 408.695 66.8894 409.385 66.8894 410.295C66.8894 411.205 67.1144 411.9 67.5644 412.38C68.0144 412.86 68.5544 413.1 69.1844 413.1C70.1844 413.1 70.8594 412.775 71.2094 412.125C71.3994 412.125 71.5594 412.185 71.6894 412.305C71.8194 412.415 71.8844 412.56 71.8844 412.74C71.8844 413.09 71.6444 413.41 71.1644 413.7C70.6844 413.98 70.1344 414.12 69.5144 414.12C68.9044 414.12 68.3844 414.05 67.9544 413.91C67.5344 413.76 67.1444 413.54 66.7844 413.25C66.4244 412.95 66.1394 412.55 65.9294 412.05C65.7194 411.55 65.6144 410.97 65.6144 410.31C65.6144 409.64 65.7194 409.05 65.9294 408.54C66.1494 408.02 66.4394 407.615 66.7994 407.325ZM73.8211 404.61H73.9261C74.3061 404.61 74.4961 404.795 74.4961 405.165V406.65H76.5661C76.9561 406.65 77.1511 406.82 77.1511 407.16C77.1511 407.5 76.9561 407.67 76.5661 407.67H74.4961V411.45C74.4961 412.08 74.6161 412.525 74.8561 412.785C75.1061 413.035 75.4661 413.16 75.9361 413.16C76.4161 413.16 76.7711 413.045 77.0011 412.815C77.2511 412.895 77.3761 413.055 77.3761 413.295C77.3761 413.535 77.2111 413.735 76.8811 413.895C76.5511 414.045 76.1561 414.12 75.6961 414.12C74.0661 414.12 73.2511 413.23 73.2511 411.45V407.67H72.5161C72.2961 407.67 72.1361 407.635 72.0361 407.565C71.9361 407.495 71.8861 407.36 71.8861 407.16C71.8861 406.82 72.0961 406.65 72.5161 406.65H73.2511V405.165C73.2511 404.795 73.4411 404.61 73.8211 404.61ZM81.482 413.145C81.482 412.855 81.577 412.62 81.767 412.44C81.957 412.26 82.187 412.17 82.457 412.17C82.737 412.17 82.972 412.26 83.162 412.44C83.352 412.62 83.447 412.855 83.447 413.145C83.447 413.435 83.352 413.67 83.162 413.85C82.972 414.03 82.737 414.12 82.457 414.12C82.187 414.12 81.957 414.03 81.767 413.85C81.577 413.67 81.482 413.435 81.482 413.145ZM81.482 408.075C81.482 407.785 81.577 407.55 81.767 407.37C81.957 407.19 82.187 407.1 82.457 407.1C82.737 407.1 82.972 407.19 83.162 407.37C83.352 407.55 83.447 407.785 83.447 408.075C83.447 408.365 83.352 408.6 83.162 408.78C82.972 408.96 82.737 409.05 82.457 409.05C82.187 409.05 81.957 408.96 81.767 408.78C81.577 408.6 81.482 408.365 81.482 408.075Z" fill="black"/>
<path d="M28 415.5H84.422V416.25H28V415.5Z" fill="black"/>
<path d="M58.755 439.485H58.86C59.24 439.485 59.43 439.67 59.43 440.04V449.43C59.43 449.81 59.24 450 58.86 450H58.755C58.545 450 58.395 449.955 58.305 449.865C58.225 449.775 58.185 449.63 58.185 449.43V440.04C58.185 439.84 58.225 439.7 58.305 439.62C58.395 439.53 58.545 439.485 58.755 439.485ZM60.3482 446.325C60.3482 445.075 60.6982 444.12 61.3982 443.46C62.0982 442.8 62.9032 442.47 63.8132 442.47C64.7232 442.47 65.4432 442.705 65.9732 443.175C66.5032 443.635 66.7682 444.21 66.7682 444.9C66.7682 445.59 66.4932 446.13 65.9432 446.52C65.4032 446.9 64.7032 447.09 63.8432 447.09C62.9832 447.09 62.2082 446.955 61.5182 446.685C61.5182 447.415 61.7682 448.005 62.2682 448.455C62.7682 448.895 63.3782 449.115 64.0982 449.115C65.2182 449.115 65.9182 448.77 66.1982 448.08C66.3682 448.08 66.5132 448.13 66.6332 448.23C66.7532 448.32 66.8132 448.455 66.8132 448.635C66.8132 448.985 66.5532 449.32 66.0332 449.64C65.5232 449.96 64.8732 450.12 64.0832 450.12C63.0232 450.12 62.1332 449.8 61.4132 449.16C60.7032 448.52 60.3482 447.575 60.3482 446.325ZM65.6282 444.855C65.6282 444.465 65.4582 444.135 65.1182 443.865C64.7882 443.595 64.3282 443.46 63.7382 443.46C63.1582 443.46 62.6482 443.695 62.2082 444.165C61.7682 444.635 61.5432 445.165 61.5332 445.755C62.2532 445.995 62.9682 446.115 63.6782 446.115C64.9782 446.115 65.6282 445.695 65.6282 444.855ZM68.2329 443.475C68.9429 442.805 69.8129 442.47 70.8429 442.47C71.8729 442.47 72.7429 442.805 73.4529 443.475C74.1629 444.145 74.5179 445.09 74.5179 446.31C74.5179 447.53 74.1629 448.47 73.4529 449.13C72.7429 449.79 71.8729 450.12 70.8429 450.12C69.8129 450.12 68.9429 449.79 68.2329 449.13C67.5229 448.47 67.1679 447.53 67.1679 446.31C67.1679 445.09 67.5229 444.145 68.2329 443.475ZM72.5679 444.24C72.1279 443.75 71.5529 443.505 70.8429 443.505C70.1329 443.505 69.5529 443.75 69.1029 444.24C68.6629 444.72 68.4429 445.41 68.4429 446.31C68.4429 447.2 68.6629 447.89 69.1029 448.38C69.5529 448.86 70.1329 449.1 70.8429 449.1C71.5529 449.1 72.1279 448.86 72.5679 448.38C73.0179 447.89 73.2429 447.2 73.2429 446.31C73.2429 445.41 73.0179 444.72 72.5679 444.24ZM75.2262 449.145C75.2262 448.855 75.3212 448.62 75.5112 448.44C75.7012 448.26 75.9312 448.17 76.2012 448.17C76.4812 448.17 76.7162 448.26 76.9062 448.44C77.0962 448.62 77.1912 448.855 77.1912 449.145C77.1912 449.435 77.0962 449.67 76.9062 449.85C76.7162 450.03 76.4812 450.12 76.2012 450.12C75.9312 450.12 75.7012 450.03 75.5112 449.85C75.3212 449.67 75.2262 449.435 75.2262 449.145ZM78.9123 442.605H79.0173C79.3973 442.605 79.5873 442.78 79.5873 443.13V443.715C79.7973 443.365 80.1123 443.07 80.5323 442.83C80.9523 442.59 81.4073 442.47 81.8973 442.47C82.8273 442.47 83.5773 442.785 84.1473 443.415C84.7273 444.035 85.0173 444.985 85.0173 446.265C85.0173 447.535 84.6773 448.495 83.9973 449.145C83.3273 449.795 82.5023 450.12 81.5223 450.12C80.8523 450.12 80.2073 449.95 79.5873 449.61V452.835C79.5873 453.205 79.3973 453.39 79.0173 453.39H78.9123C78.5323 453.39 78.3423 453.205 78.3423 452.835V443.16C78.3423 442.79 78.5323 442.605 78.9123 442.605ZM83.7723 446.25C83.7723 445.3 83.5723 444.61 83.1723 444.18C82.7723 443.74 82.2323 443.52 81.5523 443.52C80.8723 443.52 80.3723 443.82 80.0523 444.42C79.7423 445.02 79.5873 445.8 79.5873 446.76V448.635C79.6873 448.705 79.9323 448.8 80.3223 448.92C80.7223 449.03 81.1223 449.085 81.5223 449.085C82.1923 449.085 82.7323 448.85 83.1423 448.38C83.5623 447.91 83.7723 447.2 83.7723 446.25ZM86.672 439.485H86.777C87.157 439.485 87.347 439.67 87.347 440.04V449.43C87.347 449.81 87.157 450 86.777 450H86.672C86.462 450 86.312 449.955 86.222 449.865C86.142 449.775 86.102 449.63 86.102 449.43V440.04C86.102 439.84 86.142 439.7 86.222 439.62C86.312 439.53 86.462 439.485 86.672 439.485ZM91.3552 442.485C93.4752 442.485 94.5352 443.47 94.5352 445.44V448.41C94.5352 448.96 94.7452 449.31 95.1652 449.46C95.0152 449.84 94.7352 450.03 94.3252 450.03C94.0252 450.03 93.7852 449.925 93.6052 449.715C93.4352 449.495 93.3502 449.21 93.3502 448.86C92.7202 449.7 91.9052 450.12 90.9052 450.12C90.0952 450.12 89.4552 449.915 88.9852 449.505C88.5252 449.085 88.2952 448.525 88.2952 447.825C88.2952 447.115 88.5652 446.54 89.1052 446.1C89.6552 445.66 90.3952 445.44 91.3252 445.44C91.8852 445.44 92.3552 445.5 92.7352 445.62C93.0452 445.73 93.2302 445.8 93.2902 445.83V445.17C93.2902 444.56 93.1352 444.13 92.8252 443.88C92.5152 443.62 92.0452 443.49 91.4152 443.49C90.5252 443.49 89.8352 443.83 89.3452 444.51C88.9252 444.45 88.7152 444.255 88.7152 443.925C88.7152 443.545 88.9752 443.21 89.4952 442.92C90.0152 442.63 90.6352 442.485 91.3552 442.485ZM93.2902 446.79C92.6602 446.51 92.0402 446.37 91.4302 446.37C90.8202 446.37 90.3502 446.5 90.0202 446.76C89.6902 447.02 89.5252 447.36 89.5252 447.78C89.5252 448.19 89.6652 448.52 89.9452 448.77C90.2352 449.01 90.6552 449.13 91.2052 449.13C91.7652 449.13 92.2502 448.93 92.6602 448.53C93.0802 448.13 93.2902 447.645 93.2902 447.075V446.79ZM96.4129 442.605H96.5179C96.8979 442.605 97.0879 442.795 97.0879 443.175V443.91C97.2779 443.53 97.5779 443.195 97.9879 442.905C98.3979 442.615 98.8679 442.47 99.3979 442.47C100.208 442.47 100.868 442.715 101.378 443.205C101.898 443.685 102.158 444.45 102.158 445.5V449.43C102.158 449.63 102.113 449.775 102.023 449.865C101.933 449.955 101.788 450 101.588 450H101.468C101.098 450 100.913 449.81 100.913 449.43V445.545C100.913 444.815 100.758 444.295 100.448 443.985C100.138 443.675 99.6879 443.52 99.0979 443.52C98.5079 443.52 98.0279 443.76 97.6579 444.24C97.2879 444.72 97.1029 445.355 97.1029 446.145V449.43C97.1029 449.81 96.9079 450 96.5179 450H96.4129C96.2129 450 96.0679 449.955 95.9779 449.865C95.8879 449.775 95.8429 449.63 95.8429 449.43V443.175C95.8429 442.795 96.0329 442.605 96.4129 442.605ZM106.487 442.47C107.227 442.47 108.092 442.625 109.082 442.935C109.432 443.055 109.607 443.3 109.607 443.67V452.835C109.607 453.205 109.417 453.39 109.037 453.39H108.917C108.537 453.39 108.347 453.205 108.347 452.835V448.905C108.127 449.285 107.802 449.58 107.372 449.79C106.942 450 106.482 450.105 105.992 450.105C105.102 450.105 104.367 449.805 103.787 449.205C103.207 448.595 102.917 447.66 102.917 446.4C102.917 445.14 103.257 444.17 103.937 443.49C104.627 442.81 105.477 442.47 106.487 442.47ZM106.412 443.505C105.752 443.505 105.212 443.755 104.792 444.255C104.372 444.755 104.162 445.48 104.162 446.43C104.162 448.19 104.887 449.07 106.337 449.07C107.037 449.07 107.547 448.81 107.867 448.29C108.187 447.77 108.347 447.135 108.347 446.385V443.955C108.247 443.885 107.997 443.795 107.597 443.685C107.207 443.565 106.812 443.505 106.412 443.505ZM111.337 442.62H111.442C111.822 442.62 112.012 442.805 112.012 443.175V447.03C112.012 448.4 112.617 449.085 113.827 449.085C114.287 449.085 114.672 448.95 114.982 448.68C115.542 448.2 115.822 447.48 115.822 446.52V443.175C115.822 442.805 116.017 442.62 116.407 442.62H116.512C116.712 442.62 116.852 442.665 116.932 442.755C117.022 442.835 117.067 442.975 117.067 443.175V449.445C117.067 449.645 117.022 449.79 116.932 449.88C116.842 449.96 116.697 450 116.497 450H116.407C116.017 450 115.822 449.815 115.822 449.445V448.695C115.682 449.015 115.382 449.335 114.922 449.655C114.472 449.965 113.987 450.12 113.467 450.12C111.667 450.12 110.767 449.115 110.767 447.105V443.175C110.767 442.805 110.957 442.62 111.337 442.62ZM117.961 446.325C117.961 445.075 118.311 444.12 119.011 443.46C119.711 442.8 120.516 442.47 121.426 442.47C122.336 442.47 123.056 442.705 123.586 443.175C124.116 443.635 124.381 444.21 124.381 444.9C124.381 445.59 124.106 446.13 123.556 446.52C123.016 446.9 122.316 447.09 121.456 447.09C120.596 447.09 119.821 446.955 119.131 446.685C119.131 447.415 119.381 448.005 119.881 448.455C120.381 448.895 120.991 449.115 121.711 449.115C122.831 449.115 123.531 448.77 123.811 448.08C123.981 448.08 124.126 448.13 124.246 448.23C124.366 448.32 124.426 448.455 124.426 448.635C124.426 448.985 124.166 449.32 123.646 449.64C123.136 449.96 122.486 450.12 121.696 450.12C120.636 450.12 119.746 449.8 119.026 449.16C118.316 448.52 117.961 447.575 117.961 446.325ZM123.241 444.855C123.241 444.465 123.071 444.135 122.731 443.865C122.401 443.595 121.941 443.46 121.351 443.46C120.771 443.46 120.261 443.695 119.821 444.165C119.381 444.635 119.156 445.165 119.146 445.755C119.866 445.995 120.581 446.115 121.291 446.115C122.591 446.115 123.241 445.695 123.241 444.855ZM126.461 440.61H126.566C126.946 440.61 127.136 440.795 127.136 441.165V442.65H129.206C129.596 442.65 129.791 442.82 129.791 443.16C129.791 443.5 129.596 443.67 129.206 443.67H127.136V447.45C127.136 448.08 127.256 448.525 127.496 448.785C127.746 449.035 128.106 449.16 128.576 449.16C129.056 449.16 129.411 449.045 129.641 448.815C129.891 448.895 130.016 449.055 130.016 449.295C130.016 449.535 129.851 449.735 129.521 449.895C129.191 450.045 128.796 450.12 128.336 450.12C126.706 450.12 125.891 449.23 125.891 447.45V443.67H125.156C124.936 443.67 124.776 443.635 124.676 443.565C124.576 443.495 124.526 443.36 124.526 443.16C124.526 442.82 124.736 442.65 125.156 442.65H125.891V441.165C125.891 440.795 126.081 440.61 126.461 440.61ZM131.581 440.61H131.686C132.066 440.61 132.256 440.795 132.256 441.165V442.65H134.326C134.716 442.65 134.911 442.82 134.911 443.16C134.911 443.5 134.716 443.67 134.326 443.67H132.256V447.45C132.256 448.08 132.376 448.525 132.616 448.785C132.866 449.035 133.226 449.16 133.696 449.16C134.176 449.16 134.531 449.045 134.761 448.815C135.011 448.895 135.136 449.055 135.136 449.295C135.136 449.535 134.971 449.735 134.641 449.895C134.311 450.045 133.916 450.12 133.456 450.12C131.826 450.12 131.011 449.23 131.011 447.45V443.67H130.276C130.056 443.67 129.896 443.635 129.796 443.565C129.696 443.495 129.646 443.36 129.646 443.16C129.646 442.82 129.856 442.65 130.276 442.65H131.011V441.165C131.011 440.795 131.201 440.61 131.581 440.61ZM135.022 446.325C135.022 445.075 135.372 444.12 136.072 443.46C136.772 442.8 137.577 442.47 138.487 442.47C139.397 442.47 140.117 442.705 140.647 443.175C141.177 443.635 141.442 444.21 141.442 444.9C141.442 445.59 141.167 446.13 140.617 446.52C140.077 446.9 139.377 447.09 138.517 447.09C137.657 447.09 136.882 446.955 136.192 446.685C136.192 447.415 136.442 448.005 136.942 448.455C137.442 448.895 138.052 449.115 138.772 449.115C139.892 449.115 140.592 448.77 140.872 448.08C141.042 448.08 141.187 448.13 141.307 448.23C141.427 448.32 141.487 448.455 141.487 448.635C141.487 448.985 141.227 449.32 140.707 449.64C140.197 449.96 139.547 450.12 138.757 450.12C137.697 450.12 136.807 449.8 136.087 449.16C135.377 448.52 135.022 447.575 135.022 446.325ZM140.302 444.855C140.302 444.465 140.132 444.135 139.792 443.865C139.462 443.595 139.002 443.46 138.412 443.46C137.832 443.46 137.322 443.695 136.882 444.165C136.442 444.635 136.217 445.165 136.207 445.755C136.927 445.995 137.642 446.115 138.352 446.115C139.652 446.115 140.302 445.695 140.302 444.855ZM146.807 447.885C146.057 447.885 145.452 447.64 144.992 447.15C144.542 446.66 144.317 445.975 144.317 445.095C144.317 444.205 144.562 443.525 145.052 443.055C145.542 442.575 146.132 442.335 146.822 442.335C147.522 442.335 148.102 442.415 148.562 442.575C149.022 442.735 149.252 443 149.252 443.37V446.22C149.252 446.43 149.307 446.59 149.417 446.7C149.537 446.81 149.687 446.865 149.867 446.865C150.517 446.865 150.842 446.23 150.842 444.96C150.842 443.69 150.467 442.695 149.717 441.975C148.977 441.255 148.092 440.895 147.062 440.895C146.042 440.895 145.157 441.255 144.407 441.975C143.667 442.695 143.297 443.71 143.297 445.02C143.297 446.33 143.642 447.355 144.332 448.095C145.032 448.835 145.882 449.205 146.882 449.205C148.052 449.205 148.722 448.915 148.892 448.335C149.232 448.385 149.402 448.58 149.402 448.92C149.402 449.25 149.182 449.555 148.742 449.835C148.302 450.105 147.672 450.24 146.852 450.24C145.492 450.24 144.357 449.78 143.447 448.86C142.537 447.94 142.082 446.66 142.082 445.02C142.082 443.91 142.327 442.95 142.817 442.14C143.307 441.32 143.922 440.72 144.662 440.34C145.402 439.96 146.147 439.77 146.897 439.77C147.647 439.77 148.317 439.885 148.907 440.115C149.497 440.335 150.027 440.66 150.497 441.09C150.967 441.51 151.342 442.06 151.622 442.74C151.912 443.42 152.057 444.21 152.057 445.11C152.057 446.01 151.842 446.7 151.412 447.18C150.992 447.66 150.462 447.9 149.822 447.9C149.442 447.9 149.122 447.825 148.862 447.675C148.612 447.525 148.442 447.375 148.352 447.225C148.212 447.415 147.997 447.575 147.707 447.705C147.427 447.825 147.127 447.885 146.807 447.885ZM148.127 446.37V443.52C147.807 443.39 147.417 443.325 146.957 443.325C146.507 443.325 146.142 443.47 145.862 443.76C145.582 444.04 145.442 444.49 145.442 445.11C145.442 445.72 145.577 446.175 145.847 446.475C146.117 446.765 146.487 446.91 146.957 446.91C147.197 446.91 147.412 446.875 147.602 446.805C147.792 446.725 147.927 446.645 148.007 446.565C148.087 446.485 148.127 446.42 148.127 446.37ZM155.678 447.855L155.003 447.825C154.763 447.825 154.558 447.89 154.388 448.02C154.218 448.14 154.133 448.275 154.133 448.425C154.133 448.805 154.453 448.995 155.093 448.995H156.203C158.333 448.995 159.398 449.65 159.398 450.96C159.398 451.65 159.063 452.21 158.393 452.64C157.733 453.07 156.883 453.305 155.843 453.345H155.483C154.633 453.345 153.908 453.175 153.308 452.835C152.708 452.495 152.408 452.095 152.408 451.635C152.408 451.415 152.458 451.24 152.558 451.11C152.668 450.98 152.808 450.905 152.978 450.885C153.168 451.275 153.503 451.6 153.983 451.86C154.463 452.12 155.028 452.25 155.678 452.25H155.783C156.533 452.25 157.118 452.135 157.538 451.905C157.968 451.675 158.183 451.385 158.183 451.035C158.183 450.695 157.993 450.445 157.613 450.285C157.243 450.135 156.598 450.06 155.678 450.06C154.768 450.06 154.083 449.97 153.623 449.79C153.163 449.61 152.933 449.26 152.933 448.74C152.933 448.22 153.298 447.81 154.028 447.51C153.158 447.02 152.723 446.24 152.723 445.17C152.723 444.32 153.013 443.66 153.593 443.19C154.173 442.72 154.888 442.485 155.738 442.485C156.168 442.485 156.563 442.575 156.923 442.755C157.293 442.935 157.573 443.13 157.763 443.34C158.143 443.09 158.333 442.635 158.333 441.975C158.603 441.975 158.843 442.06 159.053 442.23C159.263 442.39 159.368 442.595 159.368 442.845C159.368 443.345 158.998 443.705 158.258 443.925C158.478 444.225 158.588 444.665 158.588 445.245C158.588 446.095 158.308 446.745 157.748 447.195C157.198 447.635 156.508 447.855 155.678 447.855ZM156.938 443.88C156.608 443.59 156.188 443.445 155.678 443.445C155.168 443.445 154.743 443.59 154.403 443.88C154.063 444.16 153.893 444.595 153.893 445.185C153.893 445.775 154.063 446.215 154.403 446.505C154.743 446.785 155.168 446.925 155.678 446.925C156.188 446.925 156.608 446.785 156.938 446.505C157.278 446.215 157.448 445.775 157.448 445.185C157.448 444.595 157.278 444.16 156.938 443.88ZM160.603 442.605H160.693C161.083 442.605 161.278 442.795 161.278 443.175V443.805C161.738 442.935 162.443 442.5 163.393 442.5C164.003 442.5 164.508 442.665 164.908 442.995C165.318 443.315 165.598 443.765 165.748 444.345C165.908 443.765 166.203 443.31 166.633 442.98C167.063 442.65 167.558 442.485 168.118 442.485C169.838 442.485 170.698 443.49 170.698 445.5V449.445C170.698 449.815 170.498 450 170.098 450H170.008C169.628 450 169.438 449.815 169.438 449.445V445.575C169.438 444.205 168.918 443.52 167.878 443.52C167.148 443.52 166.648 443.785 166.378 444.315C166.118 444.845 165.988 445.565 165.988 446.475V449.445C165.988 449.815 165.793 450 165.403 450H165.298C164.918 450 164.728 449.815 164.728 449.445V445.575C164.728 444.205 164.203 443.52 163.153 443.52C161.903 443.52 161.278 444.49 161.278 446.43V449.445C161.278 449.815 161.083 450 160.693 450H160.603C160.223 450 160.033 449.815 160.033 449.445V443.175C160.033 442.795 160.223 442.605 160.603 442.605ZM174.458 442.485C176.578 442.485 177.638 443.47 177.638 445.44V448.41C177.638 448.96 177.848 449.31 178.268 449.46C178.118 449.84 177.838 450.03 177.428 450.03C177.128 450.03 176.888 449.925 176.708 449.715C176.538 449.495 176.453 449.21 176.453 448.86C175.823 449.7 175.008 450.12 174.008 450.12C173.198 450.12 172.558 449.915 172.088 449.505C171.628 449.085 171.398 448.525 171.398 447.825C171.398 447.115 171.668 446.54 172.208 446.1C172.758 445.66 173.498 445.44 174.428 445.44C174.988 445.44 175.458 445.5 175.838 445.62C176.148 445.73 176.333 445.8 176.393 445.83V445.17C176.393 444.56 176.238 444.13 175.928 443.88C175.618 443.62 175.148 443.49 174.518 443.49C173.628 443.49 172.938 443.83 172.448 444.51C172.028 444.45 171.818 444.255 171.818 443.925C171.818 443.545 172.078 443.21 172.598 442.92C173.118 442.63 173.738 442.485 174.458 442.485ZM176.393 446.79C175.763 446.51 175.143 446.37 174.533 446.37C173.923 446.37 173.453 446.5 173.123 446.76C172.793 447.02 172.628 447.36 172.628 447.78C172.628 448.19 172.768 448.52 173.048 448.77C173.338 449.01 173.758 449.13 174.308 449.13C174.868 449.13 175.353 448.93 175.763 448.53C176.183 448.13 176.393 447.645 176.393 447.075V446.79ZM179.771 442.605H179.861C180.241 442.605 180.431 442.79 180.431 443.16V449.43C180.431 449.81 180.241 450 179.861 450H179.771C179.391 450 179.201 449.81 179.201 449.43V443.16C179.201 442.79 179.391 442.605 179.771 442.605ZM178.991 440.49C178.991 440.26 179.071 440.065 179.231 439.905C179.391 439.735 179.581 439.65 179.801 439.65C180.031 439.65 180.226 439.735 180.386 439.905C180.556 440.065 180.641 440.26 180.641 440.49C180.641 440.71 180.561 440.905 180.401 441.075C180.241 441.235 180.046 441.315 179.816 441.315C179.586 441.315 179.391 441.235 179.231 441.075C179.071 440.915 178.991 440.72 178.991 440.49ZM182.632 439.485H182.737C183.117 439.485 183.307 439.67 183.307 440.04V449.43C183.307 449.81 183.117 450 182.737 450H182.632C182.422 450 182.272 449.955 182.182 449.865C182.102 449.775 182.062 449.63 182.062 449.43V440.04C182.062 439.84 182.102 439.7 182.182 439.62C182.272 439.53 182.422 439.485 182.632 439.485ZM184.57 449.145C184.57 448.855 184.665 448.62 184.855 448.44C185.045 448.26 185.275 448.17 185.545 448.17C185.825 448.17 186.06 448.26 186.25 448.44C186.44 448.62 186.535 448.855 186.535 449.145C186.535 449.435 186.44 449.67 186.25 449.85C186.06 450.03 185.825 450.12 185.545 450.12C185.275 450.12 185.045 450.03 184.855 449.85C184.665 449.67 184.57 449.435 184.57 449.145ZM188.421 443.325C188.791 443.035 189.186 442.82 189.606 442.68C190.026 442.54 190.536 442.47 191.136 442.47C191.736 442.47 192.261 442.605 192.711 442.875C193.171 443.145 193.401 443.435 193.401 443.745C193.401 444.125 193.186 444.34 192.756 444.39C192.656 444.17 192.431 443.97 192.081 443.79C191.731 443.6 191.316 443.505 190.836 443.505C190.166 443.505 189.611 443.745 189.171 444.225C188.731 444.695 188.511 445.385 188.511 446.295C188.511 447.205 188.736 447.9 189.186 448.38C189.636 448.86 190.176 449.1 190.806 449.1C191.806 449.1 192.481 448.775 192.831 448.125C193.021 448.125 193.181 448.185 193.311 448.305C193.441 448.415 193.506 448.56 193.506 448.74C193.506 449.09 193.266 449.41 192.786 449.7C192.306 449.98 191.756 450.12 191.136 450.12C190.526 450.12 190.006 450.05 189.576 449.91C189.156 449.76 188.766 449.54 188.406 449.25C188.046 448.95 187.761 448.55 187.551 448.05C187.341 447.55 187.236 446.97 187.236 446.31C187.236 445.64 187.341 445.05 187.551 444.54C187.771 444.02 188.061 443.615 188.421 443.325ZM194.828 443.475C195.538 442.805 196.408 442.47 197.438 442.47C198.468 442.47 199.338 442.805 200.048 443.475C200.758 444.145 201.113 445.09 201.113 446.31C201.113 447.53 200.758 448.47 200.048 449.13C199.338 449.79 198.468 450.12 197.438 450.12C196.408 450.12 195.538 449.79 194.828 449.13C194.118 448.47 193.763 447.53 193.763 446.31C193.763 445.09 194.118 444.145 194.828 443.475ZM199.163 444.24C198.723 443.75 198.148 443.505 197.438 443.505C196.728 443.505 196.148 443.75 195.698 444.24C195.258 444.72 195.038 445.41 195.038 446.31C195.038 447.2 195.258 447.89 195.698 448.38C196.148 448.86 196.728 449.1 197.438 449.1C198.148 449.1 198.723 448.86 199.163 448.38C199.613 447.89 199.838 447.2 199.838 446.31C199.838 445.41 199.613 444.72 199.163 444.24ZM202.511 442.605H202.601C202.991 442.605 203.186 442.795 203.186 443.175V443.805C203.646 442.935 204.351 442.5 205.301 442.5C205.911 442.5 206.416 442.665 206.816 442.995C207.226 443.315 207.506 443.765 207.656 444.345C207.816 443.765 208.111 443.31 208.541 442.98C208.971 442.65 209.466 442.485 210.026 442.485C211.746 442.485 212.606 443.49 212.606 445.5V449.445C212.606 449.815 212.406 450 212.006 450H211.916C211.536 450 211.346 449.815 211.346 449.445V445.575C211.346 444.205 210.826 443.52 209.786 443.52C209.056 443.52 208.556 443.785 208.286 444.315C208.026 444.845 207.896 445.565 207.896 446.475V449.445C207.896 449.815 207.701 450 207.311 450H207.206C206.826 450 206.636 449.815 206.636 449.445V445.575C206.636 444.205 206.111 443.52 205.061 443.52C203.811 443.52 203.186 444.49 203.186 446.43V449.445C203.186 449.815 202.991 450 202.601 450H202.511C202.131 450 201.941 449.815 201.941 449.445V443.175C201.941 442.795 202.131 442.605 202.511 442.605Z" fill="black"/>
<path d="M57.63 473.325C57.63 472.075 57.98 471.12 58.68 470.46C59.38 469.8 60.185 469.47 61.095 469.47C62.005 469.47 62.725 469.705 63.255 470.175C63.785 470.635 64.05 471.21 64.05 471.9C64.05 472.59 63.775 473.13 63.225 473.52C62.685 473.9 61.985 474.09 61.125 474.09C60.265 474.09 59.49 473.955 58.8 473.685C58.8 474.415 59.05 475.005 59.55 475.455C60.05 475.895 60.66 476.115 61.38 476.115C62.5 476.115 63.2 475.77 63.48 475.08C63.65 475.08 63.795 475.13 63.915 475.23C64.035 475.32 64.095 475.455 64.095 475.635C64.095 475.985 63.835 476.32 63.315 476.64C62.805 476.96 62.155 477.12 61.365 477.12C60.305 477.12 59.415 476.8 58.695 476.16C57.985 475.52 57.63 474.575 57.63 473.325ZM62.91 471.855C62.91 471.465 62.74 471.135 62.4 470.865C62.07 470.595 61.61 470.46 61.02 470.46C60.44 470.46 59.93 470.695 59.49 471.165C59.05 471.635 58.825 472.165 58.815 472.755C59.535 472.995 60.25 473.115 60.96 473.115C62.26 473.115 62.91 472.695 62.91 471.855ZM65.5747 466.485H65.6797C66.0597 466.485 66.2497 466.67 66.2497 467.04V476.43C66.2497 476.81 66.0597 477 65.6797 477H65.5747C65.3647 477 65.2147 476.955 65.1247 476.865C65.0447 476.775 65.0047 476.63 65.0047 476.43V467.04C65.0047 466.84 65.0447 466.7 65.1247 466.62C65.2147 466.53 65.3647 466.485 65.5747 466.485ZM68.2329 470.475C68.9429 469.805 69.8129 469.47 70.8429 469.47C71.8729 469.47 72.7429 469.805 73.4529 470.475C74.1629 471.145 74.5179 472.09 74.5179 473.31C74.5179 474.53 74.1629 475.47 73.4529 476.13C72.7429 476.79 71.8729 477.12 70.8429 477.12C69.8129 477.12 68.9429 476.79 68.2329 476.13C67.5229 475.47 67.1679 474.53 67.1679 473.31C67.1679 472.09 67.5229 471.145 68.2329 470.475ZM72.5679 471.24C72.1279 470.75 71.5529 470.505 70.8429 470.505C70.1329 470.505 69.5529 470.75 69.1029 471.24C68.6629 471.72 68.4429 472.41 68.4429 473.31C68.4429 474.2 68.6629 474.89 69.1029 475.38C69.5529 475.86 70.1329 476.1 70.8429 476.1C71.5529 476.1 72.1279 475.86 72.5679 475.38C73.0179 474.89 73.2429 474.2 73.2429 473.31C73.2429 472.41 73.0179 471.72 72.5679 471.24ZM76.1712 469.605H76.2612C76.6412 469.605 76.8312 469.79 76.8312 470.16V476.43C76.8312 476.81 76.6412 477 76.2612 477H76.1712C75.7912 477 75.6012 476.81 75.6012 476.43V470.16C75.6012 469.79 75.7912 469.605 76.1712 469.605ZM75.3912 467.49C75.3912 467.26 75.4712 467.065 75.6312 466.905C75.7912 466.735 75.9812 466.65 76.2012 466.65C76.4312 466.65 76.6262 466.735 76.7862 466.905C76.9562 467.065 77.0412 467.26 77.0412 467.49C77.0412 467.71 76.9612 467.905 76.8012 468.075C76.6412 468.235 76.4462 468.315 76.2162 468.315C75.9862 468.315 75.7912 468.235 75.6312 468.075C75.4712 467.915 75.3912 467.72 75.3912 467.49ZM78.072 471.66C78.072 470.98 78.362 470.445 78.942 470.055C79.532 469.655 80.187 469.455 80.907 469.455C81.627 469.455 82.182 469.56 82.572 469.77C82.972 469.97 83.172 470.21 83.172 470.49C83.172 470.77 82.977 470.975 82.587 471.105C82.517 470.945 82.322 470.795 82.002 470.655C81.692 470.515 81.307 470.445 80.847 470.445C80.387 470.445 80.007 470.535 79.707 470.715C79.417 470.885 79.272 471.13 79.272 471.45C79.272 471.76 79.382 472 79.602 472.17C79.822 472.34 80.337 472.52 81.147 472.71C81.967 472.89 82.592 473.155 83.022 473.505C83.452 473.855 83.667 474.345 83.667 474.975C83.667 475.605 83.377 476.12 82.797 476.52C82.217 476.91 81.502 477.105 80.652 477.105C79.812 477.105 79.137 477 78.627 476.79C78.127 476.57 77.877 476.285 77.877 475.935C77.877 475.585 78.042 475.33 78.372 475.17C78.512 475.44 78.782 475.67 79.182 475.86C79.582 476.05 80.082 476.145 80.682 476.145C81.282 476.145 81.737 476.035 82.047 475.815C82.367 475.595 82.527 475.325 82.527 475.005C82.527 474.675 82.382 474.42 82.092 474.24C81.812 474.05 81.257 473.865 80.427 473.685C79.607 473.505 79.007 473.25 78.627 472.92C78.257 472.58 78.072 472.16 78.072 471.66ZM83.9503 473.325C83.9503 472.075 84.3003 471.12 85.0003 470.46C85.7003 469.8 86.5053 469.47 87.4153 469.47C88.3253 469.47 89.0453 469.705 89.5753 470.175C90.1053 470.635 90.3703 471.21 90.3703 471.9C90.3703 472.59 90.0953 473.13 89.5453 473.52C89.0053 473.9 88.3053 474.09 87.4453 474.09C86.5853 474.09 85.8103 473.955 85.1203 473.685C85.1203 474.415 85.3703 475.005 85.8703 475.455C86.3703 475.895 86.9803 476.115 87.7003 476.115C88.8203 476.115 89.5203 475.77 89.8003 475.08C89.9703 475.08 90.1153 475.13 90.2353 475.23C90.3553 475.32 90.4153 475.455 90.4153 475.635C90.4153 475.985 90.1553 476.32 89.6353 476.64C89.1253 476.96 88.4753 477.12 87.6853 477.12C86.6253 477.12 85.7353 476.8 85.0153 476.16C84.3053 475.52 83.9503 474.575 83.9503 473.325ZM89.2303 471.855C89.2303 471.465 89.0603 471.135 88.7203 470.865C88.3903 470.595 87.9303 470.46 87.3403 470.46C86.7603 470.46 86.2503 470.695 85.8103 471.165C85.3703 471.635 85.1453 472.165 85.1353 472.755C85.8553 472.995 86.5703 473.115 87.2803 473.115C88.5803 473.115 89.2303 472.695 89.2303 471.855ZM91.115 476.145C91.115 475.855 91.21 475.62 91.4 475.44C91.59 475.26 91.82 475.17 92.09 475.17C92.37 475.17 92.605 475.26 92.795 475.44C92.985 475.62 93.08 475.855 93.08 476.145C93.08 476.435 92.985 476.67 92.795 476.85C92.605 477.03 92.37 477.12 92.09 477.12C91.82 477.12 91.59 477.03 91.4 476.85C91.21 476.67 91.115 476.435 91.115 476.145ZM94.9062 466.485H95.0112C95.3912 466.485 95.5812 466.67 95.5812 467.04V476.43C95.5812 476.81 95.3912 477 95.0112 477H94.9062C94.6962 477 94.5462 476.955 94.4562 476.865C94.3762 476.775 94.3362 476.63 94.3362 476.43V467.04C94.3362 466.84 94.3762 466.7 94.4562 466.62C94.5462 466.53 94.6962 466.485 94.9062 466.485ZM96.4993 473.325C96.4993 472.075 96.8493 471.12 97.5493 470.46C98.2493 469.8 99.0543 469.47 99.9643 469.47C100.874 469.47 101.594 469.705 102.124 470.175C102.654 470.635 102.919 471.21 102.919 471.9C102.919 472.59 102.644 473.13 102.094 473.52C101.554 473.9 100.854 474.09 99.9943 474.09C99.1343 474.09 98.3593 473.955 97.6693 473.685C97.6693 474.415 97.9193 475.005 98.4193 475.455C98.9193 475.895 99.5293 476.115 100.249 476.115C101.369 476.115 102.069 475.77 102.349 475.08C102.519 475.08 102.664 475.13 102.784 475.23C102.904 475.32 102.964 475.455 102.964 475.635C102.964 475.985 102.704 476.32 102.184 476.64C101.674 476.96 101.024 477.12 100.234 477.12C99.1743 477.12 98.2843 476.8 97.5643 476.16C96.8543 475.52 96.4993 474.575 96.4993 473.325ZM101.779 471.855C101.779 471.465 101.609 471.135 101.269 470.865C100.939 470.595 100.479 470.46 99.8893 470.46C99.3093 470.46 98.7993 470.695 98.3593 471.165C97.9193 471.635 97.6943 472.165 97.6843 472.755C98.4043 472.995 99.1193 473.115 99.8293 473.115C101.129 473.115 101.779 472.695 101.779 471.855ZM107.369 466.23C107.829 466.23 108.209 466.335 108.509 466.545C108.819 466.755 108.974 467.02 108.974 467.34C108.974 467.65 108.814 467.86 108.494 467.97C108.244 467.55 107.844 467.34 107.294 467.34C106.254 467.34 105.734 468.06 105.734 469.5V469.65H107.579C107.959 469.65 108.149 469.82 108.149 470.16C108.149 470.49 107.959 470.655 107.579 470.655H105.734V476.505C105.734 476.705 105.689 476.85 105.599 476.94C105.509 477.02 105.364 477.06 105.164 477.06H105.089C104.879 477.06 104.729 477.02 104.639 476.94C104.549 476.85 104.504 476.705 104.504 476.505V470.655H103.724C103.514 470.655 103.364 470.625 103.274 470.565C103.194 470.495 103.154 470.36 103.154 470.16C103.154 469.96 103.199 469.825 103.289 469.755C103.379 469.685 103.524 469.65 103.724 469.65H104.504V469.17C104.504 468.24 104.759 467.52 105.269 467.01C105.779 466.49 106.479 466.23 107.369 466.23ZM108.029 473.325C108.029 472.075 108.379 471.12 109.079 470.46C109.779 469.8 110.584 469.47 111.494 469.47C112.404 469.47 113.124 469.705 113.654 470.175C114.184 470.635 114.449 471.21 114.449 471.9C114.449 472.59 114.174 473.13 113.624 473.52C113.084 473.9 112.384 474.09 111.524 474.09C110.664 474.09 109.889 473.955 109.199 473.685C109.199 474.415 109.449 475.005 109.949 475.455C110.449 475.895 111.059 476.115 111.779 476.115C112.899 476.115 113.599 475.77 113.879 475.08C114.049 475.08 114.194 475.13 114.314 475.23C114.434 475.32 114.494 475.455 114.494 475.635C114.494 475.985 114.234 476.32 113.714 476.64C113.204 476.96 112.554 477.12 111.764 477.12C110.704 477.12 109.814 476.8 109.094 476.16C108.384 475.52 108.029 474.575 108.029 473.325ZM113.309 471.855C113.309 471.465 113.139 471.135 112.799 470.865C112.469 470.595 112.009 470.46 111.419 470.46C110.839 470.46 110.329 470.695 109.889 471.165C109.449 471.635 109.224 472.165 109.214 472.755C109.934 472.995 110.649 473.115 111.359 473.115C112.659 473.115 113.309 472.695 113.309 471.855ZM115.869 466.485H115.989C116.369 466.485 116.559 466.67 116.559 467.04V470.625C116.759 470.285 117.069 470.005 117.489 469.785C117.909 469.565 118.369 469.455 118.869 469.455C119.799 469.455 120.549 469.77 121.119 470.4C121.699 471.02 121.989 471.97 121.989 473.25C121.989 474.52 121.649 475.485 120.969 476.145C120.289 476.795 119.479 477.12 118.539 477.12C117.609 477.12 116.679 476.945 115.749 476.595C115.599 476.535 115.489 476.46 115.419 476.37C115.349 476.28 115.314 476.145 115.314 475.965V467.04C115.314 466.67 115.499 466.485 115.869 466.485ZM118.734 470.52C118.104 470.52 117.584 470.77 117.174 471.27C116.764 471.76 116.559 472.41 116.559 473.22V475.62C117.119 475.92 117.749 476.07 118.449 476.07C119.149 476.07 119.704 475.835 120.114 475.365C120.534 474.895 120.744 474.19 120.744 473.25C120.744 471.43 120.074 470.52 118.734 470.52ZM122.774 469.62H123.119C123.439 469.62 123.634 469.775 123.704 470.085C124.364 472.665 124.999 474.57 125.609 475.8H125.789C126.399 474.57 127.034 472.665 127.694 470.085C127.764 469.775 127.959 469.62 128.279 469.62H128.624C128.934 469.62 129.089 469.73 129.089 469.95C129.089 470.01 129.074 470.08 129.044 470.16C128.274 472.79 127.524 474.825 126.794 476.265C126.664 476.525 126.529 476.715 126.389 476.835C126.249 476.945 126.044 477 125.774 477H125.639C125.359 477 125.149 476.945 125.009 476.835C124.869 476.715 124.734 476.525 124.604 476.265C123.874 474.825 123.124 472.79 122.354 470.16C122.324 470.08 122.309 470.01 122.309 469.95C122.309 469.73 122.464 469.62 122.774 469.62ZM130.285 469.605H130.375C130.755 469.605 130.945 469.79 130.945 470.16V470.97C131.115 470.59 131.385 470.25 131.755 469.95C132.135 469.65 132.54 469.5 132.97 469.5C133.4 469.5 133.725 469.585 133.945 469.755C134.175 469.925 134.29 470.135 134.29 470.385C134.29 470.625 134.185 470.815 133.975 470.955C133.665 470.695 133.335 470.565 132.985 470.565C132.365 470.565 131.875 470.82 131.515 471.33C131.155 471.83 130.975 472.46 130.975 473.22V476.43C130.975 476.63 130.93 476.775 130.84 476.865C130.75 476.955 130.605 477 130.405 477H130.285C130.085 477 129.94 476.955 129.85 476.865C129.76 476.775 129.715 476.63 129.715 476.43V470.16C129.715 469.79 129.905 469.605 130.285 469.605ZM134.298 473.325C134.298 472.075 134.648 471.12 135.348 470.46C136.048 469.8 136.853 469.47 137.763 469.47C138.673 469.47 139.393 469.705 139.923 470.175C140.453 470.635 140.718 471.21 140.718 471.9C140.718 472.59 140.443 473.13 139.893 473.52C139.353 473.9 138.653 474.09 137.793 474.09C136.933 474.09 136.158 473.955 135.468 473.685C135.468 474.415 135.718 475.005 136.218 475.455C136.718 475.895 137.328 476.115 138.048 476.115C139.168 476.115 139.868 475.77 140.148 475.08C140.318 475.08 140.463 475.13 140.583 475.23C140.703 475.32 140.763 475.455 140.763 475.635C140.763 475.985 140.503 476.32 139.983 476.64C139.473 476.96 138.823 477.12 138.033 477.12C136.973 477.12 136.083 476.8 135.363 476.16C134.653 475.52 134.298 474.575 134.298 473.325ZM139.578 471.855C139.578 471.465 139.408 471.135 139.068 470.865C138.738 470.595 138.278 470.46 137.688 470.46C137.108 470.46 136.598 470.695 136.158 471.165C135.718 471.635 135.493 472.165 135.483 472.755C136.203 472.995 136.918 473.115 137.628 473.115C138.928 473.115 139.578 472.695 139.578 471.855ZM142.152 466.815H143.697C144.117 466.815 144.327 466.995 144.327 467.355V476.43C144.327 476.81 144.117 477 143.697 477H143.592C143.172 477 142.962 476.81 142.962 476.43V467.94H142.152C141.742 467.94 141.537 467.755 141.537 467.385C141.537 467.005 141.742 466.815 142.152 466.815ZM150.075 474.885C149.325 474.885 148.72 474.64 148.26 474.15C147.81 473.66 147.585 472.975 147.585 472.095C147.585 471.205 147.83 470.525 148.32 470.055C148.81 469.575 149.4 469.335 150.09 469.335C150.79 469.335 151.37 469.415 151.83 469.575C152.29 469.735 152.52 470 152.52 470.37V473.22C152.52 473.43 152.575 473.59 152.685 473.7C152.805 473.81 152.955 473.865 153.135 473.865C153.785 473.865 154.11 473.23 154.11 471.96C154.11 470.69 153.735 469.695 152.985 468.975C152.245 468.255 151.36 467.895 150.33 467.895C149.31 467.895 148.425 468.255 147.675 468.975C146.935 469.695 146.565 470.71 146.565 472.02C146.565 473.33 146.91 474.355 147.6 475.095C148.3 475.835 149.15 476.205 150.15 476.205C151.32 476.205 151.99 475.915 152.16 475.335C152.5 475.385 152.67 475.58 152.67 475.92C152.67 476.25 152.45 476.555 152.01 476.835C151.57 477.105 150.94 477.24 150.12 477.24C148.76 477.24 147.625 476.78 146.715 475.86C145.805 474.94 145.35 473.66 145.35 472.02C145.35 470.91 145.595 469.95 146.085 469.14C146.575 468.32 147.19 467.72 147.93 467.34C148.67 466.96 149.415 466.77 150.165 466.77C150.915 466.77 151.585 466.885 152.175 467.115C152.765 467.335 153.295 467.66 153.765 468.09C154.235 468.51 154.61 469.06 154.89 469.74C155.18 470.42 155.325 471.21 155.325 472.11C155.325 473.01 155.11 473.7 154.68 474.18C154.26 474.66 153.73 474.9 153.09 474.9C152.71 474.9 152.39 474.825 152.13 474.675C151.88 474.525 151.71 474.375 151.62 474.225C151.48 474.415 151.265 474.575 150.975 474.705C150.695 474.825 150.395 474.885 150.075 474.885ZM151.395 473.37V470.52C151.075 470.39 150.685 470.325 150.225 470.325C149.775 470.325 149.41 470.47 149.13 470.76C148.85 471.04 148.71 471.49 148.71 472.11C148.71 472.72 148.845 473.175 149.115 473.475C149.385 473.765 149.755 473.91 150.225 473.91C150.465 473.91 150.68 473.875 150.87 473.805C151.06 473.725 151.195 473.645 151.275 473.565C151.355 473.485 151.395 473.42 151.395 473.37ZM158.946 474.855L158.271 474.825C158.031 474.825 157.826 474.89 157.656 475.02C157.486 475.14 157.401 475.275 157.401 475.425C157.401 475.805 157.721 475.995 158.361 475.995H159.471C161.601 475.995 162.666 476.65 162.666 477.96C162.666 478.65 162.331 479.21 161.661 479.64C161.001 480.07 160.151 480.305 159.111 480.345H158.751C157.901 480.345 157.176 480.175 156.576 479.835C155.976 479.495 155.676 479.095 155.676 478.635C155.676 478.415 155.726 478.24 155.826 478.11C155.936 477.98 156.076 477.905 156.246 477.885C156.436 478.275 156.771 478.6 157.251 478.86C157.731 479.12 158.296 479.25 158.946 479.25H159.051C159.801 479.25 160.386 479.135 160.806 478.905C161.236 478.675 161.451 478.385 161.451 478.035C161.451 477.695 161.261 477.445 160.881 477.285C160.511 477.135 159.866 477.06 158.946 477.06C158.036 477.06 157.351 476.97 156.891 476.79C156.431 476.61 156.201 476.26 156.201 475.74C156.201 475.22 156.566 474.81 157.296 474.51C156.426 474.02 155.991 473.24 155.991 472.17C155.991 471.32 156.281 470.66 156.861 470.19C157.441 469.72 158.156 469.485 159.006 469.485C159.436 469.485 159.831 469.575 160.191 469.755C160.561 469.935 160.841 470.13 161.031 470.34C161.411 470.09 161.601 469.635 161.601 468.975C161.871 468.975 162.111 469.06 162.321 469.23C162.531 469.39 162.636 469.595 162.636 469.845C162.636 470.345 162.266 470.705 161.526 470.925C161.746 471.225 161.856 471.665 161.856 472.245C161.856 473.095 161.576 473.745 161.016 474.195C160.466 474.635 159.776 474.855 158.946 474.855ZM160.206 470.88C159.876 470.59 159.456 470.445 158.946 470.445C158.436 470.445 158.011 470.59 157.671 470.88C157.331 471.16 157.161 471.595 157.161 472.185C157.161 472.775 157.331 473.215 157.671 473.505C158.011 473.785 158.436 473.925 158.946 473.925C159.456 473.925 159.876 473.785 160.206 473.505C160.546 473.215 160.716 472.775 160.716 472.185C160.716 471.595 160.546 471.16 160.206 470.88ZM163.871 469.605H163.961C164.351 469.605 164.546 469.795 164.546 470.175V470.805C165.006 469.935 165.711 469.5 166.661 469.5C167.271 469.5 167.776 469.665 168.176 469.995C168.586 470.315 168.866 470.765 169.016 471.345C169.176 470.765 169.471 470.31 169.901 469.98C170.331 469.65 170.826 469.485 171.386 469.485C173.106 469.485 173.966 470.49 173.966 472.5V476.445C173.966 476.815 173.766 477 173.366 477H173.276C172.896 477 172.706 476.815 172.706 476.445V472.575C172.706 471.205 172.186 470.52 171.146 470.52C170.416 470.52 169.916 470.785 169.646 471.315C169.386 471.845 169.256 472.565 169.256 473.475V476.445C169.256 476.815 169.061 477 168.671 477H168.566C168.186 477 167.996 476.815 167.996 476.445V472.575C167.996 471.205 167.471 470.52 166.421 470.52C165.171 470.52 164.546 471.49 164.546 473.43V476.445C164.546 476.815 164.351 477 163.961 477H163.871C163.491 477 163.301 476.815 163.301 476.445V470.175C163.301 469.795 163.491 469.605 163.871 469.605ZM177.726 469.485C179.846 469.485 180.906 470.47 180.906 472.44V475.41C180.906 475.96 181.116 476.31 181.536 476.46C181.386 476.84 181.106 477.03 180.696 477.03C180.396 477.03 180.156 476.925 179.976 476.715C179.806 476.495 179.721 476.21 179.721 475.86C179.091 476.7 178.276 477.12 177.276 477.12C176.466 477.12 175.826 476.915 175.356 476.505C174.896 476.085 174.666 475.525 174.666 474.825C174.666 474.115 174.936 473.54 175.476 473.1C176.026 472.66 176.766 472.44 177.696 472.44C178.256 472.44 178.726 472.5 179.106 472.62C179.416 472.73 179.601 472.8 179.661 472.83V472.17C179.661 471.56 179.506 471.13 179.196 470.88C178.886 470.62 178.416 470.49 177.786 470.49C176.896 470.49 176.206 470.83 175.716 471.51C175.296 471.45 175.086 471.255 175.086 470.925C175.086 470.545 175.346 470.21 175.866 469.92C176.386 469.63 177.006 469.485 177.726 469.485ZM179.661 473.79C179.031 473.51 178.411 473.37 177.801 473.37C177.191 473.37 176.721 473.5 176.391 473.76C176.061 474.02 175.896 474.36 175.896 474.78C175.896 475.19 176.036 475.52 176.316 475.77C176.606 476.01 177.026 476.13 177.576 476.13C178.136 476.13 178.621 475.93 179.031 475.53C179.451 475.13 179.661 474.645 179.661 474.075V473.79ZM183.039 469.605H183.129C183.509 469.605 183.699 469.79 183.699 470.16V476.43C183.699 476.81 183.509 477 183.129 477H183.039C182.659 477 182.469 476.81 182.469 476.43V470.16C182.469 469.79 182.659 469.605 183.039 469.605ZM182.259 467.49C182.259 467.26 182.339 467.065 182.499 466.905C182.659 466.735 182.849 466.65 183.069 466.65C183.299 466.65 183.494 466.735 183.654 466.905C183.824 467.065 183.909 467.26 183.909 467.49C183.909 467.71 183.829 467.905 183.669 468.075C183.509 468.235 183.314 468.315 183.084 468.315C182.854 468.315 182.659 468.235 182.499 468.075C182.339 467.915 182.259 467.72 182.259 467.49ZM185.9 466.485H186.005C186.385 466.485 186.575 466.67 186.575 467.04V476.43C186.575 476.81 186.385 477 186.005 477H185.9C185.69 477 185.54 476.955 185.45 476.865C185.37 476.775 185.33 476.63 185.33 476.43V467.04C185.33 466.84 185.37 466.7 185.45 466.62C185.54 466.53 185.69 466.485 185.9 466.485ZM187.838 476.145C187.838 475.855 187.933 475.62 188.123 475.44C188.313 475.26 188.543 475.17 188.813 475.17C189.093 475.17 189.328 475.26 189.518 475.44C189.708 475.62 189.803 475.855 189.803 476.145C189.803 476.435 189.708 476.67 189.518 476.85C189.328 477.03 189.093 477.12 188.813 477.12C188.543 477.12 188.313 477.03 188.123 476.85C187.933 476.67 187.838 476.435 187.838 476.145ZM191.689 470.325C192.059 470.035 192.454 469.82 192.874 469.68C193.294 469.54 193.804 469.47 194.404 469.47C195.004 469.47 195.529 469.605 195.979 469.875C196.439 470.145 196.669 470.435 196.669 470.745C196.669 471.125 196.454 471.34 196.024 471.39C195.924 471.17 195.699 470.97 195.349 470.79C194.999 470.6 194.584 470.505 194.104 470.505C193.434 470.505 192.879 470.745 192.439 471.225C191.999 471.695 191.779 472.385 191.779 473.295C191.779 474.205 192.004 474.9 192.454 475.38C192.904 475.86 193.444 476.1 194.074 476.1C195.074 476.1 195.749 475.775 196.099 475.125C196.289 475.125 196.449 475.185 196.579 475.305C196.709 475.415 196.774 475.56 196.774 475.74C196.774 476.09 196.534 476.41 196.054 476.7C195.574 476.98 195.024 477.12 194.404 477.12C193.794 477.12 193.274 477.05 192.844 476.91C192.424 476.76 192.034 476.54 191.674 476.25C191.314 475.95 191.029 475.55 190.819 475.05C190.609 474.55 190.504 473.97 190.504 473.31C190.504 472.64 190.609 472.05 190.819 471.54C191.039 471.02 191.329 470.615 191.689 470.325ZM198.096 470.475C198.806 469.805 199.676 469.47 200.706 469.47C201.736 469.47 202.606 469.805 203.316 470.475C204.026 471.145 204.381 472.09 204.381 473.31C204.381 474.53 204.026 475.47 203.316 476.13C202.606 476.79 201.736 477.12 200.706 477.12C199.676 477.12 198.806 476.79 198.096 476.13C197.386 475.47 197.031 474.53 197.031 473.31C197.031 472.09 197.386 471.145 198.096 470.475ZM202.431 471.24C201.991 470.75 201.416 470.505 200.706 470.505C199.996 470.505 199.416 470.75 198.966 471.24C198.526 471.72 198.306 472.41 198.306 473.31C198.306 474.2 198.526 474.89 198.966 475.38C199.416 475.86 199.996 476.1 200.706 476.1C201.416 476.1 201.991 475.86 202.431 475.38C202.881 474.89 203.106 474.2 203.106 473.31C203.106 472.41 202.881 471.72 202.431 471.24ZM205.779 469.605H205.869C206.259 469.605 206.454 469.795 206.454 470.175V470.805C206.914 469.935 207.619 469.5 208.569 469.5C209.179 469.5 209.684 469.665 210.084 469.995C210.494 470.315 210.774 470.765 210.924 471.345C211.084 470.765 211.379 470.31 211.809 469.98C212.239 469.65 212.734 469.485 213.294 469.485C215.014 469.485 215.874 470.49 215.874 472.5V476.445C215.874 476.815 215.674 477 215.274 477H215.184C214.804 477 214.614 476.815 214.614 476.445V472.575C214.614 471.205 214.094 470.52 213.054 470.52C212.324 470.52 211.824 470.785 211.554 471.315C211.294 471.845 211.164 472.565 211.164 473.475V476.445C211.164 476.815 210.969 477 210.579 477H210.474C210.094 477 209.904 476.815 209.904 476.445V472.575C209.904 471.205 209.379 470.52 208.329 470.52C207.079 470.52 206.454 471.49 206.454 473.43V476.445C206.454 476.815 206.259 477 205.869 477H205.779C205.399 477 205.209 476.815 205.209 476.445V470.175C205.209 469.795 205.399 469.605 205.779 469.605Z" fill="black"/>
</svg>
