<svg width="14" height="16" viewBox="0 0 14 16" fill="none" xmlns="http://www.w3.org/2000/svg">
<path d="M9.33333 0H4.66667V1.52381H9.33333V0ZM6.22222 9.90476H7.77778V5.33333H6.22222V9.90476ZM12.4678 4.86857L13.5722 3.78667C13.2378 3.3981 12.8722 3.03238 12.4756 2.71238L11.3711 3.79429C10.1656 2.84952 8.64889 2.28571 7 2.28571C3.13444 2.28571 0 5.35619 0 9.14286C0 12.9295 3.12667 16 7 16C10.8733 16 14 12.9295 14 9.14286C14 7.52762 13.4244 6.0419 12.4678 4.86857ZM7 14.4762C3.99 14.4762 1.55556 12.0914 1.55556 9.14286C1.55556 6.19429 3.99 3.80952 7 3.80952C10.01 3.80952 12.4444 6.19429 12.4444 9.14286C12.4444 12.0914 10.01 14.4762 7 14.4762Z" fill="#F9886A"/>
</svg>
