<svg width="597" height="518" viewBox="0 0 597 518" fill="none" xmlns="http://www.w3.org/2000/svg">
<rect x="5" y="5" width="587" height="508" rx="10" fill="#E5E5E5" stroke="#272735" stroke-width="10"/>
<path fill-rule="evenodd" clip-rule="evenodd" d="M44 194.061V64.5609C44 57.9335 49.4154 52.502 56.0212 53.0363C160.934 61.5228 169.641 181.062 81.5287 205.646C80.5357 205.924 79.4791 206.061 78.4481 206.061H56.0003C49.3729 206.061 44 200.688 44 194.061ZM76.7295 167.874C90.352 173.939 106.312 167.813 112.377 154.19C118.442 140.568 112.316 124.608 98.6933 118.543C96.9565 117.769 95.1816 117.194 93.3941 116.808C91.4958 116.397 90 114.806 90 112.864V112.864C90 111.279 91.0954 109.94 92.2215 108.825C93.3197 107.737 94 106.228 94 104.561C94 101.247 91.3137 98.5609 88 98.5609C84.6863 98.5609 82 101.247 82 104.561C82 106.246 82.6946 107.769 83.8131 108.859C84.9273 109.944 86 111.26 86 112.815V112.815C86 114.751 84.4885 116.328 82.5882 116.697C74.2306 118.319 66.7713 123.859 63.0457 132.227C56.9806 145.849 63.107 161.809 76.7295 167.874ZM93.9169 96.5655C94.0085 97.1101 93.5523 97.5609 93 97.5609H92.84C92.2877 97.5609 91.8528 97.1058 91.7105 96.5721C91.538 95.9246 91.1973 95.3276 90.7153 94.8456C89.9952 94.1255 89.0184 93.7209 88 93.7209C86.9816 93.7209 86.0048 94.1255 85.2847 94.8456C84.8027 95.3276 84.462 95.9246 84.2895 96.5721C84.1472 97.1058 83.7123 97.5609 83.16 97.5609H83C82.4477 97.5609 81.9915 97.1101 82.0831 96.5655C82.2887 95.3434 82.8696 94.206 83.7574 93.3182C84.8826 92.193 86.4087 91.5609 88 91.5609C89.5913 91.5609 91.1174 92.193 92.2426 93.3182C93.1304 94.206 93.7113 95.3434 93.9169 96.5655ZM98.32 96C99.2478 96 100.014 95.2427 99.8606 94.3277C99.4749 92.0294 98.3011 89.8864 96.4853 88.2218C94.2348 86.1589 91.1826 85 88 85C84.8174 85 81.7652 86.1589 79.5147 88.2218C77.6989 89.8864 76.5251 92.0294 76.1394 94.3277C75.9859 95.2427 76.7522 96 77.68 96C78.6078 96 79.3411 95.2381 79.5531 94.3348C79.9002 92.8556 80.7054 91.4861 81.8906 90.3997C83.5109 88.9144 85.7085 88.08 88 88.08C90.2915 88.08 92.4891 88.9144 94.1094 90.3997C95.2946 91.4861 96.0998 92.8556 96.4469 94.3348C96.6589 95.2381 97.3922 96 98.32 96Z" fill="#272735"/>
<path d="M72.8059 177.27C73.4501 178.157 72.8928 179.409 71.8029 179.523L57.9056 180.984C56.8156 181.098 56.0103 179.99 56.4561 178.989L62.1398 166.223C62.5856 165.222 63.948 165.079 64.5923 165.965L72.8059 177.27Z" fill="#F9886A"/>
<path d="M72.3724 177.077C71.2824 177.192 70.7252 178.443 71.3694 179.33L79.583 190.635C80.2272 191.522 81.5897 191.379 82.0354 190.377L87.7191 177.612C88.1649 176.61 87.3596 175.502 86.2697 175.617L72.3724 177.077Z" fill="#F9886A"/>
<path d="M83.4504 138.027C83.9549 138.252 84.555 138.026 84.6928 137.491C84.8055 137.054 84.8687 136.604 84.8806 136.151C84.9012 135.363 84.7665 134.579 84.4841 133.844C84.2018 133.108 83.7773 132.435 83.2349 131.864C82.6925 131.292 82.0429 130.833 81.3231 130.512C80.6033 130.192 79.8274 130.016 79.0397 129.996C78.252 129.975 77.468 130.11 76.7324 130.392C75.9968 130.675 75.3241 131.099 74.7525 131.641C74.4235 131.954 74.1317 132.302 73.8822 132.678C73.577 133.138 73.8104 133.735 74.3149 133.96L75.5384 134.505C76.0429 134.729 76.6247 134.482 77.0188 134.095C77.0295 134.084 77.0403 134.074 77.0511 134.064C77.3046 133.823 77.6029 133.635 77.9291 133.51C78.2553 133.384 78.603 133.325 78.9523 133.334C79.3016 133.343 79.6457 133.421 79.9649 133.563C80.2841 133.705 80.5722 133.909 80.8127 134.162C81.0532 134.416 81.2415 134.714 81.3667 135.04C81.4919 135.366 81.5516 135.714 81.5425 136.063C81.5421 136.078 81.5416 136.093 81.5409 136.108C81.5172 136.66 81.7224 137.258 82.2269 137.483L83.4504 138.027Z" fill="#272735"/>
<path d="M103.548 146.976C104.053 147.2 104.653 146.974 104.791 146.439C104.903 146.002 104.967 145.552 104.978 145.099C104.999 144.311 104.864 143.527 104.582 142.792C104.3 142.056 103.875 141.383 103.333 140.812C102.79 140.24 102.141 139.781 101.421 139.461C100.701 139.14 99.9253 138.965 99.1376 138.944C98.35 138.923 97.5659 139.058 96.8303 139.34C96.0947 139.623 95.422 140.047 94.8504 140.59C94.5214 140.902 94.2296 141.25 93.9801 141.626C93.6749 142.086 93.9083 142.684 94.4128 142.908L95.6363 143.453C96.1408 143.678 96.7226 143.43 97.1167 143.043C97.1274 143.033 97.1382 143.022 97.149 143.012C97.4025 142.771 97.7008 142.583 98.027 142.458C98.3532 142.333 98.7009 142.273 99.0502 142.282C99.3995 142.291 99.7436 142.369 100.063 142.511C100.382 142.653 100.67 142.857 100.911 143.11C101.151 143.364 101.339 143.662 101.465 143.988C101.59 144.315 101.65 144.662 101.64 145.012C101.64 145.027 101.639 145.042 101.639 145.056C101.615 145.608 101.82 146.206 102.325 146.431L103.548 146.976Z" fill="#272735"/>
<path d="M157.6 144.868H158.344C161.485 144.868 163.056 146.397 163.056 149.456V201.288C163.056 204.429 161.485 206 158.344 206H157.6C154.459 206 152.888 204.429 152.888 201.288V149.456C152.888 146.397 154.459 144.868 157.6 144.868ZM151.152 127.384C151.152 125.483 151.813 123.871 153.136 122.548C154.459 121.143 156.029 120.44 157.848 120.44C159.749 120.44 161.361 121.143 162.684 122.548C164.089 123.871 164.792 125.483 164.792 127.384C164.792 129.203 164.131 130.815 162.808 132.22C161.485 133.543 159.873 134.204 157.972 134.204C156.071 134.204 154.459 133.543 153.136 132.22C151.813 130.897 151.152 129.285 151.152 127.384ZM173.313 161.856C173.313 156.235 175.71 151.812 180.505 148.588C185.382 145.281 190.797 143.628 196.749 143.628C202.701 143.628 207.289 144.496 210.513 146.232C213.82 147.885 215.473 149.869 215.473 152.184C215.473 154.499 213.861 156.193 210.637 157.268C210.058 155.945 208.446 154.705 205.801 153.548C203.238 152.391 200.056 151.812 196.253 151.812C192.45 151.812 189.309 152.556 186.829 154.044C184.432 155.449 183.233 157.475 183.233 160.12C183.233 162.683 184.142 164.667 185.961 166.072C187.78 167.477 192.037 168.965 198.733 170.536C205.512 172.024 210.678 174.215 214.233 177.108C217.788 180.001 219.565 184.052 219.565 189.26C219.565 194.468 217.168 198.725 212.373 202.032C207.578 205.256 201.668 206.868 194.641 206.868C187.697 206.868 182.117 206 177.901 204.264C173.768 202.445 171.701 200.089 171.701 197.196C171.701 194.303 173.065 192.195 175.793 190.872C176.95 193.104 179.182 195.005 182.489 196.576C185.796 198.147 189.929 198.932 194.889 198.932C199.849 198.932 203.61 198.023 206.173 196.204C208.818 194.385 210.141 192.153 210.141 189.508C210.141 186.78 208.942 184.672 206.545 183.184C204.23 181.613 199.642 180.084 192.781 178.596C186.002 177.108 181.042 175 177.901 172.272C174.842 169.461 173.313 165.989 173.313 161.856ZM231.704 150.82C234.762 148.423 238.028 146.645 241.5 145.488C244.972 144.331 249.188 143.752 254.148 143.752C259.108 143.752 263.448 144.868 267.168 147.1C270.97 149.332 272.872 151.729 272.872 154.292C272.872 157.433 271.094 159.211 267.54 159.624C266.713 157.805 264.853 156.152 261.96 154.664C259.066 153.093 255.636 152.308 251.668 152.308C246.129 152.308 241.541 154.292 237.904 158.26C234.266 162.145 232.448 167.849 232.448 175.372C232.448 182.895 234.308 188.64 238.028 192.608C241.748 196.576 246.212 198.56 251.42 198.56C259.686 198.56 265.266 195.873 268.16 190.5C269.73 190.5 271.053 190.996 272.128 191.988C273.202 192.897 273.74 194.096 273.74 195.584C273.74 198.477 271.756 201.123 267.788 203.52C263.82 205.835 259.273 206.992 254.148 206.992C249.105 206.992 244.806 206.413 241.252 205.256C237.78 204.016 234.556 202.197 231.58 199.8C228.604 197.32 226.248 194.013 224.512 189.88C222.776 185.747 221.908 180.952 221.908 175.496C221.908 169.957 222.776 165.08 224.512 160.864C226.33 156.565 228.728 153.217 231.704 150.82ZM284.666 152.06C290.535 146.521 297.727 143.752 306.242 143.752C314.757 143.752 321.949 146.521 327.818 152.06C333.687 157.599 336.622 165.411 336.622 175.496C336.622 185.581 333.687 193.352 327.818 198.808C321.949 204.264 314.757 206.992 306.242 206.992C297.727 206.992 290.535 204.264 284.666 198.808C278.797 193.352 275.862 185.581 275.862 175.496C275.862 165.411 278.797 157.599 284.666 152.06ZM320.502 158.384C316.865 154.333 312.111 152.308 306.242 152.308C300.373 152.308 295.578 154.333 291.858 158.384C288.221 162.352 286.402 168.056 286.402 175.496C286.402 182.853 288.221 188.557 291.858 192.608C295.578 196.576 300.373 198.56 306.242 198.56C312.111 198.56 316.865 196.576 320.502 192.608C324.222 188.557 326.082 182.853 326.082 175.496C326.082 168.056 324.222 162.352 320.502 158.384ZM341.857 144.992H344.709C347.355 144.992 348.967 146.273 349.545 148.836C355.001 170.164 360.251 185.912 365.293 196.08H366.781C371.824 185.912 377.073 170.164 382.529 148.836C383.108 146.273 384.72 144.992 387.365 144.992H390.217C392.78 144.992 394.061 145.901 394.061 147.72C394.061 148.216 393.937 148.795 393.689 149.456C387.324 171.197 381.124 188.02 375.089 199.924C374.015 202.073 372.899 203.644 371.741 204.636C370.584 205.545 368.889 206 366.657 206H365.541C363.227 206 361.491 205.545 360.333 204.636C359.176 203.644 358.06 202.073 356.985 199.924C350.951 188.02 344.751 171.197 338.385 149.456C338.137 148.795 338.013 148.216 338.013 147.72C338.013 145.901 339.295 144.992 341.857 144.992ZM395.396 175.62C395.396 165.287 398.29 157.392 404.076 151.936C409.863 146.48 416.518 143.752 424.04 143.752C431.563 143.752 437.515 145.695 441.896 149.58C446.278 153.383 448.468 158.136 448.468 163.84C448.468 169.544 446.195 174.008 441.648 177.232C437.184 180.373 431.398 181.944 424.288 181.944C417.179 181.944 410.772 180.828 405.068 178.596C405.068 184.631 407.135 189.508 411.268 193.228C415.402 196.865 420.444 198.684 426.396 198.684C435.655 198.684 441.442 195.832 443.756 190.128C445.162 190.128 446.36 190.541 447.352 191.368C448.344 192.112 448.84 193.228 448.84 194.716C448.84 197.609 446.691 200.379 442.392 203.024C438.176 205.669 432.803 206.992 426.272 206.992C417.51 206.992 410.152 204.347 404.2 199.056C398.331 193.765 395.396 185.953 395.396 175.62ZM439.044 163.468C439.044 160.244 437.639 157.516 434.828 155.284C432.1 153.052 428.298 151.936 423.42 151.936C418.626 151.936 414.41 153.879 410.772 157.764C407.135 161.649 405.275 166.031 405.192 170.908C411.144 172.892 417.055 173.884 422.924 173.884C433.671 173.884 439.044 170.412 439.044 163.468ZM460.329 144.868H461.073C464.214 144.868 465.785 146.397 465.785 149.456V156.152C467.19 153.011 469.422 150.2 472.481 147.72C475.622 145.24 478.97 144 482.525 144C486.079 144 488.766 144.703 490.585 146.108C492.486 147.513 493.437 149.249 493.437 151.316C493.437 153.3 492.569 154.871 490.833 156.028C488.27 153.879 485.542 152.804 482.649 152.804C477.523 152.804 473.473 154.912 470.497 159.128C467.521 163.261 466.033 168.469 466.033 174.752V201.288C466.033 202.941 465.661 204.14 464.917 204.884C464.173 205.628 462.974 206 461.321 206H460.329C458.675 206 457.477 205.628 456.733 204.884C455.989 204.14 455.617 202.941 455.617 201.288V149.456C455.617 146.397 457.187 144.868 460.329 144.868ZM496.692 144.992H499.048C501.693 144.992 503.305 146.273 503.884 148.836C508.926 168.676 514.506 184.713 520.624 196.948H521.74C528.684 179.836 534.264 163.799 538.48 148.836C539.224 146.273 540.836 144.992 543.316 144.992H545.3C547.862 144.992 549.144 145.901 549.144 147.72C549.144 148.216 549.02 148.795 548.772 149.456C539.182 179.381 528.766 206.248 517.524 230.056C516.862 231.461 516.16 232.453 515.416 233.032C514.754 233.693 513.68 234.024 512.192 234.024H509.092C507.108 234.024 506.116 233.073 506.116 231.172C506.116 230.593 506.57 229.395 507.48 227.576C513.597 215.755 517.193 208.521 518.268 205.876H518.02C516.532 205.628 515.581 205.297 515.168 204.884C514.754 204.388 514.465 204.099 514.3 204.016C514.134 203.851 513.928 203.561 513.68 203.148C513.432 202.652 513.266 202.363 513.184 202.28C513.101 202.115 512.894 201.743 512.564 201.164C512.316 200.503 512.15 200.089 512.068 199.924C505.702 187.193 499.42 170.371 493.22 149.456C492.972 148.795 492.848 148.216 492.848 147.72C492.848 145.901 494.129 144.992 496.692 144.992Z" fill="#272735"/>
<path d="M288.05 233.9C288.05 231.367 289.183 229.2 291.45 227.4C293.717 225.6 296.5 224.7 299.8 224.7C303.133 224.7 305.683 225.117 307.45 225.95C309.217 226.75 310.1 227.75 310.1 228.95C310.1 230.15 309.367 230.9 307.9 231.2C306.633 229.3 304.083 228.35 300.25 228.35C297.983 228.35 296.133 228.883 294.7 229.95C293.267 230.983 292.55 232.25 292.55 233.75C292.55 235.25 293.133 236.4 294.3 237.2C295.467 238 297.167 238.7 299.4 239.3C301.667 239.867 303.4 240.383 304.6 240.85C305.833 241.317 307.067 241.933 308.3 242.7C310.7 244.167 311.9 246.383 311.9 249.35C311.9 252.283 310.7 254.7 308.3 256.6C305.9 258.467 302.9 259.4 299.3 259.4C295.7 259.4 292.883 258.933 290.85 258C288.85 257.033 287.85 255.9 287.85 254.6C287.85 253.267 288.7 252.383 290.4 251.95C291.633 254.45 294.417 255.7 298.75 255.7C301.517 255.7 303.667 255.15 305.2 254.05C306.767 252.917 307.55 251.483 307.55 249.75C307.55 247.983 306.767 246.633 305.2 245.7C303.667 244.767 301.25 243.9 297.95 243.1C294.683 242.267 292.217 241.15 290.55 239.75C288.883 238.35 288.05 236.4 288.05 233.9ZM318.088 234.35H318.388C319.654 234.35 320.288 234.967 320.288 236.2V257.1C320.288 258.367 319.654 259 318.388 259H318.088C316.821 259 316.188 258.367 316.188 257.1V236.2C316.188 234.967 316.821 234.35 318.088 234.35ZM315.488 227.3C315.488 226.533 315.754 225.883 316.288 225.35C316.821 224.783 317.454 224.5 318.188 224.5C318.954 224.5 319.604 224.783 320.138 225.35C320.704 225.883 320.988 226.533 320.988 227.3C320.988 228.033 320.721 228.683 320.188 229.25C319.654 229.783 319.004 230.05 318.238 230.05C317.471 230.05 316.821 229.783 316.288 229.25C315.754 228.717 315.488 228.067 315.488 227.3ZM327.323 234.35H327.623C328.923 234.35 329.573 234.983 329.573 236.25V238.35C331.107 235.45 333.457 234 336.623 234C338.657 234 340.34 234.55 341.673 235.65C343.04 236.717 343.973 238.217 344.473 240.15C345.007 238.217 345.99 236.7 347.423 235.6C348.857 234.5 350.507 233.95 352.373 233.95C358.107 233.95 360.973 237.3 360.973 244V257.15C360.973 258.383 360.307 259 358.973 259H358.673C357.407 259 356.773 258.383 356.773 257.15V244.25C356.773 239.683 355.04 237.4 351.573 237.4C349.14 237.4 347.473 238.283 346.573 240.05C345.707 241.817 345.273 244.217 345.273 247.25V257.15C345.273 258.383 344.623 259 343.323 259H342.973C341.707 259 341.073 258.383 341.073 257.15V244.25C341.073 239.683 339.323 237.4 335.823 237.4C331.657 237.4 329.573 240.633 329.573 247.1V257.15C329.573 258.383 328.923 259 327.623 259H327.323C326.057 259 325.423 258.383 325.423 257.15V236.25C325.423 234.983 326.057 234.35 327.323 234.35ZM366.057 234.4H366.407C367.674 234.4 368.307 235.017 368.307 236.25V249.1C368.307 253.667 370.324 255.95 374.357 255.95C375.891 255.95 377.174 255.5 378.207 254.6C380.074 253 381.007 250.6 381.007 247.4V236.25C381.007 235.017 381.657 234.4 382.957 234.4H383.307C383.974 234.4 384.441 234.55 384.707 234.85C385.007 235.117 385.157 235.583 385.157 236.25V257.15C385.157 257.817 385.007 258.3 384.707 258.6C384.407 258.867 383.924 259 383.257 259H382.957C381.657 259 381.007 258.383 381.007 257.15V254.65C380.541 255.717 379.541 256.783 378.007 257.85C376.507 258.883 374.891 259.4 373.157 259.4C367.157 259.4 364.157 256.05 364.157 249.35V236.25C364.157 235.017 364.791 234.4 366.057 234.4ZM391.887 223.95H392.237C393.504 223.95 394.137 224.567 394.137 225.8V257.1C394.137 258.367 393.504 259 392.237 259H391.887C391.187 259 390.687 258.85 390.387 258.55C390.12 258.25 389.987 257.767 389.987 257.1V225.8C389.987 225.133 390.12 224.667 390.387 224.4C390.687 224.1 391.187 223.95 391.887 223.95ZM407.498 233.95C414.564 233.95 418.098 237.233 418.098 243.8V253.7C418.098 255.533 418.798 256.7 420.198 257.2C419.698 258.467 418.764 259.1 417.398 259.1C416.398 259.1 415.598 258.75 414.998 258.05C414.431 257.317 414.148 256.367 414.148 255.2C412.048 258 409.331 259.4 405.998 259.4C403.298 259.4 401.164 258.717 399.598 257.35C398.064 255.95 397.298 254.083 397.298 251.75C397.298 249.383 398.198 247.467 399.998 246C401.831 244.533 404.298 243.8 407.398 243.8C409.264 243.8 410.831 244 412.098 244.4C413.131 244.767 413.748 245 413.948 245.1V242.9C413.948 240.867 413.431 239.433 412.398 238.6C411.364 237.733 409.798 237.3 407.698 237.3C404.731 237.3 402.431 238.433 400.798 240.7C399.398 240.5 398.698 239.85 398.698 238.75C398.698 237.483 399.564 236.367 401.298 235.4C403.031 234.433 405.098 233.95 407.498 233.95ZM413.948 248.3C411.848 247.367 409.781 246.9 407.748 246.9C405.714 246.9 404.148 247.333 403.048 248.2C401.948 249.067 401.398 250.2 401.398 251.6C401.398 252.967 401.864 254.067 402.798 254.9C403.764 255.7 405.164 256.1 406.998 256.1C408.864 256.1 410.481 255.433 411.848 254.1C413.248 252.767 413.948 251.15 413.948 249.25V248.3ZM426.507 227.7H426.857C428.123 227.7 428.757 228.317 428.757 229.55V234.5H435.657C436.957 234.5 437.607 235.067 437.607 236.2C437.607 237.333 436.957 237.9 435.657 237.9H428.757V250.5C428.757 252.6 429.157 254.083 429.957 254.95C430.79 255.783 431.99 256.2 433.557 256.2C435.157 256.2 436.34 255.817 437.107 255.05C437.94 255.317 438.357 255.85 438.357 256.65C438.357 257.45 437.807 258.117 436.707 258.65C435.607 259.15 434.29 259.4 432.757 259.4C427.323 259.4 424.607 256.433 424.607 250.5V237.9H422.157C421.423 237.9 420.89 237.783 420.557 237.55C420.223 237.317 420.057 236.867 420.057 236.2C420.057 235.067 420.757 234.5 422.157 234.5H424.607V229.55C424.607 228.317 425.24 227.7 426.507 227.7ZM441.525 237.25C443.892 235.017 446.792 233.9 450.225 233.9C453.658 233.9 456.558 235.017 458.925 237.25C461.292 239.483 462.475 242.633 462.475 246.7C462.475 250.767 461.292 253.9 458.925 256.1C456.558 258.3 453.658 259.4 450.225 259.4C446.792 259.4 443.892 258.3 441.525 256.1C439.158 253.9 437.975 250.767 437.975 246.7C437.975 242.633 439.158 239.483 441.525 237.25ZM455.975 239.8C454.508 238.167 452.592 237.35 450.225 237.35C447.858 237.35 445.925 238.167 444.425 239.8C442.958 241.4 442.225 243.7 442.225 246.7C442.225 249.667 442.958 251.967 444.425 253.6C445.925 255.2 447.858 256 450.225 256C452.592 256 454.508 255.2 455.975 253.6C457.475 251.967 458.225 249.667 458.225 246.7C458.225 243.7 457.475 241.4 455.975 239.8ZM467.136 234.35H467.436C468.703 234.35 469.336 234.967 469.336 236.2V238.9C469.903 237.633 470.803 236.5 472.036 235.5C473.303 234.5 474.653 234 476.086 234C477.519 234 478.603 234.283 479.336 234.85C480.103 235.417 480.486 236.117 480.486 236.95C480.486 237.75 480.136 238.383 479.436 238.85C478.403 237.983 477.303 237.55 476.136 237.55C474.069 237.55 472.436 238.4 471.236 240.1C470.036 241.767 469.436 243.867 469.436 246.4V257.1C469.436 257.767 469.286 258.25 468.986 258.55C468.686 258.85 468.203 259 467.536 259H467.136C466.469 259 465.986 258.85 465.686 258.55C465.386 258.25 465.236 257.767 465.236 257.1V236.2C465.236 234.967 465.869 234.35 467.136 234.35Z" fill="#272735"/>
<path d="M537.96 485.975C537.96 485.365 538.245 484.83 538.815 484.37C539.385 483.91 540.17 483.68 541.17 483.68C542.17 483.68 542.945 483.945 543.495 484.475C544.045 484.995 544.32 485.64 544.32 486.41C544.32 487.18 544.065 487.895 543.555 488.555C543.045 489.205 541.905 490.39 540.135 492.11C539.795 492.44 539.535 492.695 539.355 492.875H543.93C544.35 492.875 544.56 493.065 544.56 493.445C544.56 493.815 544.35 494 543.93 494H538.365C537.955 494 537.75 493.785 537.75 493.355C537.75 492.995 537.91 492.695 538.23 492.455C540.21 490.575 541.515 489.27 542.145 488.54C542.775 487.8 543.09 487.16 543.09 486.62C543.09 486.07 542.9 485.635 542.52 485.315C542.15 484.985 541.635 484.82 540.975 484.82C540.325 484.82 539.815 485.02 539.445 485.42C539.075 485.82 538.86 486.245 538.8 486.695C538.24 486.695 537.96 486.455 537.96 485.975ZM546.535 485.03C547.345 484.13 548.37 483.68 549.61 483.68C550.85 483.68 551.87 484.13 552.67 485.03C553.47 485.92 553.87 487.2 553.87 488.87C553.87 490.53 553.465 491.82 552.655 492.74C551.855 493.66 550.84 494.12 549.61 494.12C548.38 494.12 547.355 493.66 546.535 492.74C545.725 491.82 545.32 490.53 545.32 488.87C545.32 487.21 545.725 485.93 546.535 485.03ZM552.46 488.915C552.46 487.635 552.185 486.64 551.635 485.93C551.095 485.21 550.415 484.85 549.595 484.85C548.775 484.85 548.095 485.21 547.555 485.93C547.025 486.64 546.76 487.635 546.76 488.915C546.76 490.185 547.01 491.18 547.51 491.9C548.01 492.61 548.705 492.965 549.595 492.965C550.495 492.965 551.195 492.61 551.695 491.9C552.205 491.18 552.46 490.185 552.46 488.915ZM554.837 485.975C554.837 485.365 555.122 484.83 555.692 484.37C556.262 483.91 557.047 483.68 558.047 483.68C559.047 483.68 559.822 483.945 560.372 484.475C560.922 484.995 561.197 485.64 561.197 486.41C561.197 487.18 560.942 487.895 560.432 488.555C559.922 489.205 558.782 490.39 557.012 492.11C556.672 492.44 556.412 492.695 556.232 492.875H560.807C561.227 492.875 561.437 493.065 561.437 493.445C561.437 493.815 561.227 494 560.807 494H555.242C554.832 494 554.627 493.785 554.627 493.355C554.627 492.995 554.787 492.695 555.107 492.455C557.087 490.575 558.392 489.27 559.022 488.54C559.652 487.8 559.967 487.16 559.967 486.62C559.967 486.07 559.777 485.635 559.397 485.315C559.027 484.985 558.512 484.82 557.852 484.82C557.202 484.82 556.692 485.02 556.322 485.42C555.952 485.82 555.737 486.245 555.677 486.695C555.117 486.695 554.837 486.455 554.837 485.975ZM562.257 485.975C562.257 485.365 562.542 484.83 563.112 484.37C563.682 483.91 564.467 483.68 565.467 483.68C566.467 483.68 567.242 483.945 567.792 484.475C568.342 484.995 568.617 485.64 568.617 486.41C568.617 487.18 568.362 487.895 567.852 488.555C567.342 489.205 566.202 490.39 564.432 492.11C564.092 492.44 563.832 492.695 563.652 492.875H568.227C568.647 492.875 568.857 493.065 568.857 493.445C568.857 493.815 568.647 494 568.227 494H562.662C562.252 494 562.047 493.785 562.047 493.355C562.047 492.995 562.207 492.695 562.527 492.455C564.507 490.575 565.812 489.27 566.442 488.54C567.072 487.8 567.387 487.16 567.387 486.62C567.387 486.07 567.197 485.635 566.817 485.315C566.447 484.985 565.932 484.82 565.272 484.82C564.622 484.82 564.112 485.02 563.742 485.42C563.372 485.82 563.157 486.245 563.097 486.695C562.537 486.695 562.257 486.455 562.257 485.975Z" fill="black"/>
<path d="M64 413C64 411.9 63.1 411 62 411H46C44.9 411 44 411.9 44 413V425C44 426.1 44.9 427 46 427H62C63.1 427 64 426.1 64 425V413ZM62 413L54 418L46 413H62ZM62 425H46V415L54 420L62 415V425Z" fill="#272735"/>
<path d="M64 440C64 438.9 63.1 438 62 438H46C44.9 438 44 438.9 44 440V452C44 453.1 44.9 454 46 454H62C63.1 454 64 453.1 64 452V440ZM62 440L54 445L46 440H62ZM62 452H46V442L54 447L62 442V452Z" fill="#272735"/>
<path d="M52.08 338.86C52.13 338.53 52.24 338.24 52.38 337.99C52.52 337.74 52.72 337.53 52.97 337.37C53.21 337.22 53.51 337.15 53.88 337.14C54.11 337.15 54.32 337.19 54.51 337.27C54.71 337.36 54.89 337.48 55.03 337.63C55.17 337.78 55.28 337.96 55.37 338.16C55.46 338.36 55.5 338.58 55.51 338.8H57.3C57.28 338.33 57.19 337.9 57.02 337.51C56.85 337.12 56.62 336.78 56.32 336.5C56.02 336.22 55.66 336 55.24 335.84C54.82 335.68 54.36 335.61 53.85 335.61C53.2 335.61 52.63 335.72 52.15 335.95C51.67 336.18 51.27 336.48 50.95 336.87C50.63 337.26 50.39 337.71 50.24 338.23C50.09 338.75 50 339.29 50 339.87V340.14C50 340.72 50.08 341.26 50.23 341.78C50.38 342.3 50.62 342.75 50.94 343.13C51.26 343.51 51.66 343.82 52.14 344.04C52.62 344.26 53.19 344.38 53.84 344.38C54.31 344.38 54.75 344.3 55.16 344.15C55.57 344 55.93 343.79 56.24 343.52C56.55 343.25 56.8 342.94 56.98 342.58C57.16 342.22 57.27 341.84 57.28 341.43H55.49C55.48 341.64 55.43 341.83 55.34 342.01C55.25 342.19 55.13 342.34 54.98 342.47C54.83 342.6 54.66 342.7 54.46 342.77C54.27 342.84 54.07 342.86 53.86 342.87C53.5 342.86 53.2 342.79 52.97 342.64C52.72 342.48 52.52 342.27 52.38 342.02C52.24 341.77 52.13 341.47 52.08 341.14C52.03 340.81 52 340.47 52 340.14V339.87C52 339.52 52.03 339.19 52.08 338.86ZM54 330C48.48 330 44 334.48 44 340C44 345.52 48.48 350 54 350C59.52 350 64 345.52 64 340C64 334.48 59.52 330 54 330ZM54 348C49.59 348 46 344.41 46 340C46 335.59 49.59 332 54 332C58.41 332 62 335.59 62 340C62 344.41 58.41 348 54 348Z" fill="black"/>
<path d="M75.8 332.42H75.98C76.5 332.42 76.76 332.673 76.76 333.18V344.5H82.92C83.4267 344.5 83.68 344.753 83.68 345.26C83.68 345.753 83.4267 346 82.92 346H75.8C75.28 346 75.02 345.747 75.02 345.24V333.18C75.02 332.673 75.28 332.42 75.8 332.42ZM84.0267 341.1C84.0267 339.433 84.4934 338.16 85.4267 337.28C86.3601 336.4 87.4334 335.96 88.6467 335.96C89.8601 335.96 90.8201 336.273 91.5267 336.9C92.2334 337.513 92.5867 338.28 92.5867 339.2C92.5867 340.12 92.2201 340.84 91.4867 341.36C90.7667 341.867 89.8334 342.12 88.6867 342.12C87.5401 342.12 86.5067 341.94 85.5867 341.58C85.5867 342.553 85.9201 343.34 86.5867 343.94C87.2534 344.527 88.0667 344.82 89.0267 344.82C90.5201 344.82 91.4534 344.36 91.8267 343.44C92.0534 343.44 92.2467 343.507 92.4067 343.64C92.5667 343.76 92.6467 343.94 92.6467 344.18C92.6467 344.647 92.3001 345.093 91.6067 345.52C90.9267 345.947 90.0601 346.16 89.0067 346.16C87.5934 346.16 86.4067 345.733 85.4467 344.88C84.5001 344.027 84.0267 342.767 84.0267 341.1ZM91.0667 339.14C91.0667 338.62 90.8401 338.18 90.3867 337.82C89.9467 337.46 89.3334 337.28 88.5467 337.28C87.7734 337.28 87.0934 337.593 86.5067 338.22C85.9201 338.847 85.6201 339.553 85.6067 340.34C86.5667 340.66 87.5201 340.82 88.4667 340.82C90.2001 340.82 91.0667 340.26 91.0667 339.14ZM94.5397 337.3C95.4864 336.407 96.6464 335.96 98.0197 335.96C99.393 335.96 100.553 336.407 101.5 337.3C102.446 338.193 102.92 339.453 102.92 341.08C102.92 342.707 102.446 343.96 101.5 344.84C100.553 345.72 99.393 346.16 98.0197 346.16C96.6464 346.16 95.4864 345.72 94.5397 344.84C93.593 343.96 93.1197 342.707 93.1197 341.08C93.1197 339.453 93.593 338.193 94.5397 337.3ZM100.32 338.32C99.733 337.667 98.9664 337.34 98.0197 337.34C97.073 337.34 96.2997 337.667 95.6997 338.32C95.113 338.96 94.8197 339.88 94.8197 341.08C94.8197 342.267 95.113 343.187 95.6997 343.84C96.2997 344.48 97.073 344.8 98.0197 344.8C98.9664 344.8 99.733 344.48 100.32 343.84C100.92 343.187 101.22 342.267 101.22 341.08C101.22 339.88 100.92 338.96 100.32 338.32ZM110.531 332.42H114.171C115.545 332.42 116.665 332.753 117.531 333.42C118.398 334.073 118.831 335.12 118.831 336.56C118.831 337.987 118.398 339.04 117.531 339.72C116.665 340.387 115.545 340.72 114.171 340.72H111.491V345.24C111.491 345.747 111.231 346 110.711 346H110.531C110.011 346 109.751 345.747 109.751 345.24V333.2C109.751 332.68 110.011 332.42 110.531 332.42ZM111.491 333.9V339.22H114.191C116.151 339.22 117.131 338.333 117.131 336.56C117.131 334.787 116.151 333.9 114.191 333.9H111.491ZM121.059 331.98H121.199C121.705 331.98 121.959 332.227 121.959 332.72V345.24C121.959 345.747 121.705 346 121.199 346H121.059C120.779 346 120.579 345.94 120.459 345.82C120.352 345.7 120.299 345.507 120.299 345.24V332.72C120.299 332.453 120.352 332.267 120.459 332.16C120.579 332.04 120.779 331.98 121.059 331.98ZM127.303 335.98C130.13 335.98 131.543 337.293 131.543 339.92V343.88C131.543 344.613 131.823 345.08 132.383 345.28C132.183 345.787 131.81 346.04 131.263 346.04C130.863 346.04 130.543 345.9 130.303 345.62C130.076 345.327 129.963 344.947 129.963 344.48C129.123 345.6 128.036 346.16 126.703 346.16C125.623 346.16 124.77 345.887 124.143 345.34C123.53 344.78 123.223 344.033 123.223 343.1C123.223 342.153 123.583 341.387 124.303 340.8C125.036 340.213 126.023 339.92 127.263 339.92C128.01 339.92 128.636 340 129.143 340.16C129.556 340.307 129.803 340.4 129.883 340.44V339.56C129.883 338.747 129.676 338.173 129.263 337.84C128.85 337.493 128.223 337.32 127.383 337.32C126.196 337.32 125.276 337.773 124.623 338.68C124.063 338.6 123.783 338.34 123.783 337.9C123.783 337.393 124.13 336.947 124.823 336.56C125.516 336.173 126.343 335.98 127.303 335.98ZM129.883 341.72C129.043 341.347 128.216 341.16 127.403 341.16C126.59 341.16 125.963 341.333 125.523 341.68C125.083 342.027 124.863 342.48 124.863 343.04C124.863 343.587 125.05 344.027 125.423 344.36C125.81 344.68 126.37 344.84 127.103 344.84C127.85 344.84 128.496 344.573 129.043 344.04C129.603 343.507 129.883 342.86 129.883 342.1V341.72ZM134.047 336.14H134.187C134.693 336.14 134.947 336.393 134.947 336.9V337.88C135.2 337.373 135.6 336.927 136.147 336.54C136.693 336.153 137.32 335.96 138.027 335.96C139.107 335.96 139.987 336.287 140.667 336.94C141.36 337.58 141.707 338.6 141.707 340V345.24C141.707 345.507 141.647 345.7 141.527 345.82C141.407 345.94 141.213 346 140.947 346H140.787C140.293 346 140.047 345.747 140.047 345.24V340.06C140.047 339.087 139.84 338.393 139.427 337.98C139.013 337.567 138.413 337.36 137.627 337.36C136.84 337.36 136.2 337.68 135.707 338.32C135.213 338.96 134.967 339.807 134.967 340.86V345.24C134.967 345.747 134.707 346 134.187 346H134.047C133.78 346 133.587 345.94 133.467 345.82C133.347 345.7 133.287 345.507 133.287 345.24V336.9C133.287 336.393 133.54 336.14 134.047 336.14ZM147.479 335.96C148.466 335.96 149.619 336.167 150.939 336.58C151.406 336.74 151.639 337.067 151.639 337.56V349.78C151.639 350.273 151.386 350.52 150.879 350.52H150.719C150.213 350.52 149.959 350.273 149.959 349.78V344.54C149.666 345.047 149.233 345.44 148.659 345.72C148.086 346 147.473 346.14 146.819 346.14C145.633 346.14 144.653 345.74 143.879 344.94C143.106 344.127 142.719 342.88 142.719 341.2C142.719 339.52 143.173 338.227 144.079 337.32C144.999 336.413 146.133 335.96 147.479 335.96ZM147.379 337.34C146.499 337.34 145.779 337.673 145.219 338.34C144.659 339.007 144.379 339.973 144.379 341.24C144.379 343.587 145.346 344.76 147.279 344.76C148.213 344.76 148.893 344.413 149.319 343.72C149.746 343.027 149.959 342.18 149.959 341.18V337.94C149.826 337.847 149.493 337.727 148.959 337.58C148.439 337.42 147.913 337.34 147.379 337.34ZM153.946 336.16H154.086C154.592 336.16 154.846 336.407 154.846 336.9V342.04C154.846 343.867 155.652 344.78 157.266 344.78C157.879 344.78 158.392 344.6 158.806 344.24C159.552 343.6 159.926 342.64 159.926 341.36V336.9C159.926 336.407 160.186 336.16 160.706 336.16H160.846C161.112 336.16 161.299 336.22 161.406 336.34C161.526 336.447 161.586 336.633 161.586 336.9V345.26C161.586 345.527 161.526 345.72 161.406 345.84C161.286 345.947 161.092 346 160.826 346H160.706C160.186 346 159.926 345.753 159.926 345.26V344.26C159.739 344.687 159.339 345.113 158.726 345.54C158.126 345.953 157.479 346.16 156.786 346.16C154.386 346.16 153.186 344.82 153.186 342.14V336.9C153.186 336.407 153.439 336.16 153.946 336.16ZM162.778 341.1C162.778 339.433 163.244 338.16 164.178 337.28C165.111 336.4 166.184 335.96 167.398 335.96C168.611 335.96 169.571 336.273 170.278 336.9C170.984 337.513 171.338 338.28 171.338 339.2C171.338 340.12 170.971 340.84 170.238 341.36C169.518 341.867 168.584 342.12 167.438 342.12C166.291 342.12 165.258 341.94 164.338 341.58C164.338 342.553 164.671 343.34 165.338 343.94C166.004 344.527 166.818 344.82 167.778 344.82C169.271 344.82 170.204 344.36 170.578 343.44C170.804 343.44 170.998 343.507 171.158 343.64C171.318 343.76 171.398 343.94 171.398 344.18C171.398 344.647 171.051 345.093 170.358 345.52C169.678 345.947 168.811 346.16 167.758 346.16C166.344 346.16 165.158 345.733 164.198 344.88C163.251 344.027 162.778 342.767 162.778 341.1ZM169.818 339.14C169.818 338.62 169.591 338.18 169.138 337.82C168.698 337.46 168.084 337.28 167.298 337.28C166.524 337.28 165.844 337.593 165.258 338.22C164.671 338.847 164.371 339.553 164.358 340.34C165.318 340.66 166.271 340.82 167.217 340.82C168.951 340.82 169.818 340.26 169.818 339.14ZM174.11 333.48H174.25C174.757 333.48 175.01 333.727 175.01 334.22V336.2H177.77C178.29 336.2 178.55 336.427 178.55 336.88C178.55 337.333 178.29 337.56 177.77 337.56H175.01V342.6C175.01 343.44 175.17 344.033 175.49 344.38C175.824 344.713 176.304 344.88 176.93 344.88C177.57 344.88 178.044 344.727 178.35 344.42C178.684 344.527 178.85 344.74 178.85 345.06C178.85 345.38 178.63 345.647 178.19 345.86C177.75 346.06 177.224 346.16 176.61 346.16C174.437 346.16 173.35 344.973 173.35 342.6V337.56H172.37C172.077 337.56 171.864 337.513 171.73 337.42C171.597 337.327 171.53 337.147 171.53 336.88C171.53 336.427 171.81 336.2 172.37 336.2H173.35V334.22C173.35 333.727 173.604 333.48 174.11 333.48ZM180.938 333.48H181.078C181.584 333.48 181.838 333.727 181.838 334.22V336.2H184.598C185.118 336.2 185.378 336.427 185.378 336.88C185.378 337.333 185.118 337.56 184.598 337.56H181.838V342.6C181.838 343.44 181.998 344.033 182.318 344.38C182.651 344.713 183.131 344.88 183.758 344.88C184.398 344.88 184.871 344.727 185.178 344.42C185.511 344.527 185.678 344.74 185.678 345.06C185.678 345.38 185.458 345.647 185.018 345.86C184.578 346.06 184.051 346.16 183.438 346.16C181.264 346.16 180.178 344.973 180.178 342.6V337.56H179.198C178.904 337.56 178.691 337.513 178.558 337.42C178.424 337.327 178.358 337.147 178.358 336.88C178.358 336.427 178.638 336.2 179.198 336.2H180.178V334.22C180.178 333.727 180.431 333.48 180.938 333.48ZM185.525 341.1C185.525 339.433 185.992 338.16 186.925 337.28C187.858 336.4 188.932 335.96 190.145 335.96C191.358 335.96 192.318 336.273 193.025 336.9C193.732 337.513 194.085 338.28 194.085 339.2C194.085 340.12 193.718 340.84 192.985 341.36C192.265 341.867 191.332 342.12 190.185 342.12C189.038 342.12 188.005 341.94 187.085 341.58C187.085 342.553 187.418 343.34 188.085 343.94C188.752 344.527 189.565 344.82 190.525 344.82C192.018 344.82 192.952 344.36 193.325 343.44C193.552 343.44 193.745 343.507 193.905 343.64C194.065 343.76 194.145 343.94 194.145 344.18C194.145 344.647 193.798 345.093 193.105 345.52C192.425 345.947 191.558 346.16 190.505 346.16C189.092 346.16 187.905 345.733 186.945 344.88C185.998 344.027 185.525 342.767 185.525 341.1ZM192.565 339.14C192.565 338.62 192.338 338.18 191.885 337.82C191.445 337.46 190.832 337.28 190.045 337.28C189.272 337.28 188.592 337.593 188.005 338.22C187.418 338.847 187.118 339.553 187.105 340.34C188.065 340.66 189.018 340.82 189.965 340.82C191.698 340.82 192.565 340.26 192.565 339.14ZM209.025 339.3L209.145 339.24C209.999 339.693 210.425 340.42 210.425 341.42C210.425 342.247 210.239 343.007 209.865 343.7C210.399 344.26 210.765 344.66 210.965 344.9C211.165 345.127 211.305 345.287 211.385 345.38C211.465 345.473 211.505 345.58 211.505 345.7C211.505 345.9 211.365 346 211.085 346H210.485C210.232 346 209.932 345.833 209.585 345.5C209.252 345.153 209.039 344.94 208.945 344.86C208.025 345.793 206.772 346.26 205.185 346.26C203.599 346.26 202.365 345.88 201.485 345.12C200.619 344.36 200.185 343.467 200.185 342.44C200.185 341.627 200.419 340.92 200.885 340.32C201.365 339.72 202.099 339.147 203.085 338.6C202.459 337.973 202.005 337.447 201.725 337.02C201.459 336.58 201.325 336.073 201.325 335.5C201.325 334.607 201.632 333.84 202.245 333.2C202.872 332.56 203.699 332.24 204.725 332.24C205.752 332.24 206.592 332.567 207.245 333.22C207.899 333.86 208.225 334.593 208.225 335.42C208.225 336.233 207.965 336.893 207.445 337.4C206.939 337.907 206.199 338.407 205.225 338.9C207.599 341.433 208.812 342.727 208.865 342.78C209.159 342.233 209.305 341.68 209.305 341.12C209.305 340.547 209.212 339.94 209.025 339.3ZM205.065 344.96C206.372 344.96 207.359 344.593 208.025 343.86L203.925 339.6C202.512 340.24 201.805 341.187 201.805 342.44C201.805 343.107 202.099 343.693 202.685 344.2C203.272 344.707 204.065 344.96 205.065 344.96ZM202.925 335.5C202.925 336.207 203.432 337.02 204.445 337.94C205.232 337.553 205.805 337.187 206.165 336.84C206.539 336.493 206.725 336.06 206.725 335.54C206.725 335.007 206.539 334.567 206.165 334.22C205.805 333.86 205.339 333.68 204.765 333.68C204.192 333.68 203.739 333.847 203.405 334.18C203.085 334.513 202.925 334.953 202.925 335.5ZM218.818 332.42H225.718C226.211 332.42 226.458 332.673 226.458 333.18C226.458 333.673 226.211 333.92 225.718 333.92H219.778V338.2H225.058C225.551 338.2 225.798 338.453 225.798 338.96C225.798 339.453 225.551 339.7 225.058 339.7H219.778V344.5H225.718C226.211 344.5 226.458 344.753 226.458 345.26C226.458 345.753 226.211 346 225.718 346H218.818C218.298 346 218.038 345.747 218.038 345.24V333.18C218.038 332.673 218.298 332.42 218.818 332.42ZM228.701 331.98H228.841C229.348 331.98 229.601 332.227 229.601 332.72V345.24C229.601 345.747 229.348 346 228.841 346H228.701C228.421 346 228.221 345.94 228.101 345.82C227.994 345.7 227.941 345.507 227.941 345.24V332.72C227.941 332.453 227.994 332.267 228.101 332.16C228.221 332.04 228.421 331.98 228.701 331.98ZM232.245 337.3C233.192 336.407 234.352 335.96 235.725 335.96C237.098 335.96 238.258 336.407 239.205 337.3C240.152 338.193 240.625 339.453 240.625 341.08C240.625 342.707 240.152 343.96 239.205 344.84C238.258 345.72 237.098 346.16 235.725 346.16C234.352 346.16 233.192 345.72 232.245 344.84C231.298 343.96 230.825 342.707 230.825 341.08C230.825 339.453 231.298 338.193 232.245 337.3ZM238.025 338.32C237.438 337.667 236.672 337.34 235.725 337.34C234.778 337.34 234.005 337.667 233.405 338.32C232.818 338.96 232.525 339.88 232.525 341.08C232.525 342.267 232.818 343.187 233.405 343.84C234.005 344.48 234.778 344.8 235.725 344.8C236.672 344.8 237.438 344.48 238.025 343.84C238.625 343.187 238.925 342.267 238.925 341.08C238.925 339.88 238.625 338.96 238.025 338.32ZM242.83 336.14H242.95C243.456 336.14 243.71 336.387 243.71 336.88V345.24C243.71 345.747 243.456 346 242.95 346H242.83C242.323 346 242.07 345.747 242.07 345.24V336.88C242.07 336.387 242.323 336.14 242.83 336.14ZM241.79 333.32C241.79 333.013 241.896 332.753 242.11 332.54C242.323 332.313 242.576 332.2 242.87 332.2C243.176 332.2 243.436 332.313 243.65 332.54C243.876 332.753 243.99 333.013 243.99 333.32C243.99 333.613 243.883 333.873 243.67 334.1C243.456 334.313 243.196 334.42 242.89 334.42C242.583 334.42 242.323 334.313 242.11 334.1C241.896 333.887 241.79 333.627 241.79 333.32ZM245.364 338.88C245.364 337.973 245.751 337.26 246.524 336.74C247.311 336.207 248.184 335.94 249.144 335.94C250.104 335.94 250.844 336.08 251.364 336.36C251.897 336.627 252.164 336.947 252.164 337.32C252.164 337.693 251.904 337.967 251.384 338.14C251.291 337.927 251.031 337.727 250.604 337.54C250.191 337.353 249.677 337.26 249.064 337.26C248.451 337.26 247.944 337.38 247.544 337.62C247.157 337.847 246.964 338.173 246.964 338.6C246.964 339.013 247.111 339.333 247.404 339.56C247.697 339.787 248.384 340.027 249.464 340.28C250.557 340.52 251.391 340.873 251.964 341.34C252.537 341.807 252.824 342.46 252.824 343.3C252.824 344.14 252.437 344.827 251.664 345.36C250.891 345.88 249.937 346.14 248.804 346.14C247.684 346.14 246.784 346 246.104 345.72C245.437 345.427 245.104 345.047 245.104 344.58C245.104 344.113 245.324 343.773 245.764 343.56C245.951 343.92 246.311 344.227 246.844 344.48C247.377 344.733 248.044 344.86 248.844 344.86C249.644 344.86 250.251 344.713 250.664 344.42C251.091 344.127 251.304 343.767 251.304 343.34C251.304 342.9 251.111 342.56 250.724 342.32C250.351 342.067 249.611 341.82 248.504 341.58C247.411 341.34 246.611 341 246.104 340.56C245.611 340.107 245.364 339.547 245.364 338.88ZM253.202 341.1C253.202 339.433 253.668 338.16 254.602 337.28C255.535 336.4 256.608 335.96 257.822 335.96C259.035 335.96 259.995 336.273 260.702 336.9C261.408 337.513 261.762 338.28 261.762 339.2C261.762 340.12 261.395 340.84 260.662 341.36C259.942 341.867 259.008 342.12 257.862 342.12C256.715 342.12 255.682 341.94 254.762 341.58C254.762 342.553 255.095 343.34 255.762 343.94C256.428 344.527 257.242 344.82 258.202 344.82C259.695 344.82 260.628 344.36 261.002 343.44C261.228 343.44 261.422 343.507 261.582 343.64C261.742 343.76 261.822 343.94 261.822 344.18C261.822 344.647 261.475 345.093 260.782 345.52C260.102 345.947 259.235 346.16 258.182 346.16C256.768 346.16 255.582 345.733 254.622 344.88C253.675 344.027 253.202 342.767 253.202 341.1ZM260.242 339.14C260.242 338.62 260.015 338.18 259.562 337.82C259.122 337.46 258.508 337.28 257.722 337.28C256.948 337.28 256.268 337.593 255.682 338.22C255.095 338.847 254.795 339.553 254.782 340.34C255.742 340.66 256.695 340.82 257.642 340.82C259.375 340.82 260.242 340.26 260.242 339.14ZM269.422 332.42H269.602C270.122 332.42 270.382 332.673 270.382 333.18V344.5H276.542C277.049 344.5 277.302 344.753 277.302 345.26C277.302 345.753 277.049 346 276.542 346H269.422C268.902 346 268.642 345.747 268.642 345.24V333.18C268.642 332.673 268.902 332.42 269.422 332.42ZM277.649 341.1C277.649 339.433 278.115 338.16 279.049 337.28C279.982 336.4 281.055 335.96 282.269 335.96C283.482 335.96 284.442 336.273 285.149 336.9C285.855 337.513 286.209 338.28 286.209 339.2C286.209 340.12 285.842 340.84 285.109 341.36C284.389 341.867 283.455 342.12 282.309 342.12C281.162 342.12 280.129 341.94 279.209 341.58C279.209 342.553 279.542 343.34 280.209 343.94C280.875 344.527 281.689 344.82 282.649 344.82C284.142 344.82 285.075 344.36 285.449 343.44C285.675 343.44 285.869 343.507 286.029 343.64C286.189 343.76 286.269 343.94 286.269 344.18C286.269 344.647 285.922 345.093 285.229 345.52C284.549 345.947 283.682 346.16 282.629 346.16C281.215 346.16 280.029 345.733 279.069 344.88C278.122 344.027 277.649 342.767 277.649 341.1ZM284.689 339.14C284.689 338.62 284.462 338.18 284.009 337.82C283.569 337.46 282.955 337.28 282.169 337.28C281.395 337.28 280.715 337.593 280.129 338.22C279.542 338.847 279.242 339.553 279.229 340.34C280.189 340.66 281.142 340.82 282.089 340.82C283.822 340.82 284.689 340.26 284.689 339.14ZM292.142 331.64C292.755 331.64 293.262 331.78 293.662 332.06C294.075 332.34 294.282 332.693 294.282 333.12C294.282 333.533 294.068 333.813 293.642 333.96C293.308 333.4 292.775 333.12 292.042 333.12C290.655 333.12 289.962 334.08 289.962 336V336.2H292.422C292.928 336.2 293.182 336.427 293.182 336.88C293.182 337.32 292.928 337.54 292.422 337.54H289.962V345.34C289.962 345.607 289.902 345.8 289.782 345.92C289.662 346.027 289.468 346.08 289.202 346.08H289.102C288.822 346.08 288.622 346.027 288.502 345.92C288.382 345.8 288.322 345.607 288.322 345.34V337.54H287.282C287.002 337.54 286.802 337.5 286.682 337.42C286.575 337.327 286.522 337.147 286.522 336.88C286.522 336.613 286.582 336.433 286.702 336.34C286.822 336.247 287.015 336.2 287.282 336.2H288.322V335.56C288.322 334.32 288.662 333.36 289.342 332.68C290.022 331.987 290.955 331.64 292.142 331.64ZM293.022 341.1C293.022 339.433 293.489 338.16 294.422 337.28C295.355 336.4 296.429 335.96 297.642 335.96C298.855 335.96 299.815 336.273 300.522 336.9C301.229 337.513 301.582 338.28 301.582 339.2C301.582 340.12 301.215 340.84 300.482 341.36C299.762 341.867 298.829 342.12 297.682 342.12C296.535 342.12 295.502 341.94 294.582 341.58C294.582 342.553 294.915 343.34 295.582 343.94C296.249 344.527 297.062 344.82 298.022 344.82C299.515 344.82 300.449 344.36 300.822 343.44C301.049 343.44 301.242 343.507 301.402 343.64C301.562 343.76 301.642 343.94 301.642 344.18C301.642 344.647 301.295 345.093 300.602 345.52C299.922 345.947 299.055 346.16 298.002 346.16C296.589 346.16 295.402 345.733 294.442 344.88C293.495 344.027 293.022 342.767 293.022 341.1ZM300.062 339.14C300.062 338.62 299.835 338.18 299.382 337.82C298.942 337.46 298.329 337.28 297.542 337.28C296.769 337.28 296.089 337.593 295.502 338.22C294.915 338.847 294.615 339.553 294.602 340.34C295.562 340.66 296.515 340.82 297.462 340.82C299.195 340.82 300.062 340.26 300.062 339.14ZM303.475 331.98H303.635C304.142 331.98 304.395 332.227 304.395 332.72V337.5C304.662 337.047 305.075 336.673 305.635 336.38C306.195 336.087 306.808 335.94 307.475 335.94C308.715 335.94 309.715 336.36 310.475 337.2C311.248 338.027 311.635 339.293 311.635 341C311.635 342.693 311.182 343.98 310.275 344.86C309.368 345.727 308.288 346.16 307.035 346.16C305.795 346.16 304.555 345.927 303.315 345.46C303.115 345.38 302.968 345.28 302.875 345.16C302.782 345.04 302.735 344.86 302.735 344.62V332.72C302.735 332.227 302.982 331.98 303.475 331.98ZM307.295 337.36C306.455 337.36 305.762 337.693 305.215 338.36C304.668 339.013 304.395 339.88 304.395 340.96V344.16C305.142 344.56 305.982 344.76 306.915 344.76C307.848 344.76 308.588 344.447 309.135 343.82C309.695 343.193 309.975 342.253 309.975 341C309.975 338.573 309.082 337.36 307.295 337.36ZM312.681 336.16H313.141C313.568 336.16 313.828 336.367 313.921 336.78C314.801 340.22 315.648 342.76 316.461 344.4H316.701C317.515 342.76 318.361 340.22 319.241 336.78C319.335 336.367 319.595 336.16 320.021 336.16H320.481C320.895 336.16 321.101 336.307 321.101 336.6C321.101 336.68 321.081 336.773 321.041 336.88C320.015 340.387 319.015 343.1 318.041 345.02C317.868 345.367 317.688 345.62 317.501 345.78C317.315 345.927 317.041 346 316.681 346H316.501C316.128 346 315.848 345.927 315.661 345.78C315.475 345.62 315.295 345.367 315.121 345.02C314.148 343.1 313.148 340.387 312.121 336.88C312.081 336.773 312.061 336.68 312.061 336.6C312.061 336.307 312.268 336.16 312.681 336.16ZM322.697 336.14H322.817C323.323 336.14 323.577 336.387 323.577 336.88V337.96C323.803 337.453 324.163 337 324.657 336.6C325.163 336.2 325.703 336 326.277 336C326.85 336 327.283 336.113 327.577 336.34C327.883 336.567 328.037 336.847 328.037 337.18C328.037 337.5 327.897 337.753 327.617 337.94C327.203 337.593 326.763 337.42 326.297 337.42C325.47 337.42 324.817 337.76 324.337 338.44C323.857 339.107 323.617 339.947 323.617 340.96V345.24C323.617 345.507 323.557 345.7 323.437 345.82C323.317 345.94 323.123 346 322.857 346H322.697C322.43 346 322.237 345.94 322.117 345.82C321.997 345.7 321.937 345.507 321.937 345.24V336.88C321.937 336.387 322.19 336.14 322.697 336.14ZM328.046 341.1C328.046 339.433 328.513 338.16 329.446 337.28C330.38 336.4 331.453 335.96 332.666 335.96C333.88 335.96 334.84 336.273 335.546 336.9C336.253 337.513 336.606 338.28 336.606 339.2C336.606 340.12 336.24 340.84 335.506 341.36C334.786 341.867 333.853 342.12 332.706 342.12C331.56 342.12 330.526 341.94 329.606 341.58C329.606 342.553 329.94 343.34 330.606 343.94C331.273 344.527 332.086 344.82 333.046 344.82C334.54 344.82 335.473 344.36 335.846 343.44C336.073 343.44 336.266 343.507 336.426 343.64C336.586 343.76 336.666 343.94 336.666 344.18C336.666 344.647 336.32 345.093 335.626 345.52C334.946 345.947 334.08 346.16 333.026 346.16C331.613 346.16 330.426 345.733 329.466 344.88C328.52 344.027 328.046 342.767 328.046 341.1ZM335.086 339.14C335.086 338.62 334.86 338.18 334.406 337.82C333.966 337.46 333.353 337.28 332.566 337.28C331.793 337.28 331.113 337.593 330.526 338.22C329.94 338.847 329.64 339.553 329.626 340.34C330.586 340.66 331.54 340.82 332.486 340.82C334.22 340.82 335.086 340.26 335.086 339.14Z" fill="black"/>
<path d="M51.88 375.26C53.2933 375.26 54.4533 375.54 55.36 376.1C56.28 376.66 56.74 377.28 56.74 377.96C56.74 378.253 56.6267 378.493 56.4 378.68C56.1867 378.853 55.9 378.94 55.54 378.94C55.1267 377.527 53.9067 376.82 51.88 376.82C50.5467 376.82 49.4133 377.273 48.48 378.18C47.56 379.073 47.1 380.407 47.1 382.18C47.1 383.94 47.5667 385.293 48.5 386.24C49.4333 387.173 50.56 387.64 51.88 387.64C53.9333 387.64 55.24 386.887 55.8 385.38C56.12 385.38 56.3667 385.473 56.54 385.66C56.7267 385.833 56.82 386.067 56.82 386.36C56.82 387.04 56.3533 387.68 55.42 388.28C54.4867 388.867 53.3067 389.16 51.88 389.16C50 389.16 48.4267 388.553 47.16 387.34C45.8933 386.127 45.26 384.407 45.26 382.18C45.26 379.953 45.8933 378.247 47.16 377.06C48.4267 375.86 50 375.26 51.88 375.26ZM59.0444 380.3C59.991 379.407 61.151 378.96 62.5244 378.96C63.8977 378.96 65.0577 379.407 66.0044 380.3C66.951 381.193 67.4244 382.453 67.4244 384.08C67.4244 385.707 66.951 386.96 66.0044 387.84C65.0577 388.72 63.8977 389.16 62.5244 389.16C61.151 389.16 59.991 388.72 59.0444 387.84C58.0977 386.96 57.6244 385.707 57.6244 384.08C57.6244 382.453 58.0977 381.193 59.0444 380.3ZM64.8244 381.32C64.2377 380.667 63.471 380.34 62.5244 380.34C61.5777 380.34 60.8044 380.667 60.2044 381.32C59.6177 381.96 59.3244 382.88 59.3244 384.08C59.3244 385.267 59.6177 386.187 60.2044 386.84C60.8044 387.48 61.5777 387.8 62.5244 387.8C63.471 387.8 64.2377 387.48 64.8244 386.84C65.4244 386.187 65.7244 385.267 65.7244 384.08C65.7244 382.88 65.4244 381.96 64.8244 381.32ZM69.2888 379.14H69.4288C69.9354 379.14 70.1888 379.393 70.1888 379.9V380.88C70.4421 380.373 70.8421 379.927 71.3888 379.54C71.9354 379.153 72.5621 378.96 73.2688 378.96C74.3488 378.96 75.2288 379.287 75.9088 379.94C76.6021 380.58 76.9488 381.6 76.9488 383V388.24C76.9488 388.507 76.8888 388.7 76.7688 388.82C76.6488 388.94 76.4554 389 76.1888 389H76.0288C75.5354 389 75.2888 388.747 75.2888 388.24V383.06C75.2888 382.087 75.0821 381.393 74.6688 380.98C74.2554 380.567 73.6554 380.36 72.8688 380.36C72.0821 380.36 71.4421 380.68 70.9488 381.32C70.4554 381.96 70.2088 382.807 70.2088 383.86V388.24C70.2088 388.747 69.9488 389 69.4288 389H69.2888C69.0221 389 68.8288 388.94 68.7088 388.82C68.5888 388.7 68.5288 388.507 68.5288 388.24V379.9C68.5288 379.393 68.7821 379.14 69.2888 379.14ZM80.0816 376.48H80.2216C80.7282 376.48 80.9816 376.727 80.9816 377.22V379.2H83.7416C84.2616 379.2 84.5216 379.427 84.5216 379.88C84.5216 380.333 84.2616 380.56 83.7416 380.56H80.9816V385.6C80.9816 386.44 81.1416 387.033 81.4616 387.38C81.7949 387.713 82.2749 387.88 82.9016 387.88C83.5416 387.88 84.0149 387.727 84.3216 387.42C84.6549 387.527 84.8216 387.74 84.8216 388.06C84.8216 388.38 84.6016 388.647 84.1616 388.86C83.7216 389.06 83.1949 389.16 82.5816 389.16C80.4082 389.16 79.3216 387.973 79.3216 385.6V380.56H78.3416C78.0482 380.56 77.8349 380.513 77.7016 380.42C77.5682 380.327 77.5016 380.147 77.5016 379.88C77.5016 379.427 77.7816 379.2 78.3416 379.2H79.3216V377.22C79.3216 376.727 79.5749 376.48 80.0816 376.48ZM88.7889 378.98C91.6156 378.98 93.0289 380.293 93.0289 382.92V386.88C93.0289 387.613 93.3089 388.08 93.8689 388.28C93.6689 388.787 93.2956 389.04 92.7489 389.04C92.3489 389.04 92.0289 388.9 91.7889 388.62C91.5622 388.327 91.4489 387.947 91.4489 387.48C90.6089 388.6 89.5222 389.16 88.1889 389.16C87.1089 389.16 86.2556 388.887 85.6289 388.34C85.0156 387.78 84.7089 387.033 84.7089 386.1C84.7089 385.153 85.0689 384.387 85.7889 383.8C86.5222 383.213 87.5089 382.92 88.7489 382.92C89.4956 382.92 90.1222 383 90.6289 383.16C91.0422 383.307 91.2889 383.4 91.3689 383.44V382.56C91.3689 381.747 91.1622 381.173 90.7489 380.84C90.3356 380.493 89.7089 380.32 88.8689 380.32C87.6822 380.32 86.7622 380.773 86.1089 381.68C85.5489 381.6 85.2689 381.34 85.2689 380.9C85.2689 380.393 85.6156 379.947 86.3089 379.56C87.0022 379.173 87.8289 378.98 88.7889 378.98ZM91.3689 384.72C90.5289 384.347 89.7022 384.16 88.8889 384.16C88.0756 384.16 87.4489 384.333 87.0089 384.68C86.5689 385.027 86.3489 385.48 86.3489 386.04C86.3489 386.587 86.5356 387.027 86.9089 387.36C87.2956 387.68 87.8556 387.84 88.5889 387.84C89.3356 387.84 89.9822 387.573 90.5289 387.04C91.0889 386.507 91.3689 385.86 91.3689 385.1V384.72ZM95.7325 380.1C96.2258 379.713 96.7525 379.427 97.3125 379.24C97.8725 379.053 98.5525 378.96 99.3525 378.96C100.153 378.96 100.853 379.14 101.453 379.5C102.066 379.86 102.373 380.247 102.373 380.66C102.373 381.167 102.086 381.453 101.513 381.52C101.379 381.227 101.079 380.96 100.613 380.72C100.146 380.467 99.5925 380.34 98.9525 380.34C98.0592 380.34 97.3192 380.66 96.7325 381.3C96.1458 381.927 95.8525 382.847 95.8525 384.06C95.8525 385.273 96.1525 386.2 96.7525 386.84C97.3525 387.48 98.0725 387.8 98.9125 387.8C100.246 387.8 101.146 387.367 101.613 386.5C101.866 386.5 102.079 386.58 102.253 386.74C102.426 386.887 102.513 387.08 102.513 387.32C102.513 387.787 102.193 388.213 101.553 388.6C100.913 388.973 100.179 389.16 99.3525 389.16C98.5392 389.16 97.8458 389.067 97.2725 388.88C96.7125 388.68 96.1925 388.387 95.7125 388C95.2325 387.6 94.8525 387.067 94.5725 386.4C94.2925 385.733 94.1525 384.96 94.1525 384.08C94.1525 383.187 94.2925 382.4 94.5725 381.72C94.8658 381.027 95.2525 380.487 95.7325 380.1ZM105.095 376.48H105.235C105.742 376.48 105.995 376.727 105.995 377.22V379.2H108.755C109.275 379.2 109.535 379.427 109.535 379.88C109.535 380.333 109.275 380.56 108.755 380.56H105.995V385.6C105.995 386.44 106.155 387.033 106.475 387.38C106.808 387.713 107.288 387.88 107.915 387.88C108.555 387.88 109.028 387.727 109.335 387.42C109.668 387.527 109.835 387.74 109.835 388.06C109.835 388.38 109.615 388.647 109.175 388.86C108.735 389.06 108.208 389.16 107.595 389.16C105.422 389.16 104.335 387.973 104.335 385.6V380.56H103.355C103.062 380.56 102.848 380.513 102.715 380.42C102.582 380.327 102.515 380.147 102.515 379.88C102.515 379.427 102.795 379.2 103.355 379.2H104.335V377.22C104.335 376.727 104.588 376.48 105.095 376.48ZM113.693 388.145C113.693 387.855 113.788 387.62 113.978 387.44C114.168 387.26 114.398 387.17 114.668 387.17C114.948 387.17 115.183 387.26 115.373 387.44C115.563 387.62 115.658 387.855 115.658 388.145C115.658 388.435 115.563 388.67 115.373 388.85C115.183 389.03 114.948 389.12 114.668 389.12C114.398 389.12 114.168 389.03 113.978 388.85C113.788 388.67 113.693 388.435 113.693 388.145ZM113.693 383.075C113.693 382.785 113.788 382.55 113.978 382.37C114.168 382.19 114.398 382.1 114.668 382.1C114.948 382.1 115.183 382.19 115.373 382.37C115.563 382.55 115.658 382.785 115.658 383.075C115.658 383.365 115.563 383.6 115.373 383.78C115.183 383.96 114.948 384.05 114.668 384.05C114.398 384.05 114.168 383.96 113.978 383.78C113.788 383.6 113.693 383.365 113.693 383.075Z" fill="black"/>
<path d="M44 391H108.835V392H44V391Z" fill="black"/>
<path d="M112.718 390.5H116.633V391.25H112.718V390.5Z" fill="black"/>
<path d="M75.34 410.98H75.48C75.9867 410.98 76.24 411.227 76.24 411.72V424.24C76.24 424.747 75.9867 425 75.48 425H75.34C75.06 425 74.86 424.94 74.74 424.82C74.6333 424.7 74.58 424.507 74.58 424.24V411.72C74.58 411.453 74.6333 411.267 74.74 411.16C74.86 411.04 75.06 410.98 75.34 410.98ZM77.4642 420.1C77.4642 418.433 77.9309 417.16 78.8642 416.28C79.7976 415.4 80.8709 414.96 82.0842 414.96C83.2976 414.96 84.2576 415.273 84.9642 415.9C85.6709 416.513 86.0242 417.28 86.0242 418.2C86.0242 419.12 85.6576 419.84 84.9242 420.36C84.2042 420.867 83.2709 421.12 82.1242 421.12C80.9776 421.12 79.9442 420.94 79.0242 420.58C79.0242 421.553 79.3576 422.34 80.0242 422.94C80.6909 423.527 81.5042 423.82 82.4642 423.82C83.9576 423.82 84.8909 423.36 85.2642 422.44C85.4909 422.44 85.6842 422.507 85.8442 422.64C86.0042 422.76 86.0842 422.94 86.0842 423.18C86.0842 423.647 85.7376 424.093 85.0442 424.52C84.3642 424.947 83.4976 425.16 82.4442 425.16C81.0309 425.16 79.8442 424.733 78.8842 423.88C77.9376 423.027 77.4642 421.767 77.4642 420.1ZM84.5042 418.14C84.5042 417.62 84.2776 417.18 83.8242 416.82C83.3842 416.46 82.7709 416.28 81.9842 416.28C81.2109 416.28 80.5309 416.593 79.9442 417.22C79.3576 417.847 79.0576 418.553 79.0442 419.34C80.0042 419.66 80.9576 419.82 81.9042 419.82C83.6376 419.82 84.5042 419.26 84.5042 418.14ZM87.9772 416.3C88.9239 415.407 90.0839 414.96 91.4572 414.96C92.8305 414.96 93.9905 415.407 94.9372 416.3C95.8839 417.193 96.3572 418.453 96.3572 420.08C96.3572 421.707 95.8839 422.96 94.9372 423.84C93.9905 424.72 92.8305 425.16 91.4572 425.16C90.0839 425.16 88.9239 424.72 87.9772 423.84C87.0305 422.96 86.5572 421.707 86.5572 420.08C86.5572 418.453 87.0305 417.193 87.9772 416.3ZM93.7572 417.32C93.1705 416.667 92.4039 416.34 91.4572 416.34C90.5105 416.34 89.7372 416.667 89.1372 417.32C88.5505 417.96 88.2572 418.88 88.2572 420.08C88.2572 421.267 88.5505 422.187 89.1372 422.84C89.7372 423.48 90.5105 423.8 91.4572 423.8C92.4039 423.8 93.1705 423.48 93.7572 422.84C94.3572 422.187 94.6572 421.267 94.6572 420.08C94.6572 418.88 94.3572 417.96 93.7572 417.32ZM97.3016 423.86C97.3016 423.473 97.4282 423.16 97.6816 422.92C97.9349 422.68 98.2416 422.56 98.6016 422.56C98.9749 422.56 99.2882 422.68 99.5416 422.92C99.7949 423.16 99.9216 423.473 99.9216 423.86C99.9216 424.247 99.7949 424.56 99.5416 424.8C99.2882 425.04 98.9749 425.16 98.6016 425.16C98.2416 425.16 97.9349 425.04 97.6816 424.8C97.4282 424.56 97.3016 424.247 97.3016 423.86ZM102.216 415.14H102.356C102.863 415.14 103.116 415.373 103.116 415.84V416.62C103.396 416.153 103.816 415.76 104.376 415.44C104.936 415.12 105.543 414.96 106.196 414.96C107.436 414.96 108.436 415.38 109.196 416.22C109.97 417.047 110.356 418.313 110.356 420.02C110.356 421.713 109.903 422.993 108.996 423.86C108.103 424.727 107.003 425.16 105.696 425.16C104.803 425.16 103.943 424.933 103.116 424.48V428.78C103.116 429.273 102.863 429.52 102.356 429.52H102.216C101.71 429.52 101.456 429.273 101.456 428.78V415.88C101.456 415.387 101.71 415.14 102.216 415.14ZM108.696 420C108.696 418.733 108.43 417.813 107.896 417.24C107.363 416.653 106.643 416.36 105.736 416.36C104.83 416.36 104.163 416.76 103.736 417.56C103.323 418.36 103.116 419.4 103.116 420.68V423.18C103.25 423.273 103.576 423.4 104.096 423.56C104.63 423.707 105.163 423.78 105.696 423.78C106.59 423.78 107.31 423.467 107.856 422.84C108.416 422.213 108.696 421.267 108.696 420ZM112.563 410.98H112.703C113.209 410.98 113.463 411.227 113.463 411.72V424.24C113.463 424.747 113.209 425 112.703 425H112.563C112.283 425 112.083 424.94 111.963 424.82C111.856 424.7 111.803 424.507 111.803 424.24V411.72C111.803 411.453 111.856 411.267 111.963 411.16C112.083 411.04 112.283 410.98 112.563 410.98ZM118.807 414.98C121.634 414.98 123.047 416.293 123.047 418.92V422.88C123.047 423.613 123.327 424.08 123.887 424.28C123.687 424.787 123.314 425.04 122.767 425.04C122.367 425.04 122.047 424.9 121.807 424.62C121.58 424.327 121.467 423.947 121.467 423.48C120.627 424.6 119.54 425.16 118.207 425.16C117.127 425.16 116.274 424.887 115.647 424.34C115.034 423.78 114.727 423.033 114.727 422.1C114.727 421.153 115.087 420.387 115.807 419.8C116.54 419.213 117.527 418.92 118.767 418.92C119.514 418.92 120.14 419 120.647 419.16C121.06 419.307 121.307 419.4 121.387 419.44V418.56C121.387 417.747 121.18 417.173 120.767 416.84C120.354 416.493 119.727 416.32 118.887 416.32C117.7 416.32 116.78 416.773 116.127 417.68C115.567 417.6 115.287 417.34 115.287 416.9C115.287 416.393 115.634 415.947 116.327 415.56C117.02 415.173 117.847 414.98 118.807 414.98ZM121.387 420.72C120.547 420.347 119.72 420.16 118.907 420.16C118.094 420.16 117.467 420.333 117.027 420.68C116.587 421.027 116.367 421.48 116.367 422.04C116.367 422.587 116.554 423.027 116.927 423.36C117.314 423.68 117.874 423.84 118.607 423.84C119.354 423.84 120 423.573 120.547 423.04C121.107 422.507 121.387 421.86 121.387 421.1V420.72ZM125.55 415.14H125.69C126.197 415.14 126.45 415.393 126.45 415.9V416.88C126.704 416.373 127.104 415.927 127.65 415.54C128.197 415.153 128.824 414.96 129.53 414.96C130.61 414.96 131.49 415.287 132.17 415.94C132.864 416.58 133.21 417.6 133.21 419V424.24C133.21 424.507 133.15 424.7 133.03 424.82C132.91 424.94 132.717 425 132.45 425H132.29C131.797 425 131.55 424.747 131.55 424.24V419.06C131.55 418.087 131.344 417.393 130.93 416.98C130.517 416.567 129.917 416.36 129.13 416.36C128.344 416.36 127.704 416.68 127.21 417.32C126.717 417.96 126.47 418.807 126.47 419.86V424.24C126.47 424.747 126.21 425 125.69 425H125.55C125.284 425 125.09 424.94 124.97 424.82C124.85 424.7 124.79 424.507 124.79 424.24V415.9C124.79 415.393 125.044 415.14 125.55 415.14ZM138.983 414.96C139.97 414.96 141.123 415.167 142.443 415.58C142.91 415.74 143.143 416.067 143.143 416.56V428.78C143.143 429.273 142.89 429.52 142.383 429.52H142.223C141.717 429.52 141.463 429.273 141.463 428.78V423.54C141.17 424.047 140.737 424.44 140.163 424.72C139.59 425 138.977 425.14 138.323 425.14C137.137 425.14 136.157 424.74 135.383 423.94C134.61 423.127 134.223 421.88 134.223 420.2C134.223 418.52 134.677 417.227 135.583 416.32C136.503 415.413 137.637 414.96 138.983 414.96ZM138.883 416.34C138.003 416.34 137.283 416.673 136.723 417.34C136.163 418.007 135.883 418.973 135.883 420.24C135.883 422.587 136.85 423.76 138.783 423.76C139.717 423.76 140.397 423.413 140.823 422.72C141.25 422.027 141.463 421.18 141.463 420.18V416.94C141.33 416.847 140.997 416.727 140.463 416.58C139.943 416.42 139.417 416.34 138.883 416.34ZM145.45 415.16H145.59C146.096 415.16 146.35 415.407 146.35 415.9V421.04C146.35 422.867 147.156 423.78 148.77 423.78C149.383 423.78 149.896 423.6 150.31 423.24C151.056 422.6 151.43 421.64 151.43 420.36V415.9C151.43 415.407 151.69 415.16 152.21 415.16H152.35C152.616 415.16 152.803 415.22 152.91 415.34C153.03 415.447 153.09 415.633 153.09 415.9V424.26C153.09 424.527 153.03 424.72 152.91 424.84C152.79 424.947 152.596 425 152.33 425H152.21C151.69 425 151.43 424.753 151.43 424.26V423.26C151.243 423.687 150.843 424.113 150.23 424.54C149.63 424.953 148.983 425.16 148.29 425.16C145.89 425.16 144.69 423.82 144.69 421.14V415.9C144.69 415.407 144.943 415.16 145.45 415.16ZM154.281 420.1C154.281 418.433 154.748 417.16 155.681 416.28C156.615 415.4 157.688 414.96 158.901 414.96C160.115 414.96 161.075 415.273 161.781 415.9C162.488 416.513 162.841 417.28 162.841 418.2C162.841 419.12 162.475 419.84 161.741 420.36C161.021 420.867 160.088 421.12 158.941 421.12C157.795 421.12 156.761 420.94 155.841 420.58C155.841 421.553 156.175 422.34 156.841 422.94C157.508 423.527 158.321 423.82 159.281 423.82C160.775 423.82 161.708 423.36 162.081 422.44C162.308 422.44 162.501 422.507 162.661 422.64C162.821 422.76 162.901 422.94 162.901 423.18C162.901 423.647 162.555 424.093 161.861 424.52C161.181 424.947 160.315 425.16 159.261 425.16C157.848 425.16 156.661 424.733 155.701 423.88C154.755 423.027 154.281 421.767 154.281 420.1ZM161.321 418.14C161.321 417.62 161.095 417.18 160.641 416.82C160.201 416.46 159.588 416.28 158.801 416.28C158.028 416.28 157.348 416.593 156.761 417.22C156.175 417.847 155.875 418.553 155.861 419.34C156.821 419.66 157.775 419.82 158.721 419.82C160.455 419.82 161.321 419.26 161.321 418.14ZM165.614 412.48H165.754C166.261 412.48 166.514 412.727 166.514 413.22V415.2H169.274C169.794 415.2 170.054 415.427 170.054 415.88C170.054 416.333 169.794 416.56 169.274 416.56H166.514V421.6C166.514 422.44 166.674 423.033 166.994 423.38C167.328 423.713 167.808 423.88 168.434 423.88C169.074 423.88 169.548 423.727 169.854 423.42C170.188 423.527 170.354 423.74 170.354 424.06C170.354 424.38 170.134 424.647 169.694 424.86C169.254 425.06 168.728 425.16 168.114 425.16C165.941 425.16 164.854 423.973 164.854 421.6V416.56H163.874C163.581 416.56 163.368 416.513 163.234 416.42C163.101 416.327 163.034 416.147 163.034 415.88C163.034 415.427 163.314 415.2 163.874 415.2H164.854V413.22C164.854 412.727 165.108 412.48 165.614 412.48ZM172.442 412.48H172.582C173.088 412.48 173.342 412.727 173.342 413.22V415.2H176.102C176.622 415.2 176.882 415.427 176.882 415.88C176.882 416.333 176.622 416.56 176.102 416.56H173.342V421.6C173.342 422.44 173.502 423.033 173.822 423.38C174.155 423.713 174.635 423.88 175.262 423.88C175.902 423.88 176.375 423.727 176.682 423.42C177.015 423.527 177.182 423.74 177.182 424.06C177.182 424.38 176.962 424.647 176.522 424.86C176.082 425.06 175.555 425.16 174.942 425.16C172.768 425.16 171.682 423.973 171.682 421.6V416.56H170.702C170.408 416.56 170.195 416.513 170.062 416.42C169.928 416.327 169.862 416.147 169.862 415.88C169.862 415.427 170.142 415.2 170.702 415.2H171.682V413.22C171.682 412.727 171.935 412.48 172.442 412.48ZM177.029 420.1C177.029 418.433 177.496 417.16 178.429 416.28C179.362 415.4 180.436 414.96 181.649 414.96C182.862 414.96 183.822 415.273 184.529 415.9C185.236 416.513 185.589 417.28 185.589 418.2C185.589 419.12 185.222 419.84 184.489 420.36C183.769 420.867 182.836 421.12 181.689 421.12C180.542 421.12 179.509 420.94 178.589 420.58C178.589 421.553 178.922 422.34 179.589 422.94C180.256 423.527 181.069 423.82 182.029 423.82C183.522 423.82 184.456 423.36 184.829 422.44C185.056 422.44 185.249 422.507 185.409 422.64C185.569 422.76 185.649 422.94 185.649 423.18C185.649 423.647 185.302 424.093 184.609 424.52C183.929 424.947 183.062 425.16 182.009 425.16C180.596 425.16 179.409 424.733 178.449 423.88C177.502 423.027 177.029 421.767 177.029 420.1ZM184.069 418.14C184.069 417.62 183.842 417.18 183.389 416.82C182.949 416.46 182.336 416.28 181.549 416.28C180.776 416.28 180.096 416.593 179.509 417.22C178.922 417.847 178.622 418.553 178.609 419.34C179.569 419.66 180.522 419.82 181.469 419.82C183.202 419.82 184.069 419.26 184.069 418.14ZM192.742 422.18C191.742 422.18 190.935 421.853 190.322 421.2C189.722 420.547 189.422 419.633 189.422 418.46C189.422 417.273 189.749 416.367 190.402 415.74C191.055 415.1 191.842 414.78 192.762 414.78C193.695 414.78 194.469 414.887 195.082 415.1C195.695 415.313 196.002 415.667 196.002 416.16V419.96C196.002 420.24 196.075 420.453 196.222 420.6C196.382 420.747 196.582 420.82 196.822 420.82C197.689 420.82 198.122 419.973 198.122 418.28C198.122 416.587 197.622 415.26 196.622 414.3C195.635 413.34 194.455 412.86 193.082 412.86C191.722 412.86 190.542 413.34 189.542 414.3C188.555 415.26 188.062 416.613 188.062 418.36C188.062 420.107 188.522 421.473 189.442 422.46C190.375 423.447 191.509 423.94 192.842 423.94C194.402 423.94 195.295 423.553 195.522 422.78C195.975 422.847 196.202 423.107 196.202 423.56C196.202 424 195.909 424.407 195.322 424.78C194.735 425.14 193.895 425.32 192.802 425.32C190.989 425.32 189.475 424.707 188.262 423.48C187.049 422.253 186.442 420.547 186.442 418.36C186.442 416.88 186.769 415.6 187.422 414.52C188.075 413.427 188.895 412.627 189.882 412.12C190.869 411.613 191.862 411.36 192.862 411.36C193.862 411.36 194.755 411.513 195.542 411.82C196.329 412.113 197.035 412.547 197.662 413.12C198.289 413.68 198.789 414.413 199.162 415.32C199.549 416.227 199.742 417.28 199.742 418.48C199.742 419.68 199.455 420.6 198.882 421.24C198.322 421.88 197.615 422.2 196.762 422.2C196.255 422.2 195.829 422.1 195.482 421.9C195.149 421.7 194.922 421.5 194.802 421.3C194.615 421.553 194.329 421.767 193.942 421.94C193.569 422.1 193.169 422.18 192.742 422.18ZM194.502 420.16V416.36C194.075 416.187 193.555 416.1 192.942 416.1C192.342 416.1 191.855 416.293 191.482 416.68C191.109 417.053 190.922 417.653 190.922 418.48C190.922 419.293 191.102 419.9 191.462 420.3C191.822 420.687 192.315 420.88 192.942 420.88C193.262 420.88 193.549 420.833 193.802 420.74C194.055 420.633 194.235 420.527 194.342 420.42C194.449 420.313 194.502 420.227 194.502 420.16ZM204.571 422.14L203.671 422.1C203.351 422.1 203.077 422.187 202.851 422.36C202.624 422.52 202.511 422.7 202.511 422.9C202.511 423.407 202.937 423.66 203.791 423.66H205.271C208.111 423.66 209.531 424.533 209.531 426.28C209.531 427.2 209.084 427.947 208.191 428.52C207.311 429.093 206.177 429.407 204.791 429.46H204.311C203.177 429.46 202.211 429.233 201.411 428.78C200.611 428.327 200.211 427.793 200.211 427.18C200.211 426.887 200.277 426.653 200.411 426.48C200.557 426.307 200.744 426.207 200.971 426.18C201.224 426.7 201.671 427.133 202.311 427.48C202.951 427.827 203.704 428 204.571 428H204.711C205.711 428 206.491 427.847 207.051 427.54C207.624 427.233 207.911 426.847 207.911 426.38C207.911 425.927 207.657 425.593 207.151 425.38C206.657 425.18 205.797 425.08 204.571 425.08C203.357 425.08 202.444 424.96 201.831 424.72C201.217 424.48 200.911 424.013 200.911 423.32C200.911 422.627 201.397 422.08 202.371 421.68C201.211 421.027 200.631 419.987 200.631 418.56C200.631 417.427 201.017 416.547 201.791 415.92C202.564 415.293 203.517 414.98 204.651 414.98C205.224 414.98 205.751 415.1 206.231 415.34C206.724 415.58 207.097 415.84 207.351 416.12C207.857 415.787 208.111 415.18 208.111 414.3C208.471 414.3 208.791 414.413 209.071 414.64C209.351 414.853 209.491 415.127 209.491 415.46C209.491 416.127 208.997 416.607 208.011 416.9C208.304 417.3 208.451 417.887 208.451 418.66C208.451 419.793 208.077 420.66 207.331 421.26C206.597 421.847 205.677 422.14 204.571 422.14ZM206.251 416.84C205.811 416.453 205.251 416.26 204.571 416.26C203.891 416.26 203.324 416.453 202.871 416.84C202.417 417.213 202.191 417.793 202.191 418.58C202.191 419.367 202.417 419.953 202.871 420.34C203.324 420.713 203.891 420.9 204.571 420.9C205.251 420.9 205.811 420.713 206.251 420.34C206.704 419.953 206.931 419.367 206.931 418.58C206.931 417.793 206.704 417.213 206.251 416.84ZM211.137 415.14H211.257C211.777 415.14 212.037 415.393 212.037 415.9V416.74C212.651 415.58 213.591 415 214.857 415C215.671 415 216.344 415.22 216.877 415.66C217.424 416.087 217.797 416.687 217.997 417.46C218.211 416.687 218.604 416.08 219.177 415.64C219.751 415.2 220.411 414.98 221.157 414.98C223.451 414.98 224.597 416.32 224.597 419V424.26C224.597 424.753 224.331 425 223.797 425H223.677C223.171 425 222.917 424.753 222.917 424.26V419.1C222.917 417.273 222.224 416.36 220.837 416.36C219.864 416.36 219.197 416.713 218.837 417.42C218.491 418.127 218.317 419.087 218.317 420.3V424.26C218.317 424.753 218.057 425 217.537 425H217.397C216.891 425 216.637 424.753 216.637 424.26V419.1C216.637 417.273 215.937 416.36 214.537 416.36C212.871 416.36 212.037 417.653 212.037 420.24V424.26C212.037 424.753 211.777 425 211.257 425H211.137C210.631 425 210.377 424.753 210.377 424.26V415.9C210.377 415.393 210.631 415.14 211.137 415.14ZM229.611 414.98C232.437 414.98 233.851 416.293 233.851 418.92V422.88C233.851 423.613 234.131 424.08 234.691 424.28C234.491 424.787 234.117 425.04 233.571 425.04C233.171 425.04 232.851 424.9 232.611 424.62C232.384 424.327 232.271 423.947 232.271 423.48C231.431 424.6 230.344 425.16 229.011 425.16C227.931 425.16 227.077 424.887 226.451 424.34C225.837 423.78 225.531 423.033 225.531 422.1C225.531 421.153 225.891 420.387 226.611 419.8C227.344 419.213 228.331 418.92 229.571 418.92C230.317 418.92 230.944 419 231.451 419.16C231.864 419.307 232.111 419.4 232.191 419.44V418.56C232.191 417.747 231.984 417.173 231.571 416.84C231.157 416.493 230.531 416.32 229.691 416.32C228.504 416.32 227.584 416.773 226.931 417.68C226.371 417.6 226.091 417.34 226.091 416.9C226.091 416.393 226.437 415.947 227.131 415.56C227.824 415.173 228.651 414.98 229.611 414.98ZM232.191 420.72C231.351 420.347 230.524 420.16 229.711 420.16C228.897 420.16 228.271 420.333 227.831 420.68C227.391 421.027 227.171 421.48 227.171 422.04C227.171 422.587 227.357 423.027 227.731 423.36C228.117 423.68 228.677 423.84 229.411 423.84C230.157 423.84 230.804 423.573 231.351 423.04C231.911 422.507 232.191 421.86 232.191 421.1V420.72ZM236.694 415.14H236.814C237.321 415.14 237.574 415.387 237.574 415.88V424.24C237.574 424.747 237.321 425 236.814 425H236.694C236.188 425 235.934 424.747 235.934 424.24V415.88C235.934 415.387 236.188 415.14 236.694 415.14ZM235.654 412.32C235.654 412.013 235.761 411.753 235.974 411.54C236.188 411.313 236.441 411.2 236.734 411.2C237.041 411.2 237.301 411.313 237.514 411.54C237.741 411.753 237.854 412.013 237.854 412.32C237.854 412.613 237.748 412.873 237.534 413.1C237.321 413.313 237.061 413.42 236.754 413.42C236.448 413.42 236.188 413.313 235.974 413.1C235.761 412.887 235.654 412.627 235.654 412.32ZM240.509 410.98H240.649C241.155 410.98 241.409 411.227 241.409 411.72V424.24C241.409 424.747 241.155 425 240.649 425H240.509C240.229 425 240.029 424.94 239.909 424.82C239.802 424.7 239.749 424.507 239.749 424.24V411.72C239.749 411.453 239.802 411.267 239.909 411.16C240.029 411.04 240.229 410.98 240.509 410.98ZM243.093 423.86C243.093 423.473 243.22 423.16 243.473 422.92C243.726 422.68 244.033 422.56 244.393 422.56C244.766 422.56 245.08 422.68 245.333 422.92C245.586 423.16 245.713 423.473 245.713 423.86C245.713 424.247 245.586 424.56 245.333 424.8C245.08 425.04 244.766 425.16 244.393 425.16C244.033 425.16 243.726 425.04 243.473 424.8C243.22 424.56 243.093 424.247 243.093 423.86ZM248.228 416.1C248.721 415.713 249.248 415.427 249.808 415.24C250.368 415.053 251.048 414.96 251.848 414.96C252.648 414.96 253.348 415.14 253.948 415.5C254.561 415.86 254.868 416.247 254.868 416.66C254.868 417.167 254.581 417.453 254.008 417.52C253.874 417.227 253.574 416.96 253.108 416.72C252.641 416.467 252.088 416.34 251.448 416.34C250.554 416.34 249.814 416.66 249.228 417.3C248.641 417.927 248.348 418.847 248.348 420.06C248.348 421.273 248.648 422.2 249.248 422.84C249.848 423.48 250.568 423.8 251.408 423.8C252.741 423.8 253.641 423.367 254.108 422.5C254.361 422.5 254.574 422.58 254.748 422.74C254.921 422.887 255.008 423.08 255.008 423.32C255.008 423.787 254.688 424.213 254.048 424.6C253.408 424.973 252.674 425.16 251.848 425.16C251.034 425.16 250.341 425.067 249.768 424.88C249.208 424.68 248.688 424.387 248.208 424C247.728 423.6 247.348 423.067 247.068 422.4C246.788 421.733 246.648 420.96 246.648 420.08C246.648 419.187 246.788 418.4 247.068 417.72C247.361 417.027 247.748 416.487 248.228 416.1ZM256.77 416.3C257.717 415.407 258.877 414.96 260.25 414.96C261.623 414.96 262.783 415.407 263.73 416.3C264.677 417.193 265.15 418.453 265.15 420.08C265.15 421.707 264.677 422.96 263.73 423.84C262.783 424.72 261.623 425.16 260.25 425.16C258.877 425.16 257.717 424.72 256.77 423.84C255.823 422.96 255.35 421.707 255.35 420.08C255.35 418.453 255.823 417.193 256.77 416.3ZM262.55 417.32C261.963 416.667 261.197 416.34 260.25 416.34C259.303 416.34 258.53 416.667 257.93 417.32C257.343 417.96 257.05 418.88 257.05 420.08C257.05 421.267 257.343 422.187 257.93 422.84C258.53 423.48 259.303 423.8 260.25 423.8C261.197 423.8 261.963 423.48 262.55 422.84C263.15 422.187 263.45 421.267 263.45 420.08C263.45 418.88 263.15 417.96 262.55 417.32ZM267.015 415.14H267.135C267.655 415.14 267.915 415.393 267.915 415.9V416.74C268.528 415.58 269.468 415 270.735 415C271.548 415 272.221 415.22 272.755 415.66C273.301 416.087 273.675 416.687 273.875 417.46C274.088 416.687 274.481 416.08 275.055 415.64C275.628 415.2 276.288 414.98 277.035 414.98C279.328 414.98 280.475 416.32 280.475 419V424.26C280.475 424.753 280.208 425 279.675 425H279.555C279.048 425 278.795 424.753 278.795 424.26V419.1C278.795 417.273 278.101 416.36 276.715 416.36C275.741 416.36 275.075 416.713 274.715 417.42C274.368 418.127 274.195 419.087 274.195 420.3V424.26C274.195 424.753 273.935 425 273.415 425H273.275C272.768 425 272.515 424.753 272.515 424.26V419.1C272.515 417.273 271.815 416.36 270.415 416.36C268.748 416.36 267.915 417.653 267.915 420.24V424.26C267.915 424.753 267.655 425 267.135 425H267.015C266.508 425 266.255 424.753 266.255 424.26V415.9C266.255 415.393 266.508 415.14 267.015 415.14Z" fill="black"/>
<path d="M73.84 447.1C73.84 445.433 74.3067 444.16 75.24 443.28C76.1733 442.4 77.2467 441.96 78.46 441.96C79.6733 441.96 80.6333 442.273 81.34 442.9C82.0467 443.513 82.4 444.28 82.4 445.2C82.4 446.12 82.0333 446.84 81.3 447.36C80.58 447.867 79.6467 448.12 78.5 448.12C77.3533 448.12 76.32 447.94 75.4 447.58C75.4 448.553 75.7333 449.34 76.4 449.94C77.0667 450.527 77.88 450.82 78.84 450.82C80.3333 450.82 81.2667 450.36 81.64 449.44C81.8667 449.44 82.06 449.507 82.22 449.64C82.38 449.76 82.46 449.94 82.46 450.18C82.46 450.647 82.1133 451.093 81.42 451.52C80.74 451.947 79.8733 452.16 78.82 452.16C77.4067 452.16 76.22 451.733 75.26 450.88C74.3133 450.027 73.84 448.767 73.84 447.1ZM80.88 445.14C80.88 444.62 80.6533 444.18 80.2 443.82C79.76 443.46 79.1467 443.28 78.36 443.28C77.5867 443.28 76.9067 443.593 76.32 444.22C75.7333 444.847 75.4333 445.553 75.42 446.34C76.38 446.66 77.3333 446.82 78.28 446.82C80.0133 446.82 80.88 446.26 80.88 445.14ZM84.433 437.98H84.573C85.0796 437.98 85.333 438.227 85.333 438.72V451.24C85.333 451.747 85.0796 452 84.573 452H84.433C84.153 452 83.953 451.94 83.833 451.82C83.7263 451.7 83.673 451.507 83.673 451.24V438.72C83.673 438.453 83.7263 438.267 83.833 438.16C83.953 438.04 84.153 437.98 84.433 437.98ZM87.9772 443.3C88.9239 442.407 90.0839 441.96 91.4572 441.96C92.8305 441.96 93.9905 442.407 94.9372 443.3C95.8839 444.193 96.3572 445.453 96.3572 447.08C96.3572 448.707 95.8839 449.96 94.9372 450.84C93.9905 451.72 92.8305 452.16 91.4572 452.16C90.0839 452.16 88.9239 451.72 87.9772 450.84C87.0305 449.96 86.5572 448.707 86.5572 447.08C86.5572 445.453 87.0305 444.193 87.9772 443.3ZM93.7572 444.32C93.1705 443.667 92.4039 443.34 91.4572 443.34C90.5105 443.34 89.7372 443.667 89.1372 444.32C88.5505 444.96 88.2572 445.88 88.2572 447.08C88.2572 448.267 88.5505 449.187 89.1372 449.84C89.7372 450.48 90.5105 450.8 91.4572 450.8C92.4039 450.8 93.1705 450.48 93.7572 449.84C94.3572 449.187 94.6572 448.267 94.6572 447.08C94.6572 445.88 94.3572 444.96 93.7572 444.32ZM98.5616 442.14H98.6816C99.1882 442.14 99.4416 442.387 99.4416 442.88V451.24C99.4416 451.747 99.1882 452 98.6816 452H98.5616C98.0549 452 97.8016 451.747 97.8016 451.24V442.88C97.8016 442.387 98.0549 442.14 98.5616 442.14ZM97.5216 439.32C97.5216 439.013 97.6282 438.753 97.8416 438.54C98.0549 438.313 98.3082 438.2 98.6016 438.2C98.9082 438.2 99.1682 438.313 99.3816 438.54C99.6082 438.753 99.7216 439.013 99.7216 439.32C99.7216 439.613 99.6149 439.873 99.4016 440.1C99.1882 440.313 98.9282 440.42 98.6216 440.42C98.3149 440.42 98.0549 440.313 97.8416 440.1C97.6282 439.887 97.5216 439.627 97.5216 439.32ZM101.096 444.88C101.096 443.973 101.483 443.26 102.256 442.74C103.043 442.207 103.916 441.94 104.876 441.94C105.836 441.94 106.576 442.08 107.096 442.36C107.629 442.627 107.896 442.947 107.896 443.32C107.896 443.693 107.636 443.967 107.116 444.14C107.023 443.927 106.763 443.727 106.336 443.54C105.923 443.353 105.409 443.26 104.796 443.26C104.183 443.26 103.676 443.38 103.276 443.62C102.889 443.847 102.696 444.173 102.696 444.6C102.696 445.013 102.843 445.333 103.136 445.56C103.429 445.787 104.116 446.027 105.196 446.28C106.289 446.52 107.123 446.873 107.696 447.34C108.269 447.807 108.556 448.46 108.556 449.3C108.556 450.14 108.169 450.827 107.396 451.36C106.623 451.88 105.669 452.14 104.536 452.14C103.416 452.14 102.516 452 101.836 451.72C101.169 451.427 100.836 451.047 100.836 450.58C100.836 450.113 101.056 449.773 101.496 449.56C101.683 449.92 102.043 450.227 102.576 450.48C103.109 450.733 103.776 450.86 104.576 450.86C105.376 450.86 105.983 450.713 106.396 450.42C106.823 450.127 107.036 449.767 107.036 449.34C107.036 448.9 106.843 448.56 106.456 448.32C106.083 448.067 105.343 447.82 104.236 447.58C103.143 447.34 102.343 447 101.836 446.56C101.343 446.107 101.096 445.547 101.096 444.88ZM108.934 447.1C108.934 445.433 109.4 444.16 110.334 443.28C111.267 442.4 112.34 441.96 113.554 441.96C114.767 441.96 115.727 442.273 116.434 442.9C117.14 443.513 117.494 444.28 117.494 445.2C117.494 446.12 117.127 446.84 116.394 447.36C115.674 447.867 114.74 448.12 113.594 448.12C112.447 448.12 111.414 447.94 110.494 447.58C110.494 448.553 110.827 449.34 111.494 449.94C112.16 450.527 112.974 450.82 113.934 450.82C115.427 450.82 116.36 450.36 116.734 449.44C116.96 449.44 117.154 449.507 117.314 449.64C117.474 449.76 117.554 449.94 117.554 450.18C117.554 450.647 117.207 451.093 116.514 451.52C115.834 451.947 114.967 452.16 113.914 452.16C112.5 452.16 111.314 451.733 110.354 450.88C109.407 450.027 108.934 448.767 108.934 447.1ZM115.974 445.14C115.974 444.62 115.747 444.18 115.294 443.82C114.854 443.46 114.24 443.28 113.454 443.28C112.68 443.28 112 443.593 111.414 444.22C110.827 444.847 110.527 445.553 110.514 446.34C111.474 446.66 112.427 446.82 113.374 446.82C115.107 446.82 115.974 446.26 115.974 445.14ZM118.487 450.86C118.487 450.473 118.613 450.16 118.867 449.92C119.12 449.68 119.427 449.56 119.787 449.56C120.16 449.56 120.473 449.68 120.727 449.92C120.98 450.16 121.107 450.473 121.107 450.86C121.107 451.247 120.98 451.56 120.727 451.8C120.473 452.04 120.16 452.16 119.787 452.16C119.427 452.16 119.12 452.04 118.867 451.8C118.613 451.56 118.487 451.247 118.487 450.86ZM123.542 437.98H123.682C124.188 437.98 124.442 438.227 124.442 438.72V451.24C124.442 451.747 124.188 452 123.682 452H123.542C123.262 452 123.062 451.94 122.942 451.82C122.835 451.7 122.782 451.507 122.782 451.24V438.72C122.782 438.453 122.835 438.267 122.942 438.16C123.062 438.04 123.262 437.98 123.542 437.98ZM125.666 447.1C125.666 445.433 126.132 444.16 127.066 443.28C127.999 442.4 129.072 441.96 130.286 441.96C131.499 441.96 132.459 442.273 133.166 442.9C133.872 443.513 134.226 444.28 134.226 445.2C134.226 446.12 133.859 446.84 133.126 447.36C132.406 447.867 131.472 448.12 130.326 448.12C129.179 448.12 128.146 447.94 127.226 447.58C127.226 448.553 127.559 449.34 128.226 449.94C128.892 450.527 129.706 450.82 130.666 450.82C132.159 450.82 133.092 450.36 133.466 449.44C133.692 449.44 133.886 449.507 134.046 449.64C134.206 449.76 134.286 449.94 134.286 450.18C134.286 450.647 133.939 451.093 133.246 451.52C132.566 451.947 131.699 452.16 130.646 452.16C129.232 452.16 128.046 451.733 127.086 450.88C126.139 450.027 125.666 448.767 125.666 447.1ZM132.706 445.14C132.706 444.62 132.479 444.18 132.026 443.82C131.586 443.46 130.972 443.28 130.186 443.28C129.412 443.28 128.732 443.593 128.146 444.22C127.559 444.847 127.259 445.553 127.246 446.34C128.206 446.66 129.159 446.82 130.106 446.82C131.839 446.82 132.706 446.26 132.706 445.14ZM140.159 437.64C140.772 437.64 141.279 437.78 141.679 438.06C142.092 438.34 142.299 438.693 142.299 439.12C142.299 439.533 142.085 439.813 141.659 439.96C141.325 439.4 140.792 439.12 140.059 439.12C138.672 439.12 137.979 440.08 137.979 442V442.2H140.439C140.945 442.2 141.199 442.427 141.199 442.88C141.199 443.32 140.945 443.54 140.439 443.54H137.979V451.34C137.979 451.607 137.919 451.8 137.799 451.92C137.679 452.027 137.485 452.08 137.219 452.08H137.119C136.839 452.08 136.639 452.027 136.519 451.92C136.399 451.8 136.339 451.607 136.339 451.34V443.54H135.299C135.019 443.54 134.819 443.5 134.699 443.42C134.592 443.327 134.539 443.147 134.539 442.88C134.539 442.613 134.599 442.433 134.719 442.34C134.839 442.247 135.032 442.2 135.299 442.2H136.339V441.56C136.339 440.32 136.679 439.36 137.359 438.68C138.039 437.987 138.972 437.64 140.159 437.64ZM141.039 447.1C141.039 445.433 141.506 444.16 142.439 443.28C143.373 442.4 144.446 441.96 145.659 441.96C146.873 441.96 147.833 442.273 148.539 442.9C149.246 443.513 149.599 444.28 149.599 445.2C149.599 446.12 149.233 446.84 148.499 447.36C147.779 447.867 146.846 448.12 145.699 448.12C144.553 448.12 143.519 447.94 142.599 447.58C142.599 448.553 142.933 449.34 143.599 449.94C144.266 450.527 145.079 450.82 146.039 450.82C147.533 450.82 148.466 450.36 148.839 449.44C149.066 449.44 149.259 449.507 149.419 449.64C149.579 449.76 149.659 449.94 149.659 450.18C149.659 450.647 149.313 451.093 148.619 451.52C147.939 451.947 147.073 452.16 146.019 452.16C144.606 452.16 143.419 451.733 142.459 450.88C141.513 450.027 141.039 448.767 141.039 447.1ZM148.079 445.14C148.079 444.62 147.853 444.18 147.399 443.82C146.959 443.46 146.346 443.28 145.559 443.28C144.786 443.28 144.106 443.593 143.519 444.22C142.933 444.847 142.633 445.553 142.619 446.34C143.579 446.66 144.533 446.82 145.479 446.82C147.213 446.82 148.079 446.26 148.079 445.14ZM151.492 437.98H151.652C152.159 437.98 152.412 438.227 152.412 438.72V443.5C152.679 443.047 153.092 442.673 153.652 442.38C154.212 442.087 154.826 441.94 155.492 441.94C156.732 441.94 157.732 442.36 158.492 443.2C159.266 444.027 159.652 445.293 159.652 447C159.652 448.693 159.199 449.98 158.292 450.86C157.386 451.727 156.306 452.16 155.052 452.16C153.812 452.16 152.572 451.927 151.332 451.46C151.132 451.38 150.986 451.28 150.892 451.16C150.799 451.04 150.752 450.86 150.752 450.62V438.72C150.752 438.227 150.999 437.98 151.492 437.98ZM155.312 443.36C154.472 443.36 153.779 443.693 153.232 444.36C152.686 445.013 152.412 445.88 152.412 446.96V450.16C153.159 450.56 153.999 450.76 154.932 450.76C155.866 450.76 156.606 450.447 157.152 449.82C157.712 449.193 157.992 448.253 157.992 447C157.992 444.573 157.099 443.36 155.312 443.36ZM160.698 442.16H161.158C161.585 442.16 161.845 442.367 161.938 442.78C162.818 446.22 163.665 448.76 164.478 450.4H164.718C165.532 448.76 166.378 446.22 167.258 442.78C167.352 442.367 167.612 442.16 168.038 442.16H168.498C168.912 442.16 169.118 442.307 169.118 442.6C169.118 442.68 169.098 442.773 169.058 442.88C168.032 446.387 167.032 449.1 166.058 451.02C165.885 451.367 165.705 451.62 165.518 451.78C165.332 451.927 165.058 452 164.698 452H164.518C164.145 452 163.865 451.927 163.678 451.78C163.492 451.62 163.312 451.367 163.138 451.02C162.165 449.1 161.165 446.387 160.138 442.88C160.098 442.773 160.078 442.68 160.078 442.6C160.078 442.307 160.285 442.16 160.698 442.16ZM170.714 442.14H170.834C171.34 442.14 171.594 442.387 171.594 442.88V443.96C171.82 443.453 172.18 443 172.674 442.6C173.18 442.2 173.72 442 174.294 442C174.867 442 175.3 442.113 175.594 442.34C175.9 442.567 176.054 442.847 176.054 443.18C176.054 443.5 175.914 443.753 175.634 443.94C175.22 443.593 174.78 443.42 174.314 443.42C173.487 443.42 172.834 443.76 172.354 444.44C171.874 445.107 171.634 445.947 171.634 446.96V451.24C171.634 451.507 171.574 451.7 171.454 451.82C171.334 451.94 171.14 452 170.874 452H170.714C170.447 452 170.254 451.94 170.134 451.82C170.014 451.7 169.954 451.507 169.954 451.24V442.88C169.954 442.387 170.207 442.14 170.714 442.14ZM176.063 447.1C176.063 445.433 176.53 444.16 177.463 443.28C178.397 442.4 179.47 441.96 180.683 441.96C181.897 441.96 182.857 442.273 183.563 442.9C184.27 443.513 184.623 444.28 184.623 445.2C184.623 446.12 184.257 446.84 183.523 447.36C182.803 447.867 181.87 448.12 180.723 448.12C179.577 448.12 178.543 447.94 177.623 447.58C177.623 448.553 177.957 449.34 178.623 449.94C179.29 450.527 180.103 450.82 181.063 450.82C182.557 450.82 183.49 450.36 183.863 449.44C184.09 449.44 184.283 449.507 184.443 449.64C184.603 449.76 184.683 449.94 184.683 450.18C184.683 450.647 184.337 451.093 183.643 451.52C182.963 451.947 182.097 452.16 181.043 452.16C179.63 452.16 178.443 451.733 177.483 450.88C176.537 450.027 176.063 448.767 176.063 447.1ZM183.103 445.14C183.103 444.62 182.877 444.18 182.423 443.82C181.983 443.46 181.37 443.28 180.583 443.28C179.81 443.28 179.13 443.593 178.543 444.22C177.957 444.847 177.657 445.553 177.643 446.34C178.603 446.66 179.557 446.82 180.503 446.82C182.237 446.82 183.103 446.26 183.103 445.14ZM186.536 438.42H188.596C189.156 438.42 189.436 438.66 189.436 439.14V451.24C189.436 451.747 189.156 452 188.596 452H188.456C187.896 452 187.616 451.747 187.616 451.24V439.92H186.536C185.99 439.92 185.716 439.673 185.716 439.18C185.716 438.673 185.99 438.42 186.536 438.42ZM197.1 449.18C196.1 449.18 195.293 448.853 194.68 448.2C194.08 447.547 193.78 446.633 193.78 445.46C193.78 444.273 194.107 443.367 194.76 442.74C195.413 442.1 196.2 441.78 197.12 441.78C198.053 441.78 198.827 441.887 199.44 442.1C200.053 442.313 200.36 442.667 200.36 443.16V446.96C200.36 447.24 200.433 447.453 200.58 447.6C200.74 447.747 200.94 447.82 201.18 447.82C202.047 447.82 202.48 446.973 202.48 445.28C202.48 443.587 201.98 442.26 200.98 441.3C199.993 440.34 198.813 439.86 197.44 439.86C196.08 439.86 194.9 440.34 193.9 441.3C192.913 442.26 192.42 443.613 192.42 445.36C192.42 447.107 192.88 448.473 193.8 449.46C194.733 450.447 195.867 450.94 197.2 450.94C198.76 450.94 199.653 450.553 199.88 449.78C200.333 449.847 200.56 450.107 200.56 450.56C200.56 451 200.267 451.407 199.68 451.78C199.093 452.14 198.253 452.32 197.16 452.32C195.347 452.32 193.833 451.707 192.62 450.48C191.407 449.253 190.8 447.547 190.8 445.36C190.8 443.88 191.127 442.6 191.78 441.52C192.433 440.427 193.253 439.627 194.24 439.12C195.227 438.613 196.22 438.36 197.22 438.36C198.22 438.36 199.113 438.513 199.9 438.82C200.687 439.113 201.393 439.547 202.02 440.12C202.647 440.68 203.147 441.413 203.52 442.32C203.907 443.227 204.1 444.28 204.1 445.48C204.1 446.68 203.813 447.6 203.24 448.24C202.68 448.88 201.973 449.2 201.12 449.2C200.613 449.2 200.187 449.1 199.84 448.9C199.507 448.7 199.28 448.5 199.16 448.3C198.973 448.553 198.687 448.767 198.3 448.94C197.927 449.1 197.527 449.18 197.1 449.18ZM198.86 447.16V443.36C198.433 443.187 197.913 443.1 197.3 443.1C196.7 443.1 196.213 443.293 195.84 443.68C195.467 444.053 195.28 444.653 195.28 445.48C195.28 446.293 195.46 446.9 195.82 447.3C196.18 447.687 196.673 447.88 197.3 447.88C197.62 447.88 197.907 447.833 198.16 447.74C198.413 447.633 198.593 447.527 198.7 447.42C198.807 447.313 198.86 447.227 198.86 447.16ZM208.929 449.14L208.029 449.1C207.709 449.1 207.435 449.187 207.209 449.36C206.982 449.52 206.869 449.7 206.869 449.9C206.869 450.407 207.295 450.66 208.149 450.66H209.629C212.469 450.66 213.889 451.533 213.889 453.28C213.889 454.2 213.442 454.947 212.549 455.52C211.669 456.093 210.535 456.407 209.149 456.46H208.669C207.535 456.46 206.569 456.233 205.769 455.78C204.969 455.327 204.569 454.793 204.569 454.18C204.569 453.887 204.635 453.653 204.769 453.48C204.915 453.307 205.102 453.207 205.329 453.18C205.582 453.7 206.029 454.133 206.669 454.48C207.309 454.827 208.062 455 208.929 455H209.069C210.069 455 210.849 454.847 211.409 454.54C211.982 454.233 212.269 453.847 212.269 453.38C212.269 452.927 212.015 452.593 211.509 452.38C211.015 452.18 210.155 452.08 208.929 452.08C207.715 452.08 206.802 451.96 206.189 451.72C205.575 451.48 205.269 451.013 205.269 450.32C205.269 449.627 205.755 449.08 206.729 448.68C205.569 448.027 204.989 446.987 204.989 445.56C204.989 444.427 205.375 443.547 206.149 442.92C206.922 442.293 207.875 441.98 209.009 441.98C209.582 441.98 210.109 442.1 210.589 442.34C211.082 442.58 211.455 442.84 211.709 443.12C212.215 442.787 212.469 442.18 212.469 441.3C212.829 441.3 213.149 441.413 213.429 441.64C213.709 441.853 213.849 442.127 213.849 442.46C213.849 443.127 213.355 443.607 212.369 443.9C212.662 444.3 212.809 444.887 212.809 445.66C212.809 446.793 212.435 447.66 211.689 448.26C210.955 448.847 210.035 449.14 208.929 449.14ZM210.609 443.84C210.169 443.453 209.609 443.26 208.929 443.26C208.249 443.26 207.682 443.453 207.229 443.84C206.775 444.213 206.549 444.793 206.549 445.58C206.549 446.367 206.775 446.953 207.229 447.34C207.682 447.713 208.249 447.9 208.929 447.9C209.609 447.9 210.169 447.713 210.609 447.34C211.062 446.953 211.289 446.367 211.289 445.58C211.289 444.793 211.062 444.213 210.609 443.84ZM215.495 442.14H215.615C216.135 442.14 216.395 442.393 216.395 442.9V443.74C217.008 442.58 217.948 442 219.215 442C220.028 442 220.702 442.22 221.235 442.66C221.782 443.087 222.155 443.687 222.355 444.46C222.568 443.687 222.962 443.08 223.535 442.64C224.108 442.2 224.768 441.98 225.515 441.98C227.808 441.98 228.955 443.32 228.955 446V451.26C228.955 451.753 228.688 452 228.155 452H228.035C227.528 452 227.275 451.753 227.275 451.26V446.1C227.275 444.273 226.582 443.36 225.195 443.36C224.222 443.36 223.555 443.713 223.195 444.42C222.848 445.127 222.675 446.087 222.675 447.3V451.26C222.675 451.753 222.415 452 221.895 452H221.755C221.248 452 220.995 451.753 220.995 451.26V446.1C220.995 444.273 220.295 443.36 218.895 443.36C217.228 443.36 216.395 444.653 216.395 447.24V451.26C216.395 451.753 216.135 452 215.615 452H215.495C214.988 452 214.735 451.753 214.735 451.26V442.9C214.735 442.393 214.988 442.14 215.495 442.14ZM233.969 441.98C236.795 441.98 238.209 443.293 238.209 445.92V449.88C238.209 450.613 238.489 451.08 239.049 451.28C238.849 451.787 238.475 452.04 237.929 452.04C237.529 452.04 237.209 451.9 236.969 451.62C236.742 451.327 236.629 450.947 236.629 450.48C235.789 451.6 234.702 452.16 233.369 452.16C232.289 452.16 231.435 451.887 230.809 451.34C230.195 450.78 229.889 450.033 229.889 449.1C229.889 448.153 230.249 447.387 230.969 446.8C231.702 446.213 232.689 445.92 233.929 445.92C234.675 445.92 235.302 446 235.809 446.16C236.222 446.307 236.469 446.4 236.549 446.44V445.56C236.549 444.747 236.342 444.173 235.929 443.84C235.515 443.493 234.889 443.32 234.049 443.32C232.862 443.32 231.942 443.773 231.289 444.68C230.729 444.6 230.449 444.34 230.449 443.9C230.449 443.393 230.795 442.947 231.489 442.56C232.182 442.173 233.009 441.98 233.969 441.98ZM236.549 447.72C235.709 447.347 234.882 447.16 234.069 447.16C233.255 447.16 232.629 447.333 232.189 447.68C231.749 448.027 231.529 448.48 231.529 449.04C231.529 449.587 231.715 450.027 232.089 450.36C232.475 450.68 233.035 450.84 233.769 450.84C234.515 450.84 235.162 450.573 235.709 450.04C236.269 449.507 236.549 448.86 236.549 448.1V447.72ZM241.052 442.14H241.172C241.679 442.14 241.932 442.387 241.932 442.88V451.24C241.932 451.747 241.679 452 241.172 452H241.052C240.546 452 240.292 451.747 240.292 451.24V442.88C240.292 442.387 240.546 442.14 241.052 442.14ZM240.012 439.32C240.012 439.013 240.119 438.753 240.332 438.54C240.546 438.313 240.799 438.2 241.092 438.2C241.399 438.2 241.659 438.313 241.872 438.54C242.099 438.753 242.212 439.013 242.212 439.32C242.212 439.613 242.106 439.873 241.892 440.1C241.679 440.313 241.419 440.42 241.112 440.42C240.806 440.42 240.546 440.313 240.332 440.1C240.119 439.887 240.012 439.627 240.012 439.32ZM244.867 437.98H245.007C245.513 437.98 245.767 438.227 245.767 438.72V451.24C245.767 451.747 245.513 452 245.007 452H244.867C244.587 452 244.387 451.94 244.267 451.82C244.16 451.7 244.107 451.507 244.107 451.24V438.72C244.107 438.453 244.16 438.267 244.267 438.16C244.387 438.04 244.587 437.98 244.867 437.98ZM247.451 450.86C247.451 450.473 247.577 450.16 247.831 449.92C248.084 449.68 248.391 449.56 248.751 449.56C249.124 449.56 249.437 449.68 249.691 449.92C249.944 450.16 250.071 450.473 250.071 450.86C250.071 451.247 249.944 451.56 249.691 451.8C249.437 452.04 249.124 452.16 248.751 452.16C248.391 452.16 248.084 452.04 247.831 451.8C247.577 451.56 247.451 451.247 247.451 450.86ZM252.586 443.1C253.079 442.713 253.606 442.427 254.166 442.24C254.726 442.053 255.406 441.96 256.206 441.96C257.006 441.96 257.706 442.14 258.306 442.5C258.919 442.86 259.226 443.247 259.226 443.66C259.226 444.167 258.939 444.453 258.366 444.52C258.232 444.227 257.932 443.96 257.466 443.72C256.999 443.467 256.446 443.34 255.806 443.34C254.912 443.34 254.172 443.66 253.586 444.3C252.999 444.927 252.706 445.847 252.706 447.06C252.706 448.273 253.006 449.2 253.606 449.84C254.206 450.48 254.926 450.8 255.766 450.8C257.099 450.8 257.999 450.367 258.466 449.5C258.719 449.5 258.932 449.58 259.106 449.74C259.279 449.887 259.366 450.08 259.366 450.32C259.366 450.787 259.046 451.213 258.406 451.6C257.766 451.973 257.032 452.16 256.206 452.16C255.392 452.16 254.699 452.067 254.126 451.88C253.566 451.68 253.046 451.387 252.566 451C252.086 450.6 251.706 450.067 251.426 449.4C251.146 448.733 251.006 447.96 251.006 447.08C251.006 446.187 251.146 445.4 251.426 444.72C251.719 444.027 252.106 443.487 252.586 443.1ZM261.128 443.3C262.075 442.407 263.235 441.96 264.608 441.96C265.981 441.96 267.141 442.407 268.088 443.3C269.035 444.193 269.508 445.453 269.508 447.08C269.508 448.707 269.035 449.96 268.088 450.84C267.141 451.72 265.981 452.16 264.608 452.16C263.235 452.16 262.075 451.72 261.128 450.84C260.181 449.96 259.708 448.707 259.708 447.08C259.708 445.453 260.181 444.193 261.128 443.3ZM266.908 444.32C266.321 443.667 265.555 443.34 264.608 443.34C263.661 443.34 262.888 443.667 262.288 444.32C261.701 444.96 261.408 445.88 261.408 447.08C261.408 448.267 261.701 449.187 262.288 449.84C262.888 450.48 263.661 450.8 264.608 450.8C265.555 450.8 266.321 450.48 266.908 449.84C267.508 449.187 267.808 448.267 267.808 447.08C267.808 445.88 267.508 444.96 266.908 444.32ZM271.372 442.14H271.492C272.012 442.14 272.272 442.393 272.272 442.9V443.74C272.886 442.58 273.826 442 275.092 442C275.906 442 276.579 442.22 277.112 442.66C277.659 443.087 278.032 443.687 278.232 444.46C278.446 443.687 278.839 443.08 279.412 442.64C279.986 442.2 280.646 441.98 281.392 441.98C283.686 441.98 284.832 443.32 284.832 446V451.26C284.832 451.753 284.566 452 284.032 452H283.912C283.406 452 283.152 451.753 283.152 451.26V446.1C283.152 444.273 282.459 443.36 281.072 443.36C280.099 443.36 279.432 443.713 279.072 444.42C278.726 445.127 278.552 446.087 278.552 447.3V451.26C278.552 451.753 278.292 452 277.772 452H277.632C277.126 452 276.872 451.753 276.872 451.26V446.1C276.872 444.273 276.172 443.36 274.772 443.36C273.106 443.36 272.272 444.653 272.272 447.24V451.26C272.272 451.753 272.012 452 271.492 452H271.372C270.866 452 270.612 451.753 270.612 451.26V442.9C270.612 442.393 270.866 442.14 271.372 442.14Z" fill="black"/>
</svg>
